<svg width="82" height="125" viewBox="0 0 82 125" fill="none" xmlns="http://www.w3.org/2000/svg">
<path d="M4.77785 8.27249H2.48691C2.48691 8.27249 1.3809 4.362 12.2831 1.75483C23.1853 -0.852335 26.6618 1.28076 26.6618 1.28076V3.05815L4.77785 8.27249Z" fill="#2B1251"/>
<path d="M77.9348 18.3461L78.7251 115.836L81.7269 114.572L81.095 17.1611L77.9348 18.3461Z" fill="#2B1251"/>
<path d="M56.9201 116.705C56.9201 116.705 65.9265 110.542 73.8664 113.979V20.2415C73.8664 20.2415 52.3868 17.869 49.7353 27.6471L56.9201 116.705Z" fill="url(#paint0_linear_3223_8202)"/>
<path opacity="0.5" d="M53.2982 23.1012L53.2971 23.1018C53.0939 23.2314 52.8977 23.3668 52.7073 23.5065C52.6887 23.5199 52.67 23.5332 52.6513 23.5471C52.4658 23.6852 52.2871 23.8281 52.1149 23.9769C52.0925 23.9961 52.0706 24.0163 52.0482 24.0355C51.7064 24.3358 51.3928 24.6573 51.1102 25.0018C51.0856 25.0322 51.0606 25.0621 51.0366 25.0925C50.9022 25.2615 50.7742 25.4354 50.6548 25.6156C50.6404 25.6375 50.6276 25.6599 50.6132 25.6823C50.5049 25.8503 50.4036 26.0236 50.3092 26.2012C50.2932 26.2316 50.2756 26.2614 50.2601 26.2923C50.1631 26.4817 50.0756 26.6774 49.9956 26.8779C49.9786 26.92 49.9631 26.9632 49.9466 27.0064C49.8682 27.2149 49.7957 27.4271 49.7359 27.6474L49.8058 33.0372C49.9098 32.8537 50.0207 32.6857 50.1279 32.5092L56.9202 116.705C56.9202 116.705 58.8911 115.357 61.8007 114.273V26.6587L58.7616 25.3874C65.1624 23.042 71.6625 24.6872 71.6625 24.6872V113.266C72.4011 113.432 73.1381 113.665 73.866 113.98V20.2424C73.866 20.2424 60.1657 18.7295 53.2982 23.1012Z" fill="url(#paint1_linear_3223_8202)"/>
<path d="M4.77777 8.27246C9.7692 4.7134 17.0409 2.9664 26.6617 3.05812L73.8664 20.2412C73.8664 20.2412 52.8608 17.8687 49.7353 27.6468C34.2869 21.2107 17.9645 15.8092 4.77777 8.27246Z" fill="url(#paint2_linear_3223_8202)"/>
<path opacity="0.3" d="M15.0593 8.47245C15.0865 8.22767 15.143 7.9989 15.2155 7.77919L29.0822 13.7097L38.7995 17.8186L48.5386 21.8768L38.9024 17.5802L29.2443 13.3343L15.4048 7.31844C15.8896 6.36015 16.8191 5.6573 17.956 5.13363L23.2071 7.35417L32.9463 11.4124L23.3101 7.1158L18.381 4.94912C20.0406 4.27399 22.0462 3.93003 23.7431 3.70819L39.7007 10.533L49.418 14.6419L59.1572 18.7001L49.5209 14.4035L39.8628 10.1576L24.7419 3.585C25.8602 3.45382 26.7459 3.36263 27.1421 3.23145L26.6633 3.05707C17.0409 2.96641 9.7692 4.71341 4.77777 8.27247C17.9645 15.8092 34.2869 21.2107 49.7353 27.6468C49.8286 27.3551 49.9385 27.0757 50.0622 26.8053C49.9918 26.777 23.7713 16.3867 17.4462 11.8646C16.4063 11.1212 14.9009 9.90588 15.0593 8.47245Z" fill="url(#paint3_linear_3223_8202)"/>
<path d="M26.6617 1.99121V3.05776L73.8664 20.2414V113.978L78.725 115.835L77.9347 18.3451L26.6617 1.99121Z" fill="url(#paint4_linear_3223_8202)"/>
<path d="M0.0375541 9.3391C0.0375541 9.3391 -0.554911 4.24315 10.3473 1.5176C21.2495 -1.20796 27.5304 0.569437 27.5304 0.569437L81.0944 17.1601L77.9343 18.345L26.6612 1.99114C26.6612 1.99114 19.2348 0.568904 11.5322 2.82091C3.82965 5.07292 2.8815 6.96924 4.77781 8.27256C6.67413 9.57588 56.9201 30.67 56.9201 30.67L53.2859 31.6182L0.0375541 9.3391Z" fill="url(#paint5_linear_3223_8202)"/>
<path d="M53.286 31.6181L56.9202 30.6699V123.104L53.286 125V31.6181Z" fill="#2B1251"/>
<path d="M0.0375366 99.8128L53.2859 125V31.6179L0.0375366 9.33887V99.8128Z" fill="url(#paint6_linear_3223_8202)"/>
<path opacity="0.5" d="M45.0815 28.1846C45.0644 31.6764 44.6319 47.7727 43.0876 63.4323C40.9545 85.0613 19.2679 92.6636 0.0375366 83.6076V99.8116L53.2859 124.999V31.6172L45.0815 28.1846Z" fill="#693E9B"/>
<path d="M46.5165 110.599L47.6423 109.712V71.9033L46.5165 72.7912V110.599Z" fill="#D68709"/>
<path d="M3.6521 52.5153L4.77784 51.6279L47.6423 71.9035L46.5165 72.7914L3.6521 52.5153Z" fill="#FFCA5F"/>
<path opacity="0.4" d="M48.0939 49.1837L5.2295 28.9081L5.22791 20.3262L48.0923 40.6017L48.0939 49.1837Z" fill="#2B1251"/>
<path opacity="0.4" d="M41.2595 50.9306L12.0634 37.1205L12.0623 34.7549L41.2584 48.565L41.2595 50.9306Z" fill="#2B1251"/>
<path d="M46.5165 72.7907L3.6521 52.5146V90.3231L46.5165 110.599V72.7907Z" fill="url(#paint7_linear_3223_8202)"/>
<path opacity="0.2" d="M41.6403 70.4854C41.3294 76.4692 24.4428 93.7707 3.6521 84.9397V90.3247L46.5165 110.6V72.7918L41.6403 70.4854Z" fill="#D68709"/>
<path d="M46.5165 110.599C46.4478 99.6954 46.4072 83.862 46.3939 72.7902C36.5726 68.3971 24.5633 62.4181 14.3389 57.6458L3.6521 52.5146L14.3975 57.5215C24.7809 62.5012 36.467 67.7236 46.6397 72.7902C46.5891 83.9079 46.6216 99.633 46.5165 110.599Z" fill="#B56D04"/>
<g opacity="0.7">
<path d="M67.8947 28.1846C68.2531 41.15 68.2531 54.1997 67.8947 67.1689C67.5358 54.1987 67.5358 41.1511 67.8947 28.1846Z" fill="#B7957E"/>
</g>
<g opacity="0.7">
<path d="M64.6158 85.0625C64.9795 92.4649 64.9795 99.9275 64.6158 107.331C64.2521 99.9269 64.2521 92.4654 64.6158 85.0625Z" fill="#B7957E"/>
</g>
<g opacity="0.7">
<path d="M67.8949 73.8613C68.2533 82.3318 68.2533 90.8674 67.8949 99.34C67.536 90.8669 67.536 82.3329 67.8949 73.8613Z" fill="#B7957E"/>
</g>
<g opacity="0.7">
<path d="M64.6159 83.3417C64.2618 66.6892 64.2704 48.1735 64.6159 31.5098C64.9615 48.1767 64.9706 66.686 64.6159 83.3417Z" fill="#B7957E"/>
</g>
<path opacity="0.3" d="M37.0946 13.25C38.1676 13.6596 39.2347 14.0808 40.2953 14.5192L43.4678 15.8534L46.6157 17.2442C47.662 17.7151 48.7013 18.2014 49.7353 18.7011C48.6624 18.2921 47.5948 17.8703 46.5346 17.4325L43.3622 16.0977L40.2143 14.7064C39.168 14.2355 38.1287 13.7491 37.0946 13.25Z" fill="#B7957E"/>
<defs>
<linearGradient id="paint0_linear_3223_8202" x1="61.6495" y1="19.1645" x2="64.7307" y2="116.575" gradientUnits="userSpaceOnUse">
<stop stop-color="#F2E2C4"/>
<stop offset="1" stop-color="#D3B99F"/>
</linearGradient>
<linearGradient id="paint1_linear_3223_8202" x1="61.8007" y1="113.917" x2="61.8007" y2="18.3783" gradientUnits="userSpaceOnUse">
<stop stop-color="#B7957E"/>
<stop offset="1" stop-color="#B7957E"/>
</linearGradient>
<linearGradient id="paint2_linear_3223_8202" x1="57.2974" y1="22.2271" x2="16.2157" y2="5.47843" gradientUnits="userSpaceOnUse">
<stop stop-color="#FFF5E1"/>
<stop offset="1" stop-color="#F2E2C4"/>
</linearGradient>
<linearGradient id="paint3_linear_3223_8202" x1="-0.165184" y1="-1.13307" x2="50.4366" y2="21.5014" gradientUnits="userSpaceOnUse">
<stop stop-color="#B7957E"/>
<stop offset="1" stop-color="#B7957E"/>
</linearGradient>
<linearGradient id="paint4_linear_3223_8202" x1="42.6464" y1="-7.66822" x2="94.3144" y2="107.044" gradientUnits="userSpaceOnUse">
<stop stop-color="#432370"/>
<stop offset="1" stop-color="#693E9B"/>
</linearGradient>
<linearGradient id="paint5_linear_3223_8202" x1="30.6157" y1="19.8117" x2="51.4725" y2="3.53704" gradientUnits="userSpaceOnUse">
<stop stop-color="#BE91F2"/>
<stop offset="1" stop-color="#9A66CC"/>
</linearGradient>
<linearGradient id="paint6_linear_3223_8202" x1="27.9921" y1="17.6146" x2="25.4639" y2="111.787" gradientUnits="userSpaceOnUse">
<stop stop-color="#9A66CC"/>
<stop offset="1" stop-color="#693E9B"/>
</linearGradient>
<linearGradient id="paint7_linear_3223_8202" x1="-0.298169" y1="41.964" x2="44.5756" y2="111.961" gradientUnits="userSpaceOnUse">
<stop stop-color="#FFC950"/>
<stop offset="1" stop-color="#EDA618"/>
</linearGradient>
</defs>
</svg>
