<svg width="33" height="32" viewBox="0 0 33 32" fill="none" xmlns="http://www.w3.org/2000/svg">
<path d="M0.25 16C0.25 7.16344 7.41344 0 16.25 0C25.0866 0 32.25 7.16344 32.25 16C32.25 24.8366 25.0866 32 16.25 32C7.41344 32 0.25 24.8366 0.25 16Z" fill="#F6F6F7"/>
<g clip-path="url(#clip0_3216_3809)">
<path d="M8.91675 8.66699H11.5834L13.3701 17.5937C13.431 17.9006 13.598 18.1763 13.8418 18.3725C14.0855 18.5688 14.3905 18.673 14.7034 18.667H21.1834C21.4963 18.673 21.8013 18.5688 22.0451 18.3725C22.2888 18.1763 22.4558 17.9006 22.5167 17.5937L23.5834 12.0003H12.2501M14.9167 22.0003C14.9167 22.3685 14.6183 22.667 14.2501 22.667C13.8819 22.667 13.5834 22.3685 13.5834 22.0003C13.5834 21.6321 13.8819 21.3337 14.2501 21.3337C14.6183 21.3337 14.9167 21.6321 14.9167 22.0003ZM22.2501 22.0003C22.2501 22.3685 21.9516 22.667 21.5834 22.667C21.2152 22.667 20.9167 22.3685 20.9167 22.0003C20.9167 21.6321 21.2152 21.3337 21.5834 21.3337C21.9516 21.3337 22.2501 21.6321 22.2501 22.0003Z" stroke="#1E1E1E" stroke-width="1.5" stroke-linecap="round" stroke-linejoin="round"/>
</g>
<defs>
<clipPath id="clip0_3216_3809">
<rect width="16" height="16" fill="white" transform="translate(8.25 8)"/>
</clipPath>
</defs>
</svg>
