<svg width="60" height="125" viewBox="0 0 60 125" fill="none" xmlns="http://www.w3.org/2000/svg">
<path d="M47.5539 96.2569C37.8328 90.644 22.0701 90.6434 12.3472 96.2557C7.4849 99.0628 5.07349 102.741 5.08056 106.419C5.08233 107.123 5.08351 109.915 5.08056 110.614C5.067 114.297 7.47724 117.98 12.3449 120.79C22.0666 126.403 37.8292 126.404 47.5515 120.791C52.4204 117.981 54.8312 114.297 54.8176 110.612C54.8147 109.914 54.8165 107.122 54.8176 106.419C54.8247 102.741 52.4151 99.0633 47.5539 96.2569Z" fill="#363F49"/>
<path opacity="0.2" d="M47.5539 96.2569C37.8328 90.644 22.0701 90.6434 12.3472 96.2557C7.4849 99.0628 5.07349 102.741 5.08056 106.419C5.08233 107.123 5.08351 109.915 5.08056 110.614C5.067 114.297 7.47724 117.98 12.3449 120.79C22.0666 126.403 37.8292 126.404 47.5515 120.791C52.4204 117.981 54.8312 114.297 54.8176 110.612C54.8147 109.914 54.8165 107.122 54.8176 106.419C54.8247 102.741 52.4151 99.0633 47.5539 96.2569Z" fill="black"/>
<path opacity="0.2" d="M18.4504 93.6699C16.2542 94.3303 14.1912 95.191 12.347 96.2553C7.48466 99.0623 5.07324 102.74 5.08032 106.419C5.08209 107.123 5.08327 109.915 5.08032 110.614C5.06676 114.297 7.47699 117.98 12.3446 120.79C14.1895 121.855 16.253 122.715 18.4498 123.376L18.4504 93.6699Z" fill="black"/>
<path d="M12.347 96.2557C22.0705 90.6434 37.8325 90.644 47.5536 96.2569C57.2748 101.87 57.2736 110.97 47.5519 116.582C37.8296 122.195 22.0669 122.195 12.3452 116.582C2.6229 110.968 2.62408 101.868 12.347 96.2557Z" fill="#363F49"/>
<path opacity="0.4" d="M12.347 96.2557C22.0705 90.6434 37.8325 90.644 47.5536 96.2569C57.2748 101.87 57.2736 110.97 47.5519 116.582C37.8296 122.195 22.0669 122.195 12.3452 116.582C2.6229 110.968 2.62408 101.868 12.347 96.2557Z" fill="black"/>
<path d="M29.9309 86.5498C6.13331 86.5498 3.05035 96.7851 3.05035 102.07C3.05035 107.353 6.26597 111.739 12.8959 115.568H12.9324C17.4587 118.181 23.5026 119.62 29.9485 119.62C36.3951 119.62 42.439 118.181 46.9652 115.568C53.5952 111.739 56.8114 107.354 56.8114 102.07C56.812 96.7851 53.7284 86.5498 29.9309 86.5498Z" fill="#363F49"/>
<path opacity="0.1" d="M38.8165 107.998C38.6679 108.019 38.5211 108.04 38.3755 108.059C36.602 108.299 33.3481 108.096 31.913 109.48C29.4928 111.814 32.8287 113.828 34.9182 114.48C38.2458 115.519 42.3081 115.004 45.4229 113.519C48.0448 112.268 50.8152 110.22 52.3104 107.662C52.9554 106.559 54.18 103.331 52.5575 102.583C51.5463 102.117 50.7445 102.545 49.9827 103.222C49.1756 103.938 48.3549 104.406 47.4587 104.999C46.658 105.529 45.8715 105.99 44.9966 106.398C43.1647 107.251 40.8577 107.705 38.8165 107.998Z" fill="white"/>
<path opacity="0.1" d="M27.0383 104.924C41.077 106.187 50.9255 100.587 54.3858 94.5753C51.2987 90.3874 44.5008 86.5498 29.9309 86.5498C6.13331 86.5498 3.05035 96.7851 3.05035 102.07C3.05035 107.353 6.26597 111.739 12.8959 115.568H12.9324C17.4587 118.181 23.5026 119.62 29.9486 119.62C36.3951 119.62 42.439 118.181 46.9652 115.568C48.5011 114.681 49.846 113.762 51.0181 112.811C46.0089 116.294 37.7305 118.882 27.0378 117.328C16.3379 115.772 12.3924 103.605 27.0383 104.924Z" fill="black"/>
<path opacity="0.1" d="M18.4734 100.554L17.1698 87.8457C4.94112 90.7665 3.0509 97.9341 3.0509 102.07C3.0509 107.353 6.26652 111.739 12.8964 115.568H12.933C13.1411 115.687 13.3675 115.792 13.5815 115.907C6.23173 111.167 10.7621 98.3062 18.4734 100.554Z" fill="black"/>
<path d="M48.0029 72.8966C38.0336 67.1404 21.8688 67.1398 11.8977 72.8954C6.91099 75.7738 4.43885 79.5454 4.44592 83.3176C4.4471 84.0392 4.44828 88.2495 4.44592 88.9664C4.43177 92.7433 6.90392 96.5202 11.896 99.4027C21.8659 105.159 38.0306 105.159 48.0012 99.4039C52.9944 96.5214 55.4665 92.7427 55.4524 88.9652C55.45 88.2489 55.4512 84.0398 55.4524 83.3181C55.4595 79.546 52.9879 75.775 48.0029 72.8966Z" fill="#363F49"/>
<path opacity="0.3" d="M48.0029 72.8966C38.0336 67.1404 21.8688 67.1398 11.8977 72.8954C6.91099 75.7738 4.43885 79.5454 4.44592 83.3176C4.4471 84.0392 4.44828 88.2495 4.44592 88.9664C4.43177 92.7433 6.90392 96.5202 11.896 99.4027C21.8659 105.159 38.0306 105.159 48.0012 99.4039C52.9944 96.5214 55.4665 92.7427 55.4524 88.9652C55.45 88.2489 55.4512 84.0398 55.4524 83.3181C55.4595 79.546 52.9879 75.775 48.0029 72.8966Z" fill="white"/>
<path d="M11.8961 99.4031C13.5794 100.375 15.4501 101.168 17.427 101.812V70.4873C15.4507 71.1311 13.5811 71.9241 11.8978 72.8958C6.91111 75.7741 4.43896 79.5457 4.44604 83.3179C4.44722 84.0396 4.44899 88.2498 4.44604 88.9668C4.43248 92.7437 6.90403 96.5206 11.8961 99.4031Z" fill="#363F49"/>
<path d="M11.8978 72.8949C21.8695 67.1388 38.0337 67.1394 48.0024 72.8955C57.9712 78.6517 57.9706 87.9843 48.0006 93.7398C38.0307 99.4954 21.866 99.4954 11.8954 93.7387C1.92609 87.9831 1.92668 78.6505 11.8978 72.8949Z" fill="#363F49"/>
<path opacity="0.6" d="M11.8978 72.8949C21.8695 67.1388 38.0337 67.1394 48.0024 72.8955C57.9712 78.6517 57.9706 87.9843 48.0006 93.7398C38.0307 99.4954 21.866 99.4954 11.8954 93.7387C1.92609 87.9831 1.92668 78.6505 11.8978 72.8949Z" fill="white"/>
<path d="M54.5609 57.7832C54.5609 57.7979 54.5462 57.8262 54.5462 57.841C44.4595 77.9412 51.2952 82.0023 51.8293 82.3054C51.8441 82.3195 51.8582 82.3195 51.8582 82.3195C51.8582 85.5563 49.705 88.8079 45.4134 91.2789C43.4625 92.4062 41.2368 93.2729 38.8672 93.8943C38.3036 94.0387 37.7258 94.1691 37.148 94.2846C33.1164 95.0941 28.7664 95.2097 24.6481 94.6313C24.4318 94.6024 24.2148 94.5735 23.9978 94.5299C20.4573 93.9662 17.1197 92.8826 14.3451 91.2783C12.2066 90.0354 10.5876 88.6198 9.51871 87.0875C8.44919 85.5558 7.91503 83.9373 7.91503 82.3189C7.91503 82.3189 7.91503 82.3189 7.91503 82.3048C7.91503 76.6259 13.5073 67.2473 13.8103 62.4498C13.8103 62.4498 13.7814 62.4498 13.7384 62.435C13.2903 62.3195 10.9638 61.7559 8.79587 62.1173C8.75283 62.1173 8.70979 62.1173 8.66616 62.132C8.66616 62.132 1.36883 57.739 1.05045 57.5656C-0.394628 56.7567 0.111239 53.3896 2.24968 48.0574C4.86568 41.5978 5.60266 33.2746 6.15157 28.0001C6.71522 22.7109 9.69205 17.0326 11.9172 13.0152C14.157 8.99772 13.4059 5.7031 14.7206 1.97513C16.0213 -1.75284 18.0589 0.53005 20.1107 2.82767C22.1624 5.1253 22.1624 5.1253 22.1624 5.1253C22.1624 5.1253 31.8729 2.33655 38.4339 6.20896C39.3731 6.77261 46.006 10.6309 48.9103 12.3071C48.9392 12.3212 48.9681 12.3507 49.0117 12.3649C49.2428 12.5093 49.4887 12.6538 49.7198 12.8129C49.8931 12.9285 50.0665 13.0441 50.2257 13.1885C50.399 13.3188 50.5723 13.4633 50.7309 13.6077C50.8465 13.6944 50.9768 13.7958 51.0776 13.9114C51.2946 14.1136 51.5109 14.3305 51.7132 14.5469C57.8549 21.4262 63.1005 34.33 54.5609 57.7832Z" fill="#E0E0E0"/>
<path d="M54.5609 57.7832C54.5609 57.7979 54.5462 57.8262 54.5462 57.841C44.4595 77.9412 51.2952 82.0023 51.8293 82.3054C51.8441 82.3195 51.8582 82.3195 51.8582 82.3195C51.8582 85.5563 49.705 88.8079 45.4134 91.2789C43.4625 92.4062 41.2368 93.2729 38.8672 93.8943C38.3036 94.0387 37.7258 94.1691 37.148 94.2846C33.1164 95.0941 28.7664 95.2097 24.6481 94.6313C24.4318 94.6024 24.2148 94.5735 23.9978 94.5299C20.4573 93.9662 17.1197 92.8826 14.3451 91.2783C12.2066 90.0354 10.5876 88.6198 9.51871 87.0875C8.44919 85.5558 7.91503 83.9373 7.91503 82.3189C7.91503 82.3189 7.91503 82.3189 7.91503 82.3048C7.91503 76.6259 13.5073 67.2473 13.8103 62.4498C13.8103 62.4498 13.7814 62.4498 13.7384 62.435C13.2903 62.3195 10.9638 61.7559 8.79587 62.1173C8.75283 62.1173 8.70979 62.1173 8.66616 62.132C8.66616 62.132 1.36883 57.739 1.05045 57.5656C-0.394628 56.7567 0.111239 53.3896 2.24968 48.0574C4.86568 41.5978 5.60266 33.2746 6.15157 28.0001C6.71522 22.7109 9.69205 17.0326 11.9172 13.0152C14.157 8.99772 13.4059 5.7031 14.7206 1.97513C16.0213 -1.75284 18.0589 0.53005 20.1107 2.82767C22.1624 5.1253 22.1624 5.1253 22.1624 5.1253C22.1624 5.1253 31.8729 2.33655 38.4339 6.20896C39.3731 6.77261 46.006 10.6309 48.9103 12.3071C48.9392 12.3212 48.9681 12.3507 49.0117 12.3649C49.2428 12.5093 49.4887 12.6538 49.7198 12.8129C49.8931 12.9285 50.0665 13.0441 50.2257 13.1885C50.399 13.3188 50.5723 13.4633 50.7309 13.6077C50.8465 13.6944 50.9768 13.7958 51.0776 13.9114C51.2946 14.1136 51.5109 14.3305 51.7132 14.5469C57.8549 21.4262 63.1005 34.33 54.5609 57.7832Z" fill="#363F49"/>
<path opacity="0.1" d="M34.0915 37.6084C37.5164 43.3451 35.6811 48.0701 27.8201 64.2548C24.6121 70.8299 19.8288 81.2774 23.9907 94.5432C20.4502 93.9795 17.112 92.8959 14.3374 91.2916C12.1989 90.0487 10.5953 88.6184 9.51101 87.0866C8.44149 85.569 7.90674 83.9365 7.90674 82.3181C7.90674 76.6244 13.499 67.2464 13.8026 62.4489C15.3774 62.4489 16.8366 62.2903 17.9209 61.0905C19.7852 59.024 23.1228 51.8859 23.1228 51.8859C30.3783 47.1886 32.2856 42.8681 34.0915 37.6084Z" fill="black"/>
<path opacity="0.1" d="M23.124 51.8853C23.124 51.8853 19.7858 59.0234 17.9221 61.0899C16.8384 62.2891 15.3786 62.4483 13.8038 62.4483C13.7384 63.4807 13.4271 64.7253 12.9808 66.0991C15.9134 65.7559 18.7104 64.8143 20.5983 62.6287C22.6488 60.2539 23.206 56.8378 25.3533 54.5496C26.1616 53.6882 27.1574 53.0303 28.0731 52.285C32.1654 48.9538 34.5556 43.6859 34.542 38.4232C34.4029 38.1532 34.2555 37.882 34.0922 37.6084C32.2857 42.8681 30.3783 47.1886 23.124 51.8853Z" fill="black"/>
<path d="M54.5609 57.7834C54.5609 57.7981 54.5462 57.8264 54.5462 57.8412C47.2052 78.0575 51.439 81.9878 51.8293 82.3055C51.8441 82.3197 51.8582 82.3197 51.8582 82.3197C51.8582 85.5565 49.705 88.8081 45.4134 91.2791C43.4625 92.4064 41.2368 93.273 38.8672 93.8945C38.3036 94.0389 37.7258 94.1692 37.148 94.2848C33.1305 95.0943 28.7664 95.224 24.6481 94.6315C24.4318 94.6167 24.2148 94.5737 23.9978 94.5448V94.5301C19.8365 81.2643 24.6051 70.8168 27.813 64.2565C35.6882 48.0723 37.5236 43.332 34.0986 37.61C32.278 42.8703 30.3848 47.1908 23.1311 51.8869C23.1311 51.8869 19.7781 59.0256 17.9144 61.0916C16.8308 62.2914 15.3716 62.45 13.7814 62.4352H13.7384C12.6258 62.4352 11.4549 62.3486 10.2993 62.5078C9.79346 62.5803 9.40315 62.5225 9.1001 62.3486C8.98454 62.2908 8.88313 62.2189 8.79646 62.1175C7.7128 61.0049 8.30534 57.7681 10.2993 52.8403C12.8858 46.3666 16.2382 39.4879 16.8019 34.1993C17.3514 28.9107 20.3276 23.2317 22.5675 19.2143C24.7926 15.1968 24.0562 11.9022 25.3568 8.17425C26.6574 4.44629 28.7092 6.74391 30.7468 9.0268C32.7986 11.3097 32.7986 11.3097 32.7986 11.3097C32.7986 11.3097 42.278 8.62174 48.8242 12.2636C48.8531 12.2636 48.882 12.2925 48.9109 12.3073C48.9398 12.3214 48.9687 12.3509 49.0123 12.365C49.2434 12.5095 49.4893 12.6539 49.7204 12.8131C49.8937 12.9287 50.0671 13.0442 50.2262 13.1887C50.3996 13.319 50.5729 13.4634 50.7315 13.6079C50.8471 13.6946 50.9774 13.796 51.0782 13.9115C51.2952 14.1138 51.5115 14.3307 51.7138 14.5471C57.8549 21.4264 63.1005 34.3302 54.5609 57.7834Z" fill="#363F49"/>
<path opacity="0.3" d="M54.5609 57.7834C54.5609 57.7981 54.5462 57.8264 54.5462 57.8412C47.2052 78.0575 51.439 81.9878 51.8293 82.3055C51.8441 82.3197 51.8582 82.3197 51.8582 82.3197C51.8582 85.5565 49.705 88.8081 45.4134 91.2791C43.4625 92.4064 41.2368 93.273 38.8672 93.8945C38.3036 94.0389 37.7258 94.1692 37.148 94.2848C33.1305 95.0943 28.7664 95.224 24.6481 94.6315C24.4318 94.6167 24.2148 94.5737 23.9978 94.5448V94.5301C19.8365 81.2643 24.6051 70.8168 27.813 64.2565C35.6882 48.0723 37.5236 43.332 34.0986 37.61C32.278 42.8703 30.3848 47.1908 23.1311 51.8869C23.1311 51.8869 19.7781 59.0256 17.9144 61.0916C16.8308 62.2914 15.3716 62.45 13.7814 62.4352H13.7384C12.6258 62.4352 11.4549 62.3486 10.2993 62.5078C9.79346 62.5803 9.40315 62.5225 9.1001 62.3486C8.98454 62.2908 8.88313 62.2189 8.79646 62.1175C7.7128 61.0049 8.30534 57.7681 10.2993 52.8403C12.8858 46.3666 16.2382 39.4879 16.8019 34.1993C17.3514 28.9107 20.3276 23.2317 22.5675 19.2143C24.7926 15.1968 24.0562 11.9022 25.3568 8.17425C26.6574 4.44629 28.7092 6.74391 30.7468 9.0268C32.7986 11.3097 32.7986 11.3097 32.7986 11.3097C32.7986 11.3097 42.278 8.62174 48.8242 12.2636C48.8531 12.2636 48.882 12.2925 48.9109 12.3073C48.9398 12.3214 48.9687 12.3509 49.0123 12.365C49.2434 12.5095 49.4893 12.6539 49.7204 12.8131C49.8937 12.9287 50.0671 13.0442 50.2262 13.1887C50.3996 13.319 50.5729 13.4634 50.7315 13.6079C50.8471 13.6946 50.9774 13.796 51.0782 13.9115C51.2952 14.1138 51.5115 14.3307 51.7138 14.5471C57.8549 21.4264 63.1005 34.3302 54.5609 57.7834Z" fill="white"/>
<path d="M28.5082 15.2332C30.7469 14.692 31.8966 13.7657 30.6266 11.6043C29.3572 9.44287 27.4275 7.97656 27.4275 7.97656C27.4275 7.97656 29.6337 11.0878 29.5459 12.9403C29.4586 14.7928 28.5082 15.2332 28.5082 15.2332Z" fill="#363F49"/>
<path d="M36.7147 13.928C39.9315 13.1215 43.512 13.6191 46.4181 15.4132C49.3495 17.2115 51.3105 20.2307 52.5422 23.3597C53.7744 26.5281 54.2455 29.9454 54.2254 33.3084C54.1629 36.6732 53.7903 40.0362 52.9867 43.296C51.3889 49.7638 49.2098 56.0789 46.7842 62.2295C45.5968 65.3059 44.5509 68.4172 43.9766 71.6552C43.3458 74.8832 43.1276 78.189 42.9501 81.4972C42.8004 78.1873 42.8759 74.8591 43.2774 71.5426C43.7166 68.2291 44.6712 64.9929 45.7389 61.8516C47.954 55.606 50.1119 49.3794 51.5835 42.9594C53.1235 36.6602 53.6034 29.8888 51.5033 23.7406C50.4544 20.7236 48.7151 17.8111 46.0272 15.9981C43.4029 14.1126 39.9934 13.4422 36.7147 13.928Z" fill="#363F49"/>
<path d="M25.3267 31.3715C25.862 32.0183 25.5053 33.7853 24.5307 35.3183C23.5561 36.8512 22.3321 37.5693 21.7968 36.9225C21.2615 36.2757 21.6176 34.5088 22.5922 32.9758C23.5673 31.4429 24.7913 30.7248 25.3267 31.3715Z" fill="#363F49"/>
<path d="M48.8233 12.2624C42.2794 8.62289 32.7983 11.312 32.7983 11.312C32.7983 11.312 32.7983 11.312 30.7441 9.02912C28.7095 6.74623 26.6559 4.44861 25.3565 8.17422C24.0576 11.9045 24.7928 15.2003 22.5671 19.2172C20.3273 23.2341 17.3511 28.913 16.8021 34.2004C16.2385 39.4878 12.8855 46.366 10.3013 52.8426C8.305 57.7668 7.71247 61.0054 8.79672 62.1186C8.92643 62.2566 9.05732 62.3279 9.05732 62.3279C9.05732 62.3279 8.894 62.2719 8.66819 62.1333C8.66819 62.1333 1.36968 57.7391 1.05012 57.567C-0.392602 56.7598 0.113855 53.3927 2.24875 48.0575C4.86594 41.5997 5.60174 33.2748 6.15124 28.0015C6.71488 22.714 9.69054 17.0351 11.9162 13.0183C14.1561 9.00141 13.4061 5.7056 14.7197 1.97528C16.0239 -1.75033 18.0586 0.532555 20.1121 2.83018C22.1609 5.12781 22.1609 5.12781 22.1609 5.12781C22.1609 5.12781 31.8714 2.33847 38.4341 6.21206C39.3657 6.76981 45.8806 10.562 48.8233 12.2624Z" fill="#363F49"/>
<path opacity="0.5" d="M48.8233 12.2624C42.2794 8.62289 32.7983 11.312 32.7983 11.312C32.7983 11.312 32.7983 11.312 30.7441 9.02912C28.7095 6.74623 26.6559 4.44861 25.3565 8.17422C24.0576 11.9045 24.7928 15.2003 22.5671 19.2172C20.3273 23.2341 17.3511 28.913 16.8021 34.2004C16.2385 39.4878 12.8855 46.366 10.3013 52.8426C8.305 57.7668 7.71247 61.0054 8.79672 62.1186C8.92643 62.2566 9.05732 62.3279 9.05732 62.3279C9.05732 62.3279 8.894 62.2719 8.66819 62.1333C8.66819 62.1333 1.36968 57.7391 1.05012 57.567C-0.392602 56.7598 0.113855 53.3927 2.24875 48.0575C4.86594 41.5997 5.60174 33.2748 6.15124 28.0015C6.71488 22.714 9.69054 17.0351 11.9162 13.0183C14.1561 9.00141 13.4061 5.7056 14.7197 1.97528C16.0239 -1.75033 18.0586 0.532555 20.1121 2.83018C22.1609 5.12781 22.1609 5.12781 22.1609 5.12781C22.1609 5.12781 31.8714 2.33847 38.4341 6.21206C39.3657 6.76981 45.8806 10.562 48.8233 12.2624Z" fill="white"/>
<path opacity="0.2" d="M14.3669 16.8877C15.1982 15.9013 16.0961 14.9603 16.8036 13.8761C17.1102 13.4062 17.4728 12.8537 17.5707 12.2948C17.6786 11.6799 17.6768 11.0673 17.6143 10.4459C17.4339 8.64879 17.1928 6.8476 17.2753 5.04287C17.2883 4.76222 17.3101 4.47569 17.4186 4.21627C17.5843 3.82065 17.9079 3.70804 18.31 3.75933C18.5129 3.78527 18.7139 3.83657 18.915 3.86487C19.0895 3.88904 19.4061 4.01521 19.5659 3.92088C20.0045 3.66205 19.1838 2.89853 18.9851 2.70751C18.5978 2.33489 18.1756 1.99941 17.7541 1.66571C17.5053 1.46937 17.2506 1.2695 16.951 1.16573C16.6515 1.06255 16.2937 1.0714 16.046 1.26891C15.8957 1.38919 15.8008 1.56371 15.717 1.73705C15.1599 2.895 14.9465 4.17499 14.7996 5.44142C14.654 6.6943 14.4494 7.93539 14.2814 9.18001C13.6794 13.632 10.5086 17.2521 8.70035 21.365C6.82369 25.6336 6.43987 30.3857 6.09083 35.0352C6.05369 35.5293 6.18811 36.2179 6.68337 36.2026C6.84079 34.8065 7.10905 33.4245 7.42389 32.0554C8.68089 26.5847 10.7498 21.1805 14.3669 16.8877Z" fill="white"/>
</svg>
