<svg width="159" height="135" viewBox="0 0 159 135" fill="none" xmlns="http://www.w3.org/2000/svg">
<path d="M56.5542 69.745L132.873 94.3448C136.04 95.2875 139.36 93.4323 140.218 90.2413L157.949 24.2549C158.849 20.9046 155.699 16.0103 152.277 15.4417L72.8469 1.97266C69.8514 1.47498 66.9707 3.34355 66.2039 6.28164L50.0492 62.1613C49.25 65.2234 53.521 68.8421 56.5542 69.745Z" fill="#182970"/>
<path d="M54.2423 67.8525L130.561 92.4522C133.728 93.3949 137.049 91.5397 137.906 88.3488L155.637 22.3624C156.537 19.012 154.351 15.6158 150.929 15.0472L70.535 0.0800846C67.5396 -0.4176 64.6589 1.45096 63.892 4.38906L50.2367 60.7428C49.4375 63.8049 51.2091 66.9495 54.2423 67.8525Z" fill="url(#paint0_linear_3223_7845)"/>
<path d="M53.87 71.0898L130.939 96.0285C133.676 96.8475 134.313 100.436 132.023 102.146L91.3129 132.56C89.027 134.268 85.983 134.568 83.4074 133.341L1.50514 94.3199C-0.465764 93.3804 -0.511093 90.5914 1.42829 89.5884L47.1666 71.7173C49.2353 70.6473 51.6388 70.4223 53.87 71.0898Z" fill="url(#paint1_linear_3223_7845)"/>
<path d="M53.8889 70.9795L130.958 95.9182C133.695 96.7371 134.331 100.325 132.042 102.036L91.3317 132.45C89.0458 134.157 86.0019 134.458 83.4263 133.23L1.52394 94.2095C-0.446965 93.2699 -0.492294 90.481 1.44709 89.4779L47.1854 71.6069C49.2542 70.537 51.6576 70.312 53.8889 70.9795Z" fill="url(#paint2_linear_3223_7845)"/>
<path d="M53.8889 67.9414L130.958 92.8801C133.695 93.699 134.331 97.2874 132.042 98.9976L91.3317 129.412C89.0458 131.119 86.0019 131.42 83.4263 130.192L1.52394 91.1714C-0.446965 90.2318 -0.492294 87.4429 1.44709 86.4398L47.1854 68.5688C49.2542 67.4989 51.6576 67.2739 53.8889 67.9414Z" fill="url(#paint3_linear_3223_7845)"/>
<path d="M132.495 93.8464C133.692 95.284 133.613 97.5937 131.91 98.8664L91.1993 129.28C88.9135 130.988 85.8695 131.289 83.2938 130.061L1.39154 91.0403C1.16406 90.9318 0.968662 90.7937 0.792725 90.6416C0.998881 90.8479 1.23386 91.0341 1.52345 91.1721L83.4257 130.193C86.0014 131.421 89.0454 131.12 91.3312 129.412L132.042 98.9983C133.802 97.6835 133.819 95.2695 132.495 93.8464Z" fill="white"/>
<path d="M47.5322 75.1853C48.8896 75.6779 49.5582 75.9199 50.8791 76.3971C51.2645 76.5363 51.8362 76.5309 52.1591 76.3842C53.2669 75.8815 53.824 75.6242 54.9473 75.0937C55.2752 74.939 55.2328 74.7021 54.8492 74.5654C53.5344 74.0972 52.8683 73.8591 51.515 73.3734C51.1201 73.2317 50.5293 73.2421 50.1992 73.3952C49.0676 73.9203 48.5082 74.1733 47.3984 74.6657C47.0748 74.8095 47.1363 75.0416 47.5322 75.1853Z" fill="#182970"/>
<path d="M60.6436 76.6139C59.3894 76.1735 58.7553 75.95 57.4689 75.4947C57.0932 75.3619 56.5219 75.3809 56.1948 75.5363C55.0742 76.0686 54.5179 76.3273 53.4112 76.8334C53.0884 76.9809 53.1349 77.2102 53.5128 77.3461C54.8068 77.812 55.4451 78.0411 56.709 78.4938C57.0775 78.6258 57.6349 78.6104 57.956 78.4587C59.0571 77.9388 59.6094 77.6741 60.7182 77.1328C61.0419 76.9749 61.0091 76.7423 60.6436 76.6139Z" fill="#182970"/>
<path d="M66.1914 78.5484C64.9857 78.1313 64.3775 77.92 63.1465 77.4907C62.7874 77.3654 62.2331 77.393 61.9107 77.5517C60.8053 78.0959 60.2544 78.3623 59.1553 78.8865C58.8349 79.0393 58.8703 79.2677 59.2325 79.397C60.4743 79.8401 61.0884 80.0586 62.3059 80.4909C62.6609 80.6169 63.206 80.5916 63.5241 80.4337C64.6147 79.8926 65.1603 79.6187 66.251 79.0627C66.5694 78.9006 66.5427 78.67 66.1914 78.5484Z" fill="#182970"/>
<path d="M71.5465 80.3877C70.3775 79.9892 69.7895 79.7881 68.6018 79.3797C68.2556 79.2608 67.7166 79.2967 67.3995 79.4599C66.3132 80.0195 65.7693 80.2957 64.6813 80.8416C64.3639 81.0009 64.3915 81.2303 64.7419 81.3541C65.9423 81.7786 66.5372 81.9884 67.7201 82.4044C68.0653 82.5258 68.5992 82.4904 68.9134 82.3255C69.9909 81.7601 70.5284 81.4753 71.5984 80.9013C71.9104 80.7338 71.8878 80.5041 71.5465 80.3877Z" fill="#182970"/>
<path d="M70.0896 83.2356C71.2603 83.6456 71.8418 83.8489 73.0005 84.2527C73.3387 84.3706 73.864 84.3256 74.174 84.153C75.2372 83.5608 75.7659 83.2638 76.8134 82.6692C77.1191 82.4958 77.0959 82.2647 76.7623 82.1526C75.6183 81.7681 75.0441 81.5743 73.8879 81.1827C73.5506 81.0684 73.0253 81.1125 72.7146 81.2812C71.6494 81.8594 71.1137 82.1467 70.0391 82.7175C69.7255 82.8841 69.7483 83.116 70.0896 83.2356Z" fill="#182970"/>
<path d="M75.3274 85.0625C76.479 85.4622 77.0524 85.6608 78.1982 86.0565C78.5327 86.172 79.0522 86.1183 79.3579 85.9373C80.4058 85.3163 80.9254 85.0062 81.9501 84.3894C82.2491 84.2095 82.2226 83.9755 81.8927 83.8659C80.7619 83.4907 80.1959 83.3024 79.0592 82.9226C78.7275 82.8118 78.2129 82.8634 77.9088 83.0382C76.8661 83.6374 76.3394 83.937 75.2794 84.5352C74.9704 84.7097 74.9916 84.9458 75.3274 85.0625Z" fill="#182970"/>
<path d="M80.5039 86.8506C81.6476 87.2441 82.2184 87.4401 83.3625 87.8319C83.6963 87.9463 84.213 87.8845 84.5145 87.6947C85.548 87.0438 86.0586 86.7202 87.0609 86.0797C87.3533 85.8929 87.3209 85.6545 86.9911 85.5465C85.8612 85.176 85.2974 84.9907 84.1684 84.6181C83.8394 84.5095 83.3325 84.5678 83.0352 84.7493C82.0152 85.3711 81.4976 85.6839 80.4528 86.3111C80.1481 86.4941 80.1705 86.7359 80.5039 86.8506Z" fill="#182970"/>
<path d="M85.6695 88.621C86.8162 89.0123 87.3904 89.2079 88.5434 89.5998C88.88 89.7142 89.3965 89.6451 89.6939 89.4464C90.7145 88.7652 91.2173 88.4277 92.199 87.7632C92.4851 87.5693 92.4446 87.3257 92.1114 87.2175C90.9709 86.8471 90.4034 86.6624 89.2702 86.2925C88.9397 86.1846 88.4382 86.2489 88.1471 86.4373C87.1492 87.0827 86.6404 87.4094 85.6097 88.0666C85.3093 88.2582 85.3352 88.5068 85.6695 88.621Z" fill="#182970"/>
<path d="M97.3079 88.8988C96.1445 88.5236 95.5674 88.3373 94.418 87.9653C94.0825 87.8568 93.5832 87.9261 93.2979 88.1214C92.3206 88.7911 91.8192 89.1314 90.8011 89.8192C90.5044 90.0197 90.5355 90.2761 90.8741 90.3908C92.035 90.7841 92.6176 90.9812 93.7912 91.3775C94.1335 91.4931 94.6529 91.4176 94.9478 91.2101C95.9579 90.4987 96.454 90.1474 97.4173 89.4591C97.6985 89.2582 97.6474 89.0082 97.3079 88.8988Z" fill="#182970"/>
<path d="M102.633 90.6123C101.435 90.228 100.842 90.0375 99.6646 89.6589C99.3214 89.5484 98.8199 89.6214 98.5397 89.8238C97.5797 90.5171 97.0848 90.8712 96.0763 91.5889C95.7822 91.7983 95.821 92.0634 96.1668 92.1799C97.353 92.5794 97.9502 92.7802 99.1549 93.1848C99.5063 93.3028 100.033 93.2222 100.325 93.0062C101.329 92.2655 101.82 91.9008 102.769 91.1896C103.046 90.9819 102.982 90.7244 102.633 90.6123Z" fill="#182970"/>
<path d="M108.142 92.3768C106.897 91.9785 106.283 91.7817 105.065 91.3918C104.71 91.278 104.204 91.3535 103.928 91.5624C102.981 92.2784 102.49 92.6459 101.488 93.3926C101.195 93.6104 101.243 93.8851 101.599 94.0045C102.822 94.4142 103.439 94.6207 104.686 95.0378C105.05 95.1594 105.586 95.0751 105.879 94.8509C106.88 94.0825 107.369 93.7051 108.308 92.9723C108.583 92.7586 108.504 92.4928 108.142 92.3768Z" fill="#182970"/>
<path d="M107.221 95.8845C108.49 96.3086 109.132 96.5227 110.433 96.9564C110.812 97.083 111.363 96.9963 111.656 96.7647C112.662 95.9707 113.152 95.5819 114.087 94.83C114.36 94.6106 114.267 94.3364 113.887 94.2147C112.584 93.7979 111.942 93.5926 110.673 93.1866C110.303 93.0681 109.787 93.1446 109.513 93.3595C108.575 94.0965 108.086 94.4764 107.084 95.2505C106.792 95.4761 106.85 95.7608 107.221 95.8845Z" fill="#182970"/>
<path d="M119.923 96.1477C118.55 95.7077 117.874 95.4912 116.542 95.0648C116.152 94.9401 115.623 95.016 115.35 95.2364C114.414 95.9921 113.924 96.3831 112.917 97.1823C112.623 97.4153 112.693 97.7104 113.081 97.8396C114.409 98.282 115.082 98.506 116.447 98.9603C116.845 99.0929 117.415 99.0057 117.711 98.7675C118.728 97.9507 119.221 97.552 120.16 96.7837C120.434 96.5595 120.323 96.2761 119.923 96.1477Z" fill="#182970"/>
<path d="M55.4846 79.0632C54.7184 78.7859 54.3325 78.646 53.556 78.3643C53.0502 78.1809 52.7961 78.0885 52.2856 77.9032C49.9474 77.0536 48.7545 76.6188 46.3041 75.723C45.9081 75.5782 45.3259 75.5724 45.007 75.7091C43.9135 76.1777 43.3714 76.4054 42.2933 76.852C41.9787 76.9822 42.0459 77.2081 42.4402 77.3571C44.8816 78.2786 46.072 78.7281 48.4083 79.61C48.9183 79.8025 49.1723 79.8983 49.6778 80.0891C50.4541 80.3822 50.8401 80.5278 51.6065 80.8172C51.9757 80.9564 52.5301 80.9542 52.8473 80.8115C53.9336 80.323 54.4787 80.0755 55.5729 79.5715C55.892 79.4246 55.8536 79.1967 55.4846 79.0632Z" fill="#182970"/>
<path d="M61.0895 81.0838C59.8694 80.6454 59.2547 80.4239 58.0109 79.9752C57.6481 79.8443 57.0936 79.8588 56.7748 80.0073C55.6814 80.5164 55.1365 80.7667 54.0499 81.2611C53.7327 81.4054 53.772 81.6331 54.1357 81.7702C55.3811 82.24 55.9972 82.4724 57.2203 82.9334C57.5768 83.0679 58.1218 83.0547 58.4385 82.9036C59.5243 82.386 60.0681 82.1246 61.1572 81.5951C61.475 81.4408 61.445 81.2115 61.0895 81.0838Z" fill="#182970"/>
<path d="M66.5143 83.028C65.329 82.6052 64.7328 82.3921 63.5296 81.9611C63.1787 81.8354 62.6356 81.8601 62.3184 82.0164C61.2307 82.5516 60.6873 82.8162 59.6022 83.3405C59.2856 83.4935 59.316 83.7249 59.6678 83.8574C60.875 84.312 61.4735 84.5374 62.664 84.9852C63.0116 85.116 63.5477 85.0917 63.8633 84.9312C64.9455 84.3813 65.4872 84.1044 66.5684 83.5462C66.8838 83.3834 66.8605 83.1516 66.5143 83.028Z" fill="#182970"/>
<path d="M65.0501 85.8804C66.2291 86.3234 66.8151 86.5434 67.9827 86.9813C68.3232 87.109 68.8533 87.0742 69.1679 86.9037C70.2448 86.3189 70.7833 86.0251 71.8551 85.4358C72.1679 85.264 72.1471 85.0275 71.8081 84.9076C70.6464 84.4963 70.0632 84.2895 68.8899 83.8723C68.5478 83.7507 68.0144 83.7856 67.6996 83.9503C66.6202 84.5148 66.0791 84.7952 64.998 85.3524C64.6825 85.5149 64.7063 85.7513 65.0501 85.8804Z" fill="#182970"/>
<path d="M70.3274 87.8607C71.4879 88.2953 72.0659 88.5116 73.2206 88.9431C73.5576 89.069 74.084 89.024 74.3967 88.8427C75.4681 88.2212 76.0031 87.9097 77.0653 87.2875C77.3751 87.1059 77.3544 86.8636 77.0189 86.7457C75.8703 86.3422 75.2951 86.1398 74.1407 85.7326C73.8037 85.6137 73.2778 85.6583 72.9658 85.8322C71.8958 86.4283 71.358 86.7258 70.2821 87.3182C69.9684 87.4911 69.9886 87.7339 70.3274 87.8607Z" fill="#182970"/>
<path d="M75.5443 89.8102C76.6965 90.24 77.2716 90.4542 78.4235 90.8826C78.7598 91.0077 79.2848 90.9531 79.5961 90.7607C80.6626 90.1014 81.1945 89.7715 82.2472 89.115C82.5546 88.9235 82.5309 88.6739 82.1964 88.5572C81.0497 88.1575 80.4771 87.9574 79.3306 87.556C78.9964 87.4391 78.4749 87.4927 78.1656 87.6763C77.1057 88.3059 76.5713 88.6212 75.5011 89.2506C75.1887 89.4343 75.2082 89.6849 75.5443 89.8102Z" fill="#182970"/>
<path d="M80.7463 91.7466C81.8999 92.1748 82.4777 92.3888 83.6365 92.8177C83.975 92.943 84.5015 92.8793 84.8117 92.6757C85.8747 91.978 86.404 91.6296 87.4492 90.9384C87.7542 90.7369 87.7264 90.4792 87.3891 90.3624C86.2337 89.9624 85.6582 89.7628 84.5091 89.3634C84.1738 89.2469 83.6546 89.3091 83.3479 89.5027C82.2969 90.1666 81.7658 90.5004 80.7 91.1678C80.3893 91.3625 80.4097 91.6218 80.7463 91.7466Z" fill="#182970"/>
<path d="M92.6453 92.1748C91.4701 91.7705 90.8868 91.5695 89.7237 91.1681C89.3844 91.051 88.8648 91.1208 88.5602 91.3246C87.5161 92.0232 86.9872 92.3755 85.9245 93.0813C85.6144 93.2873 85.6376 93.556 85.9778 93.6815C87.1434 94.1117 87.728 94.3272 88.9041 94.7598C89.2472 94.886 89.778 94.8142 90.088 94.5995C91.1502 93.8636 91.6788 93.4968 92.7188 92.771C93.0223 92.5594 92.988 92.2928 92.6453 92.1748Z" fill="#182970"/>
<path d="M98.0148 94.0177C96.8096 93.6054 96.2121 93.4008 95.0248 92.9934C94.6788 92.8747 94.1545 92.9511 93.8511 93.1648C92.8116 93.8979 92.2833 94.2686 91.2207 95.0125C90.9108 95.2296 90.9385 95.5086 91.2849 95.6356C92.4721 96.071 93.069 96.2897 94.2724 96.7297C94.6231 96.8579 95.1619 96.779 95.4726 96.5533C96.5377 95.7802 97.0671 95.3953 98.1059 94.6359C98.409 94.4144 98.3664 94.1379 98.0148 94.0177Z" fill="#182970"/>
<path d="M103.545 95.9049C102.298 95.4805 101.682 95.2704 100.46 94.8532C100.103 94.7315 99.5713 94.8133 99.2682 95.0369C98.229 95.8033 97.6994 96.1919 96.633 96.9728C96.3216 97.2006 96.3558 97.4906 96.7112 97.6202C97.9299 98.0645 98.5439 98.2879 99.7843 98.7385C100.146 98.87 100.696 98.785 101.009 98.5489C102.082 97.74 102.614 97.3379 103.656 96.5463C103.961 96.3154 103.908 96.0286 103.545 95.9049Z" fill="#182970"/>
<path d="M102.303 99.6515C103.563 100.108 104.199 100.338 105.486 100.802C105.862 100.938 106.426 100.848 106.743 100.602C107.83 99.76 108.368 99.3417 109.42 98.5203C109.727 98.2807 109.664 97.9833 109.285 97.8548C107.987 97.4144 107.346 97.1969 106.078 96.7659C105.708 96.6401 105.165 96.7261 104.86 96.9589C103.816 97.7569 103.283 98.1627 102.208 98.9789C101.894 99.217 101.935 99.5182 102.303 99.6515Z" fill="#182970"/>
<path d="M115.284 99.8869C113.923 99.4267 113.252 99.1996 111.928 98.7509C111.541 98.6199 110.982 98.7086 110.675 98.95C109.62 99.7774 109.08 100.199 107.99 101.048C107.672 101.296 107.721 101.609 108.104 101.746C109.415 102.218 110.079 102.457 111.423 102.939C111.815 103.079 112.399 102.987 112.722 102.732C113.829 101.859 114.377 101.426 115.444 100.577C115.756 100.33 115.681 100.021 115.284 99.8869Z" fill="#182970"/>
<path d="M44.5744 79.1221C43.2576 78.6185 42.5919 78.3641 41.2425 77.8486C40.8487 77.6982 40.2749 77.6787 39.9634 77.8048C38.8957 78.2371 38.365 78.4491 37.3062 78.8702C36.9973 78.993 37.0659 79.2186 37.457 79.3742C38.798 79.9073 39.4597 80.1711 40.77 80.6943C41.1524 80.847 41.7123 80.8667 42.0237 80.7383C43.0903 80.2982 43.625 80.0766 44.6998 79.6262C45.0133 79.4947 44.9585 79.269 44.5744 79.1221Z" fill="#182970"/>
<path d="M50.3985 81.3519C49.1333 80.8673 48.4947 80.6229 47.2024 80.1281C46.825 79.9837 46.263 79.9748 45.9491 80.1078C44.8728 80.5638 44.337 80.7882 43.2689 81.2337C42.9574 81.3638 43.0108 81.5912 43.3869 81.7418C44.6744 82.2578 45.3111 82.5134 46.5732 83.0211C46.9413 83.1691 47.4918 83.1786 47.8045 83.042C48.8769 82.5738 49.4148 82.338 50.4945 81.8604C50.8096 81.721 50.7675 81.4933 50.3985 81.3519Z" fill="#182970"/>
<path d="M56.0116 83.5012C54.7882 83.0323 54.1721 82.7962 52.9268 82.319C52.5635 82.1799 52.0118 82.1817 51.6965 82.3228C50.6161 82.8068 50.0779 83.046 49.0049 83.5205C48.6919 83.6591 48.7337 83.8898 49.0967 84.0362C50.3402 84.5377 50.9557 84.7865 52.1784 85.2812C52.5351 85.4256 53.0772 85.4245 53.3907 85.2786C54.4649 84.7783 55.004 84.5264 56.0851 84.0176C56.4007 83.8693 56.3683 83.6378 56.0116 83.5012Z" fill="#182970"/>
<path d="M61.4571 85.5887C60.266 85.1325 59.6672 84.9029 58.4595 84.4402C58.1073 84.3052 57.5647 84.3178 57.2492 84.4684C56.1683 84.9841 55.629 85.2397 54.5546 85.7471C54.2412 85.8952 54.2745 86.1311 54.6266 86.2739C55.8348 86.7639 56.4342 87.0072 57.6266 87.4918C57.9747 87.6332 58.509 87.6212 58.8222 87.465C59.8959 86.9295 60.435 86.66 61.5148 86.1169C61.8299 85.9583 61.8048 85.7219 61.4571 85.5887Z" fill="#182970"/>
<path d="M60.0178 88.464C61.1996 88.9449 61.787 89.1843 62.958 89.6614C63.2995 89.8005 63.8285 89.7779 64.1412 89.6107C65.2126 89.0373 65.7508 88.7488 66.8275 88.1689C67.1418 87.9997 67.1211 87.7568 66.7802 87.6264C65.6115 87.1794 65.0253 86.9549 63.8453 86.5032C63.5012 86.3715 62.9662 86.395 62.6513 86.5558C61.5721 87.1065 61.033 87.3799 59.9596 87.9232C59.6466 88.0818 59.6733 88.3239 60.0178 88.464Z" fill="#182970"/>
<path d="M65.3096 90.6201C66.4736 91.0947 67.0534 91.3312 68.2115 91.8035C68.5494 91.9413 69.0752 91.9083 69.387 91.7295C70.4558 91.1166 70.9929 90.8082 72.0663 90.1895C72.3795 90.009 72.3606 89.7584 72.0231 89.6298C70.8674 89.1888 70.2887 88.9678 69.1271 88.5239C68.7882 88.3943 68.2585 88.4286 67.9443 88.6002C66.8682 89.1882 66.3302 89.4808 65.2595 90.0624C64.947 90.2321 64.9698 90.4815 65.3096 90.6201Z" fill="#182970"/>
<path d="M70.5413 92.7529C71.6967 93.2239 72.2732 93.459 73.4276 93.9293C73.7645 94.0665 74.2894 94.0234 74.6006 93.8328C75.6672 93.1791 76.2033 92.8502 77.274 92.1917C77.5865 91.9996 77.5667 91.7401 77.2303 91.6122C76.0774 91.174 75.5017 90.9549 74.3485 90.5155C74.0122 90.3874 73.4856 90.4319 73.1725 90.6149C72.0996 91.2419 71.5629 91.5547 70.4946 92.1761C70.1829 92.3574 70.2044 92.6156 70.5413 92.7529Z" fill="#182970"/>
<path d="M75.7541 94.8778C76.9095 95.3478 77.4876 95.583 78.6468 96.0538C78.9853 96.1914 79.5114 96.1387 79.8223 95.9359C80.8885 95.2409 81.4244 94.8912 82.4938 94.1925C82.806 93.9887 82.7843 93.7195 82.4457 93.5914C81.2865 93.1529 80.7085 92.9339 79.5542 92.496C79.2172 92.3681 78.6915 92.4225 78.3789 92.617C77.3089 93.2841 76.7726 93.6173 75.7063 94.2797C75.3953 94.473 75.417 94.7406 75.7541 94.8778Z" fill="#182970"/>
<path d="M87.7139 95.5791C86.5382 95.1367 85.9537 94.9165 84.7882 94.4765C84.448 94.3482 83.9202 94.4117 83.608 94.618C82.5386 95.3255 82.0024 95.6795 80.936 96.3831C80.6249 96.5885 80.6484 96.8662 80.988 97.0038C82.1525 97.4758 82.7363 97.7122 83.9098 98.1864C84.2521 98.3247 84.7823 98.2634 85.0938 98.0485C86.1619 97.3124 86.6996 96.9422 87.7702 96.2032C88.0828 95.9877 88.0571 95.7082 87.7139 95.5791Z" fill="#182970"/>
<path d="M93.0773 97.5887C91.8755 97.1394 91.279 96.916 90.0927 96.4709C89.7469 96.3412 89.2136 96.4127 88.9009 96.6308C87.8296 97.3783 87.2917 97.7528 86.2225 98.4976C85.9106 98.715 85.9377 99.0034 86.2824 99.1423C87.465 99.619 88.0589 99.8579 89.2551 100.338C89.6039 100.478 90.1412 100.409 90.4546 100.182C91.5286 99.4059 92.0691 99.0155 93.145 98.2373C93.4592 98.0102 93.4276 97.7197 93.0773 97.5887Z" fill="#182970"/>
<path d="M98.5798 99.6406C97.3423 99.1812 96.7291 98.9531 95.5124 98.4996C95.1576 98.3674 94.6166 98.4463 94.3021 98.6757C93.2246 99.4622 92.683 99.8568 91.6073 100.641C91.2935 100.87 91.3247 101.17 91.6775 101.311C92.8868 101.795 93.4955 102.038 94.7235 102.527C95.0813 102.67 95.629 102.593 95.9456 102.356C97.0299 101.54 97.576 101.131 98.6618 100.315C98.9787 100.076 98.9408 99.7746 98.5798 99.6406Z" fill="#182970"/>
<path d="M110.181 103.915C107.764 103.031 106.584 102.598 104.267 101.744C103.896 101.607 103.712 101.539 103.344 101.403C102.437 101.068 101.987 100.902 101.093 100.571C100.726 100.436 100.173 100.521 99.8556 100.761C98.7669 101.585 98.2192 101.999 97.1318 102.822C96.8145 103.062 96.851 103.373 97.2144 103.517C98.1001 103.868 98.5453 104.044 99.4425 104.399C99.8068 104.543 99.9892 104.615 100.355 104.76C102.646 105.664 103.811 106.121 106.191 107.05C106.575 107.201 107.154 107.114 107.482 106.856C108.606 105.97 109.173 105.525 110.297 104.641C110.625 104.383 110.571 104.058 110.181 103.915Z" fill="#182970"/>
<path d="M39.5845 81.1793C38.2762 80.6496 37.6156 80.3829 36.2775 79.8442C35.8869 79.6869 35.3197 79.6577 35.0122 79.779C33.9582 80.1948 33.4325 80.4015 32.3807 80.8166C32.074 80.9379 32.1413 81.1679 32.5298 81.3301C33.8605 81.8858 34.5186 82.1617 35.822 82.7104C36.2024 82.8706 36.7586 82.8976 37.0669 82.7713C38.1233 82.3387 38.6522 82.1227 39.7132 81.6882C40.0229 81.5615 39.9662 81.3338 39.5845 81.1793Z" fill="#182970"/>
<path d="M45.3812 83.5359C44.12 83.0209 43.4841 82.7618 42.1978 82.239C41.8222 82.0863 41.2653 82.0668 40.9553 82.1952C39.8929 82.6353 39.3634 82.8539 38.3062 83.2917C37.9977 83.4194 38.0524 83.6517 38.427 83.8103C39.71 84.3538 40.3451 84.6239 41.6047 85.1614C41.9719 85.3182 42.5186 85.3367 42.8276 85.2029C43.8858 84.7441 44.417 84.5145 45.4827 84.0521C45.7937 83.9173 45.7488 83.6861 45.3812 83.5359Z" fill="#182970"/>
<path d="M50.9843 85.8325C49.7619 85.3295 49.1463 85.0766 47.9031 84.5673C47.5404 84.4187 46.993 84.409 46.6817 84.5459C45.6154 85.0147 45.0843 85.2476 44.026 85.7122C43.7171 85.8479 43.7624 86.084 44.1251 86.2396C45.3678 86.7728 45.9836 87.038 47.2076 87.5665C47.5644 87.7205 48.1025 87.7301 48.4107 87.5875C49.4671 87.0988 49.9984 86.8534 51.0652 86.3593C51.3765 86.215 51.3408 85.979 50.9843 85.8325Z" fill="#182970"/>
<path d="M56.433 88.0818C55.2404 87.5883 54.6407 87.3405 53.4326 86.842C53.0801 86.6966 52.5406 86.6973 52.2292 86.8436C51.1628 87.3449 50.6317 87.5938 49.5759 88.0893C49.2677 88.2339 49.3061 88.4753 49.6589 88.6283C50.8693 89.1533 51.4701 89.4147 52.6658 89.936C53.0148 90.0881 53.5443 90.0881 53.8514 89.9358C54.9037 89.4139 55.4337 89.1512 56.499 88.6222C56.8097 88.4677 56.7813 88.2258 56.433 88.0818Z" fill="#182970"/>
<path d="M55.0642 90.9829C56.25 91.5016 56.8397 91.7602 58.0149 92.2763C58.3577 92.4269 58.8815 92.4175 59.1866 92.2547C60.2329 91.6971 60.761 91.4157 61.8232 90.8492C62.133 90.684 62.1088 90.4348 61.7668 90.2928C60.5954 89.8061 60.0074 89.5621 58.8251 89.072C58.4805 88.929 57.9478 88.9402 57.6374 89.0969C56.5725 89.6337 56.0429 89.9002 54.9918 90.4296C54.6851 90.5841 54.7185 90.8316 55.0642 90.9829Z" fill="#182970"/>
<path d="M60.3762 93.3157C61.545 93.8303 62.1272 94.0869 63.2898 94.5998C63.6291 94.7495 64.1483 94.7307 64.4516 94.557C65.4913 93.9618 66.0175 93.661 67.076 93.0552C67.3849 92.8784 67.3622 92.6208 67.0241 92.48C65.8653 91.9978 65.285 91.7565 64.1202 91.272C63.7804 91.1307 63.253 91.1524 62.9433 91.3201C61.8818 91.8948 61.3541 92.1802 60.3091 92.7456C60.0044 92.9107 60.0352 93.1656 60.3762 93.3157Z" fill="#182970"/>
<path d="M65.6287 95.6319C66.7883 96.1442 67.3671 96.4 68.525 96.9119C68.863 97.0612 69.3798 97.0333 69.6814 96.8483C70.7151 96.2144 71.2394 95.8933 72.2947 95.2472C72.6027 95.0585 72.58 94.7916 72.2429 94.6514C71.088 94.171 70.5112 93.9309 69.3553 93.4498C69.0182 93.3095 68.4934 93.3413 68.1849 93.5206C67.127 94.1349 66.6016 94.44 65.5631 95.0433C65.2603 95.2194 65.2907 95.4825 65.6287 95.6319Z" fill="#182970"/>
<path d="M70.8585 97.9431C72.0168 98.4551 72.5961 98.7112 73.7568 99.2238C74.0959 99.3735 74.6123 99.3366 74.9127 99.1402C75.9419 98.467 76.4651 98.1258 77.5191 97.4385C77.8265 97.2379 77.8026 96.961 77.4638 96.8206C76.3048 96.3396 75.7266 96.0994 74.5708 95.6191C74.2337 95.4789 73.7099 95.5207 73.4019 95.7119C72.3471 96.3668 71.823 96.692 70.7906 97.3342C70.4892 97.5217 70.5206 97.7938 70.8585 97.9431Z" fill="#182970"/>
<path d="M82.7247 98.9964C81.552 98.5121 80.9685 98.2707 79.8042 97.7884C79.4645 97.6477 78.9393 97.6991 78.632 97.9021C77.5781 98.598 77.0549 98.9436 76.0262 99.6251C75.7261 99.8239 75.7596 100.106 76.0995 100.255C77.2645 100.769 77.848 101.026 79.0197 101.542C79.3617 101.692 79.8802 101.647 80.18 101.44C81.2077 100.727 81.7312 100.366 82.7861 99.6377C83.094 99.4252 83.067 99.1378 82.7247 98.9964Z" fill="#182970"/>
<path d="M88.0643 101.197C86.8699 100.707 86.2765 100.463 85.095 99.9764C84.7506 99.8345 84.2212 99.8944 83.913 100.109C82.8571 100.846 82.3333 101.212 81.3058 101.932C81.0059 102.142 81.0434 102.434 81.387 102.585C82.5662 103.102 83.158 103.362 84.3484 103.882C84.6956 104.034 85.2194 103.981 85.5198 103.762C86.5493 103.012 87.0749 102.631 88.1349 101.863C88.4441 101.639 88.4127 101.34 88.0643 101.197Z" fill="#182970"/>
<path d="M93.5227 103.427C92.2977 102.928 91.6902 102.68 90.4832 102.187C90.1312 102.043 89.5944 102.111 89.2844 102.337C88.2232 103.113 87.6968 103.499 86.6661 104.257C86.3653 104.479 86.4071 104.78 86.7574 104.933C87.9586 105.456 88.5629 105.719 89.7796 106.246C90.1343 106.4 90.6659 106.341 90.9683 106.111C92.0048 105.324 92.5348 104.923 93.6044 104.117C93.9164 103.882 93.8798 103.572 93.5227 103.427Z" fill="#182970"/>
<path d="M99.1377 105.701C97.8737 105.191 97.2483 104.939 96.0067 104.436C95.6446 104.289 95.0975 104.364 94.7847 104.601C93.7124 105.415 93.1809 105.82 92.1424 106.614C91.8393 106.846 91.8863 107.158 92.2455 107.313C93.4764 107.844 94.0962 108.111 95.347 108.647C95.712 108.804 96.2544 108.738 96.5606 108.498C97.6097 107.677 98.1472 107.259 99.2321 106.416C99.5487 106.17 99.5065 105.849 99.1377 105.701Z" fill="#182970"/>
<path d="M104.948 108.031C103.636 107.508 102.988 107.249 101.704 106.734C101.329 106.584 100.768 106.664 100.45 106.912C99.3608 107.762 98.8211 108.184 97.7688 109.012C97.4616 109.254 97.514 109.576 97.8845 109.734C99.1527 110.275 99.7929 110.547 101.085 111.094C101.463 111.254 102.02 111.183 102.332 110.934C103.4 110.082 103.949 109.647 105.056 108.771C105.379 108.515 105.33 108.183 104.948 108.031Z" fill="#182970"/>
<path d="M34.6457 83.1913C33.3431 82.6371 32.6856 82.3587 31.356 81.7981C30.968 81.6345 30.4037 81.6006 30.0965 81.7229C29.0439 82.1423 28.5173 82.3534 27.4606 82.783C27.1523 82.9083 27.2175 83.1463 27.6054 83.3135C28.9347 83.8866 29.5926 84.1719 30.8973 84.7407C31.2781 84.9067 31.8342 84.9361 32.1415 84.8072C33.1948 84.3659 33.7215 84.1479 34.7755 83.7132C35.083 83.5863 35.0259 83.353 34.6457 83.1913Z" fill="#182970"/>
<path d="M40.4279 85.6688C39.1679 85.1247 38.5326 84.8515 37.25 84.302C36.8755 84.1415 36.3216 84.1152 36.0139 84.2433C34.9601 84.6827 34.4338 84.9029 33.3821 85.3479C33.0749 85.4778 33.1313 85.7172 33.5072 85.8825C34.7934 86.4481 35.4309 86.7299 36.6963 87.292C37.0653 87.4559 37.6102 87.4796 37.9151 87.3453C38.9599 86.885 39.4841 86.656 40.5361 86.1979C40.8431 86.0642 40.7954 85.8274 40.4279 85.6688Z" fill="#182970"/>
<path d="M46.0344 88.105C44.8095 87.5692 44.1928 87.3003 42.9495 86.7602C42.5866 86.6025 42.0422 86.5843 41.7357 86.7195C40.6847 87.1831 40.1613 87.4146 39.1188 87.8795C38.8145 88.0151 38.865 88.2577 39.2301 88.4209C40.4803 88.9805 41.1003 89.2593 42.3333 89.816C42.6927 89.9783 43.2272 89.9959 43.5286 89.8549C44.561 89.3716 45.0811 89.1299 46.1272 88.6444C46.4326 88.503 46.3914 88.2612 46.0344 88.105Z" fill="#182970"/>
<path d="M51.4988 90.5103C50.3015 89.9809 49.6998 89.7155 48.488 89.1827C48.1347 89.0274 47.5992 89.0176 47.2945 89.1611C46.2499 89.6527 45.7311 89.8975 44.7014 90.386C44.4011 90.5287 44.448 90.7753 44.804 90.9371C46.0246 91.4919 46.6307 91.7685 47.838 92.3211C48.1904 92.4825 48.7144 92.4928 49.0113 92.3442C50.0291 91.8349 50.5435 91.5787 51.5815 91.0628C51.884 90.9122 51.8484 90.6649 51.4988 90.5103Z" fill="#182970"/>
<path d="M77.891 102.323C76.7189 101.798 76.135 101.536 74.9689 101.013C74.956 101.007 74.9393 101.006 74.9254 101.001C74.9133 100.994 74.9079 100.986 74.895 100.98C73.985 100.571 73.531 100.368 72.6238 99.9599C71.4618 99.4379 70.8817 99.1771 69.7218 98.6558C68.787 98.2356 68.3199 98.0257 67.3851 97.6056C66.2255 97.0843 65.6456 96.8239 64.484 96.3023C63.5479 95.8821 63.0796 95.6719 62.141 95.2513C60.9762 94.7291 60.3928 94.468 59.222 93.9445C57.1075 92.9992 56.0459 92.5257 53.9014 91.5738C53.5551 91.4201 53.0275 91.4194 52.7253 91.5719C51.6898 92.0947 51.1765 92.3542 50.162 92.8694C49.8662 93.0196 49.9113 93.2715 50.2608 93.4322C52.4237 94.4277 53.4952 94.9238 55.6292 95.9152C56.8107 96.4642 57.3992 96.7384 58.575 97.2867C59.5224 97.7287 59.9948 97.9494 60.9396 98.3912C62.1117 98.9393 62.6964 99.2131 63.8662 99.7613C64.8091 100.203 65.2801 100.424 66.2226 100.866C67.3916 101.414 67.9761 101.689 69.1469 102.238C70.0607 102.667 70.5177 102.881 71.4336 103.311C71.4466 103.317 71.4631 103.319 71.4767 103.324C71.4892 103.331 71.4947 103.339 71.5079 103.346C72.6812 103.896 73.2684 104.171 74.4469 104.723C74.7906 104.884 75.2886 104.859 75.5633 104.666C76.5042 104.001 76.9906 103.661 77.9835 102.968C78.2735 102.766 78.233 102.476 77.891 102.323Z" fill="#182970"/>
<path d="M83.2206 104.703C82.0307 104.173 81.4388 103.909 80.2594 103.382C79.9157 103.229 79.3999 103.271 79.1104 103.476C78.1181 104.176 77.6323 104.521 76.6937 105.191C76.4198 105.387 76.4808 105.675 76.8262 105.836C78.01 106.389 78.6037 106.666 79.7967 107.222C80.1445 107.384 80.6439 107.353 80.916 107.15C81.8485 106.455 82.3325 106.097 83.3236 105.369C83.6125 105.157 83.5674 104.857 83.2206 104.703Z" fill="#182970"/>
<path d="M88.6467 107.107C87.4316 106.571 86.8282 106.304 85.6281 105.772C85.278 105.617 84.7575 105.667 84.4683 105.881C83.477 106.617 82.9931 106.978 82.062 107.68C81.7901 107.885 81.8576 108.18 82.2077 108.343C83.409 108.9 84.0123 109.18 85.226 109.74C85.5799 109.904 86.0832 109.867 86.3544 109.656C87.2832 108.931 87.7674 108.558 88.7614 107.795C89.0511 107.573 89.0008 107.264 88.6467 107.107Z" fill="#182970"/>
<path d="M94.2022 109.545C92.9542 109.001 92.3361 108.73 91.1073 108.191C90.7488 108.033 90.2209 108.09 89.9305 108.314C88.9355 109.084 88.4507 109.461 87.522 110.191C87.251 110.405 87.3246 110.708 87.6821 110.872C88.9073 111.435 89.5234 111.718 90.7649 112.285C91.1269 112.45 91.637 112.409 91.9088 112.19C92.8396 111.438 93.3269 111.049 94.3293 110.255C94.6218 110.023 94.566 109.704 94.2022 109.545Z" fill="#182970"/>
<path d="M99.9231 112.026C98.6354 111.472 97.9979 111.196 96.7333 110.648C96.3641 110.488 95.8251 110.55 95.5318 110.783C94.5268 111.584 94.0384 111.975 93.106 112.733C92.8342 112.954 92.9142 113.265 93.2809 113.431C94.5368 114.001 95.1693 114.287 96.4448 114.862C96.817 115.029 97.3374 114.985 97.6116 114.758C98.5516 113.982 99.0454 113.579 100.063 112.757C100.36 112.516 100.299 112.188 99.9231 112.026Z" fill="#182970"/>
<path d="M47.4503 74.7409C48.8078 75.2335 49.4763 75.4756 50.7972 75.9528C51.1826 76.0921 51.7543 76.0866 52.0772 75.9399C53.1851 75.4372 53.7422 75.1799 54.8654 74.6494C55.1933 74.4947 55.151 74.2577 54.7673 74.1211C53.4526 73.6529 52.7865 73.4147 51.4331 72.9291C51.0382 72.7874 50.4475 72.7978 50.1174 72.9509C48.9857 73.4759 48.4263 73.7291 47.3166 74.2214C46.9929 74.3651 47.0544 74.5972 47.4503 74.7409Z" fill="url(#paint4_linear_3223_7845)"/>
<path d="M60.5617 76.1705C59.3075 75.7301 58.6734 75.5067 57.387 75.0514C57.0113 74.9186 56.44 74.9376 56.1129 75.0928C54.9923 75.6252 54.436 75.8839 53.3293 76.3899C53.0064 76.5375 53.053 76.7667 53.4309 76.9026C54.7249 77.3685 55.3632 77.5977 56.6271 78.0504C56.9956 78.1824 57.553 78.1669 57.8741 78.0153C58.9752 77.4953 59.5275 77.2307 60.6363 76.6893C60.96 76.5317 60.9272 76.2989 60.5617 76.1705Z" fill="url(#paint5_linear_3223_7845)"/>
<path d="M66.1095 78.1041C64.9038 77.6869 64.2956 77.4757 63.0646 77.0463C62.7055 76.9211 62.1512 76.9486 61.8288 77.1074C60.7234 77.6515 60.1725 77.9179 59.0734 78.4421C58.7529 78.595 58.7884 78.8234 59.1506 78.9527C60.3924 79.3958 61.0065 79.6143 62.224 80.0465C62.579 80.1726 63.1241 80.1473 63.4422 79.9894C64.5328 79.4483 65.0784 79.1744 66.1691 78.6184C66.4874 78.4562 66.4608 78.2257 66.1095 78.1041Z" fill="url(#paint6_linear_3223_7845)"/>
<path d="M71.4646 79.9434C70.2956 79.5449 69.7076 79.3437 68.5199 78.9354C68.1736 78.8165 67.6347 78.8523 67.3176 79.0156C66.2313 79.5752 65.6873 79.8513 64.5994 80.3973C64.282 80.5566 64.3096 80.7859 64.66 80.9097C65.8604 81.3343 66.4553 81.5441 67.6382 81.9601C67.9834 82.0815 68.5173 82.0461 68.8315 81.8812C69.909 81.3157 70.4465 81.031 71.5165 80.457C71.8286 80.2896 71.806 80.0597 71.4646 79.9434Z" fill="url(#paint7_linear_3223_7845)"/>
<path d="M70.0071 82.7912C71.1779 83.2013 71.7594 83.4045 72.9181 83.8082C73.2563 83.9261 73.7815 83.8812 74.0916 83.7086C75.1547 83.1164 75.6835 82.8195 76.7309 82.2248C77.0366 82.0514 77.0135 81.8203 76.6798 81.7081C75.5359 81.3236 74.9616 81.1299 73.8054 80.7383C73.4682 80.624 72.9429 80.6682 72.6322 80.8369C71.5669 81.4151 71.0312 81.7024 69.9567 82.2732C69.6431 82.4396 69.6659 82.6715 70.0071 82.7912Z" fill="url(#paint8_linear_3223_7845)"/>
<path d="M75.2451 84.6191C76.3966 85.0188 76.97 85.2174 78.1158 85.6131C78.4503 85.7286 78.9699 85.6749 79.2756 85.4939C80.3234 84.8729 80.8431 84.563 81.8677 83.9461C82.1668 83.7661 82.1402 83.5321 81.8103 83.4225C80.6795 83.0474 80.1135 82.859 78.9768 82.4792C78.6451 82.3685 78.1305 82.42 77.8264 82.5948C76.7837 83.194 76.257 83.4936 75.197 84.0919C74.8881 84.2663 74.9091 84.5024 75.2451 84.6191Z" fill="url(#paint9_linear_3223_7845)"/>
<path d="M80.4215 86.4072C81.5652 86.8008 82.136 86.9967 83.2801 87.3885C83.6139 87.5029 84.1307 87.4412 84.4321 87.2513C85.4656 86.6004 85.9763 86.2768 86.9785 85.6364C87.2709 85.4495 87.2385 85.2112 86.9088 85.1031C85.7788 84.7326 85.215 84.5473 84.086 84.1748C83.757 84.0661 83.2502 84.1244 82.9528 84.3059C81.9329 84.9277 81.4152 85.2406 80.3705 85.8678C80.0658 86.0507 80.088 86.2926 80.4215 86.4072Z" fill="url(#paint10_linear_3223_7845)"/>
<path d="M85.5872 88.1777C86.7338 88.569 87.3081 88.7645 88.461 89.1565C88.7976 89.2708 89.3141 89.2017 89.6116 89.003C90.6322 88.3218 91.1349 87.9843 92.1166 87.3199C92.4027 87.126 92.3622 86.8824 92.029 86.7742C90.8886 86.4038 90.3211 86.219 89.1879 85.8492C88.8573 85.7413 88.3558 85.8056 88.0648 85.994C87.0669 86.6394 86.558 86.9661 85.5273 87.6233C85.227 87.8149 85.2527 88.0635 85.5872 88.1777Z" fill="url(#paint11_linear_3223_7845)"/>
<path d="M97.2255 88.4554C96.0621 88.0803 95.4851 87.894 94.3356 87.522C94.0002 87.4134 93.5008 87.4828 93.2155 87.6781C92.2382 88.3477 91.7368 88.6881 90.7187 89.3758C90.422 89.5764 90.4531 89.8328 90.7917 89.9474C91.9526 90.3408 92.5352 90.5378 93.7088 90.9341C94.0511 91.0497 94.5705 90.9742 94.8654 90.7668C95.8755 90.0553 96.3716 89.704 97.3349 89.0158C97.6162 88.815 97.5651 88.5649 97.2255 88.4554Z" fill="url(#paint12_linear_3223_7845)"/>
<path d="M102.551 90.168C101.353 89.7837 100.76 89.5932 99.5827 89.2145C99.2394 89.1041 98.738 89.1771 98.4578 89.3794C97.4978 90.0727 97.0029 90.4268 95.9944 91.1445C95.7003 91.3539 95.7391 91.6191 96.0849 91.7355C97.2711 92.135 97.8683 92.3358 99.073 92.7404C99.4244 92.8584 99.9506 92.7778 100.243 92.5619C101.247 91.8211 101.738 91.4565 102.687 90.7452C102.964 90.5377 102.9 90.2801 102.551 90.168Z" fill="url(#paint13_linear_3223_7845)"/>
<path d="M108.06 91.9334C106.815 91.5352 106.201 91.3384 104.983 90.9484C104.628 90.8347 104.122 90.9101 103.846 91.1191C102.899 91.8351 102.409 92.2025 101.406 92.9493C101.113 93.1671 101.161 93.4418 101.518 93.5611C102.74 93.9709 103.357 94.1773 104.604 94.5945C104.968 94.7161 105.504 94.6318 105.797 94.4076C106.799 93.6392 107.287 93.2618 108.227 92.5291C108.501 92.3152 108.423 92.0495 108.06 91.9334Z" fill="url(#paint14_linear_3223_7845)"/>
<path d="M107.139 95.4411C108.409 95.8651 109.051 96.0793 110.351 96.5131C110.731 96.6397 111.282 96.5529 111.575 96.3214C112.581 95.5273 113.07 95.1385 114.006 94.3866C114.279 94.1673 114.186 93.8929 113.805 93.7714C112.503 93.3545 111.861 93.1492 110.592 92.7432C110.221 92.6247 109.705 92.7012 109.432 92.9162C108.494 93.6532 108.005 94.0331 107.003 94.8072C106.71 95.0328 106.769 95.3174 107.139 95.4411Z" fill="url(#paint15_linear_3223_7845)"/>
<path d="M119.841 95.7043C118.468 95.2643 117.792 95.0479 116.46 94.6215C116.071 94.4968 115.541 94.5726 115.268 94.793C114.332 95.5487 113.843 95.9398 112.835 96.7389C112.541 96.972 112.611 97.267 112.999 97.3962C114.327 97.8387 115 98.0626 116.365 98.5169C116.763 98.6496 117.333 98.5623 117.629 98.3241C118.646 97.5074 119.139 97.1086 120.078 96.3403C120.352 96.1162 120.242 95.8327 119.841 95.7043Z" fill="url(#paint16_linear_3223_7845)"/>
<path d="M55.4027 78.6178C54.6365 78.3406 54.2506 78.2007 53.4741 77.919C52.9683 77.7356 52.7142 77.6432 52.2037 77.4579C49.8655 76.6083 48.6726 76.1735 46.2221 75.2776C45.8261 75.1329 45.244 75.1271 44.9251 75.2638C43.8316 75.7324 43.2895 75.9601 42.2114 76.4067C41.8968 76.5369 41.964 76.7628 42.3583 76.9118C44.7997 77.8333 45.9901 78.2828 48.3263 79.1647C48.8364 79.3572 49.0903 79.453 49.5959 79.6439C50.3722 79.937 50.7582 80.0826 51.5246 80.3719C51.8937 80.5112 52.4482 80.5089 52.7654 80.3663C53.8517 79.8778 54.3968 79.6303 55.491 79.1263C55.8102 78.9793 55.7718 78.7514 55.4027 78.6178Z" fill="url(#paint17_linear_3223_7845)"/>
<path d="M61.007 80.6404C59.787 80.202 59.1723 79.9805 57.9285 79.5318C57.5657 79.4009 57.0112 79.4155 56.6924 79.564C55.599 80.073 55.0541 80.3233 53.9675 80.8178C53.6503 80.962 53.6896 81.1898 54.0533 81.3269C55.2987 81.7966 55.9148 82.029 57.1379 82.49C57.4944 82.6245 58.0394 82.6113 58.3561 82.4602C59.4419 81.9426 59.9857 81.6812 61.0748 81.1518C61.3926 80.9974 61.3625 80.7682 61.007 80.6404Z" fill="url(#paint18_linear_3223_7845)"/>
<path d="M66.4324 82.5837C65.2471 82.1609 64.6509 81.9478 63.4477 81.5167C63.0968 81.391 62.5537 81.4158 62.2365 81.5721C61.1488 82.1073 60.6054 82.3718 59.5203 82.8961C59.2037 83.0492 59.2341 83.2805 59.5859 83.4131C60.7931 83.8677 61.3916 84.093 62.582 84.5408C62.9296 84.6716 63.4657 84.6473 63.7813 84.4869C64.8635 83.937 65.4052 83.66 66.4864 83.1019C66.8019 82.939 66.7786 82.7071 66.4324 82.5837Z" fill="url(#paint19_linear_3223_7845)"/>
<path d="M64.9677 85.4371C66.1467 85.88 66.7326 86.1 67.9002 86.5379C68.2408 86.6656 68.7709 86.6309 69.0854 86.4603C70.1623 85.8755 70.7008 85.5818 71.7727 84.9925C72.0854 84.8206 72.0647 84.5842 71.7257 84.4642C70.5639 84.0529 69.9808 83.8461 68.8074 83.429C68.4654 83.3074 67.9319 83.3422 67.6171 83.5069C66.5377 84.0715 65.9967 84.3519 64.9156 84.909C64.6001 85.0716 64.6239 85.3079 64.9677 85.4371Z" fill="url(#paint20_linear_3223_7845)"/>
<path d="M70.245 87.4183C71.4055 87.853 71.9835 88.0692 73.1382 88.5007C73.4752 88.6266 74.0016 88.5816 74.3143 88.4003C75.3857 87.7788 75.9207 87.4673 76.9829 86.8451C77.2927 86.6635 77.272 86.4212 76.9365 86.3033C75.7879 85.8998 75.2127 85.6974 74.0583 85.2902C73.7213 85.1713 73.1954 85.2159 72.8834 85.3898C71.8134 85.986 71.2756 86.2834 70.1997 86.8758C69.886 87.0486 69.9062 87.2914 70.245 87.4183Z" fill="url(#paint21_linear_3223_7845)"/>
<path d="M75.4623 89.3669C76.6146 89.7966 77.1897 90.0108 78.3416 90.4393C78.6779 90.5643 79.2029 90.5097 79.5142 90.3174C80.5807 89.658 81.1125 89.3281 82.1653 88.6716C82.4727 88.4801 82.449 88.2305 82.1145 88.1139C80.9677 87.7141 80.3952 87.514 79.2487 87.1127C78.9145 86.9957 78.393 87.0494 78.0837 87.233C77.0238 87.8626 76.4894 88.1779 75.4191 88.8073C75.1068 88.991 75.1263 89.2415 75.4623 89.3669Z" fill="url(#paint22_linear_3223_7845)"/>
<path d="M80.6639 91.3024C81.8175 91.7305 82.3953 91.9446 83.5541 92.3735C83.8926 92.4987 84.4191 92.435 84.7293 92.2314C85.7923 91.5337 86.3216 91.1853 87.3668 90.4941C87.6718 90.2926 87.644 90.0349 87.3067 89.9181C86.1513 89.5181 85.5758 89.3185 84.4267 88.9191C84.0914 88.8026 83.5722 88.8648 83.2655 89.0584C82.2144 89.7223 81.6834 90.0561 80.6176 90.7235C80.3069 90.9182 80.3273 91.1774 80.6639 91.3024Z" fill="url(#paint23_linear_3223_7845)"/>
<path d="M92.5634 91.7314C91.3882 91.3272 90.8048 91.1261 89.6418 90.7247C89.3025 90.6076 88.7829 90.6774 88.4783 90.8813C87.4342 91.5798 86.9053 91.9322 85.8426 92.638C85.5325 92.8439 85.5557 93.1127 85.8959 93.2382C87.0615 93.6684 87.6461 93.8838 88.8222 94.3164C89.1653 94.4427 89.6961 94.3708 90.0061 94.1561C91.0683 93.4202 91.5968 93.0534 92.6369 92.3276C92.9404 92.1159 92.9061 91.8493 92.5634 91.7314Z" fill="url(#paint24_linear_3223_7845)"/>
<path d="M97.9324 93.5724C96.7272 93.1601 96.1297 92.9554 94.9423 92.5481C94.5964 92.4294 94.0721 92.5058 93.7687 92.7195C92.7292 93.4526 92.2009 93.8233 91.1383 94.5671C90.8284 94.7842 90.8561 95.0632 91.2025 95.1902C92.3897 95.6257 92.9866 95.8444 94.19 96.2843C94.5407 96.4125 95.0795 96.3336 95.3902 96.108C96.4553 95.3348 96.9847 94.95 98.0235 94.1905C98.3266 93.9691 98.284 93.6926 97.9324 93.5724Z" fill="url(#paint25_linear_3223_7845)"/>
<path d="M103.463 95.4596C102.216 95.0352 101.6 94.8251 100.377 94.4079C100.021 94.2862 99.4889 94.368 99.1858 94.5916C98.1466 95.358 97.6169 95.7466 96.5506 96.5275C96.2392 96.7553 96.2734 97.0453 96.6288 97.1749C97.8475 97.6192 98.4615 97.8426 99.7019 98.2932C100.064 98.4246 100.613 98.3397 100.926 98.1036C101.999 97.2947 102.532 96.8926 103.574 96.101C103.878 95.8701 103.826 95.5834 103.463 95.4596Z" fill="url(#paint26_linear_3223_7845)"/>
<path d="M102.221 99.2081C103.481 99.6645 104.117 99.8944 105.404 100.359C105.78 100.495 106.344 100.405 106.661 100.159C107.748 99.3166 108.286 98.8983 109.338 98.0769C109.645 97.8373 109.582 97.5399 109.203 97.4114C107.905 96.971 107.264 96.7535 105.996 96.3225C105.626 96.1968 105.083 96.2827 104.778 96.5155C103.734 97.3135 103.201 97.7193 102.126 98.5355C101.812 98.7737 101.853 99.0749 102.221 99.2081Z" fill="url(#paint27_linear_3223_7845)"/>
<path d="M115.203 99.4416C113.842 98.9814 113.171 98.7543 111.846 98.3056C111.459 98.1746 110.901 98.2633 110.593 98.5046C109.539 99.332 108.999 99.7536 107.909 100.603C107.59 100.851 107.64 101.163 108.023 101.301C109.334 101.773 109.997 102.011 111.342 102.493C111.734 102.634 112.317 102.541 112.64 102.287C113.747 101.413 114.295 100.98 115.363 100.132C115.674 99.8843 115.6 99.5759 115.203 99.4416Z" fill="url(#paint28_linear_3223_7845)"/>
<path d="M44.4925 78.6788C43.1757 78.1751 42.51 77.9207 41.1606 77.4052C40.7668 77.2548 40.193 77.2354 39.8815 77.3615C38.8138 77.7937 38.2831 78.0058 37.2243 78.4268C36.9154 78.5496 36.984 78.7753 37.3751 78.9308C38.7161 79.4639 39.3777 79.7277 40.6881 80.2509C41.0705 80.4035 41.6304 80.4232 41.9418 80.2948C43.0084 79.8548 43.5431 79.6332 44.6179 79.1827C44.9313 79.0514 44.8766 78.8257 44.4925 78.6788Z" fill="url(#paint29_linear_3223_7845)"/>
<path d="M50.3166 80.9066C49.0514 80.422 48.4129 80.1775 47.1205 79.6828C46.743 79.5384 46.1811 79.5295 45.8672 79.6625C44.7909 80.1185 44.2551 80.3429 43.1869 80.7884C42.8755 80.9185 42.9289 81.1459 43.305 81.2965C44.5925 81.8125 45.2292 82.0681 46.4913 82.5758C46.8594 82.7238 47.4099 82.7333 47.7226 82.5965C48.795 82.1284 49.3329 81.8926 50.4126 81.4149C50.7277 81.2756 50.6856 81.0479 50.3166 80.9066Z" fill="url(#paint30_linear_3223_7845)"/>
<path d="M55.9297 83.0578C54.7063 82.589 54.0901 82.3529 52.8449 81.8757C52.4816 81.7366 51.9299 81.7383 51.6146 81.8795C50.5342 82.3634 49.9959 82.6026 48.923 83.0771C48.61 83.2157 48.6518 83.4464 49.0148 83.5928C50.2583 84.0945 50.8738 84.3432 52.0965 84.8379C52.4532 84.9822 52.9953 84.9811 53.3088 84.8352C54.383 84.3349 54.9221 84.0831 56.0032 83.5743C56.3187 83.4259 56.2864 83.1945 55.9297 83.0578Z" fill="url(#paint31_linear_3223_7845)"/>
<path d="M61.3752 85.1453C60.1841 84.6891 59.5853 84.4596 58.3776 83.9968C58.0254 83.8619 57.4828 83.8745 57.1673 84.025C56.0864 84.5408 55.547 84.7963 54.4727 85.3038C54.1593 85.4519 54.1926 85.6877 54.5447 85.8306C55.7529 86.3205 56.3523 86.5639 57.5446 87.0484C57.8928 87.1898 58.4271 87.1779 58.7403 87.0216C59.8139 86.4862 60.3531 86.2166 61.4329 85.6735C61.7479 85.5149 61.723 85.2786 61.3752 85.1453Z" fill="url(#paint32_linear_3223_7845)"/>
<path d="M59.9358 88.0206C61.1176 88.5016 61.705 88.7409 62.876 89.218C63.2176 89.3571 63.7465 89.3345 64.0592 89.1673C65.1306 88.594 65.6688 88.3054 66.7456 87.7255C67.0598 87.5563 67.0391 87.3135 66.6982 87.183C65.5295 86.7361 64.9433 86.5116 63.7633 86.0599C63.4193 85.9281 62.8842 85.9517 62.5693 86.1124C61.4901 86.6631 60.951 86.9366 59.8776 87.4799C59.5647 87.6385 59.5914 87.8805 59.9358 88.0206Z" fill="url(#paint33_linear_3223_7845)"/>
<path d="M65.2278 90.1768C66.3919 90.6514 66.9717 90.8878 68.1297 91.3601C68.4676 91.4979 68.9935 91.4649 69.3052 91.2861C70.3741 90.6733 70.9112 90.3648 71.9845 89.7462C72.2977 89.5657 72.2788 89.3151 71.9414 89.1864C70.7857 88.7454 70.207 88.5245 69.0453 88.0805C68.7064 87.9509 68.1767 87.9852 67.8626 88.1568C66.7865 88.7449 66.2485 89.0374 65.1777 89.619C64.8652 89.7887 64.8881 90.0383 65.2278 90.1768Z" fill="url(#paint34_linear_3223_7845)"/>
<path d="M70.4593 92.3105C71.6148 92.7816 72.1913 93.0166 73.3457 93.4869C73.6826 93.6242 74.2075 93.581 74.5187 93.3904C75.5853 92.7367 76.1214 92.4078 77.192 91.7493C77.5046 91.5572 77.4848 91.2977 77.1484 91.1698C75.9955 90.7316 75.4198 90.5125 74.2666 90.0732C73.9303 89.9451 73.4037 89.9895 73.0906 90.1725C72.0177 90.7995 71.4809 91.1123 70.4127 91.7337C70.101 91.915 70.1225 92.1732 70.4593 92.3105Z" fill="url(#paint35_linear_3223_7845)"/>
<path d="M75.6722 94.4325C76.8276 94.9025 77.4058 95.1377 78.5649 95.6085C78.9034 95.7461 79.4295 95.6934 79.7404 95.4906C80.8066 94.7957 81.3426 94.446 82.4119 93.7472C82.7241 93.5433 82.7024 93.2741 82.3639 93.1461C81.2046 92.7075 80.6267 92.4886 79.4723 92.0507C79.1354 91.9228 78.6095 91.9771 78.297 92.1717C77.227 92.8388 76.6907 93.172 75.6244 93.8344C75.3133 94.0277 75.3351 94.2953 75.6722 94.4325Z" fill="url(#paint36_linear_3223_7845)"/>
<path d="M87.632 95.1347C86.4563 94.6924 85.8718 94.4721 84.7063 94.0322C84.3661 93.9038 83.8383 93.9673 83.5261 94.1737C82.4567 94.881 81.9205 95.2351 80.8541 95.9388C80.543 96.1442 80.5665 96.4218 80.9061 96.5595C82.0706 97.0315 82.6544 97.2679 83.8279 97.7421C84.1702 97.8804 84.7004 97.819 85.0119 97.6042C86.08 96.8681 86.6177 96.4978 87.6883 95.7589C88.001 95.5433 87.9753 95.2639 87.632 95.1347Z" fill="url(#paint37_linear_3223_7845)"/>
<path d="M92.9949 97.1453C91.7931 96.696 91.1966 96.4726 90.0103 96.0276C89.6645 95.8979 89.1312 95.9693 88.8185 96.1875C87.7471 96.935 87.2093 97.3094 86.1401 98.0543C85.8282 98.2716 85.8553 98.56 86.2 98.699C87.3826 99.1756 87.9765 99.4146 89.1727 99.8949C89.5214 100.035 90.0588 99.9656 90.3722 99.739C91.4462 98.9626 91.9867 98.5722 93.0626 97.794C93.3768 97.5669 93.3452 97.2763 92.9949 97.1453Z" fill="url(#paint38_linear_3223_7845)"/>
<path d="M98.4979 99.1963C97.2604 98.7368 96.6472 98.5088 95.4305 98.0553C95.0757 97.9231 94.5347 98.002 94.2202 98.2314C93.1427 99.0179 92.6011 99.4125 91.5254 100.197C91.2116 100.426 91.2428 100.726 91.5955 100.867C92.8049 101.351 93.4136 101.594 94.6416 102.083C94.9994 102.225 95.5471 102.149 95.8637 101.911C96.948 101.096 97.4941 100.686 98.5799 99.8702C98.8968 99.6321 98.859 99.3303 98.4979 99.1963Z" fill="url(#paint39_linear_3223_7845)"/>
<path d="M110.099 103.472C107.682 102.588 106.502 102.154 104.185 101.3C103.814 101.164 103.63 101.096 103.262 100.96C102.355 100.625 101.905 100.459 101.011 100.128C100.644 99.9924 100.091 100.077 99.7737 100.318C98.685 101.142 98.1373 101.555 97.0499 102.378C96.7326 102.619 96.7691 102.929 97.1325 103.074C98.0182 103.425 98.4634 103.601 99.3606 103.956C99.7249 104.1 99.9073 104.172 100.274 104.316C102.564 105.22 103.729 105.677 106.109 106.607C106.493 106.757 107.072 106.67 107.4 106.412C108.524 105.527 109.091 105.082 110.215 104.198C110.543 103.94 110.489 103.614 110.099 103.472Z" fill="url(#paint40_linear_3223_7845)"/>
<path d="M39.5027 80.7339C38.1944 80.2042 37.5338 79.9375 36.1957 79.3988C35.8051 79.2416 35.2379 79.2123 34.9304 79.3337C33.8764 79.7496 33.3507 79.9562 32.2989 80.3714C31.9922 80.4925 32.0595 80.7226 32.448 80.8848C33.7787 81.4405 34.4368 81.7165 35.7402 82.2651C36.1206 82.4253 36.6769 82.4523 36.9851 82.326C38.0415 81.8934 38.5704 81.6774 39.6314 81.2429C39.9412 81.1161 39.8845 80.8883 39.5027 80.7339Z" fill="url(#paint41_linear_3223_7845)"/>
<path d="M45.2993 83.0896C44.0381 82.5746 43.4022 82.3155 42.1159 81.7927C41.7403 81.64 41.1834 81.6205 40.8734 81.7489C39.811 82.189 39.2815 82.4076 38.2243 82.8454C37.9158 82.9731 37.9705 83.2054 38.3451 83.364C39.6281 83.9075 40.2632 84.1776 41.5228 84.7151C41.89 84.8719 42.4367 84.8904 42.7457 84.7566C43.8039 84.2978 44.3351 84.0682 45.4008 83.6058C45.7117 83.4709 45.6669 83.2398 45.2993 83.0896Z" fill="url(#paint42_linear_3223_7845)"/>
<path d="M50.9024 85.3891C49.68 84.8862 49.0644 84.6333 47.8212 84.1239C47.4585 83.9753 46.9111 83.9657 46.5998 84.1025C45.5335 84.5714 45.0024 84.8042 43.9441 85.2689C43.6352 85.4045 43.6805 85.6407 44.0432 85.7962C45.2859 86.3294 45.9017 86.5946 47.1257 87.1231C47.4824 87.2771 48.0206 87.2868 48.3288 87.1441C49.3852 86.6553 49.9165 86.4101 50.9833 85.9159C51.2947 85.7718 51.2589 85.5358 50.9024 85.3891Z" fill="url(#paint43_linear_3223_7845)"/>
<path d="M56.3511 87.6374C55.1585 87.1439 54.5588 86.8962 53.3507 86.3976C52.9982 86.2523 52.4587 86.2529 52.1473 86.3992C51.0809 86.9005 50.5498 87.1495 49.494 87.6449C49.1858 87.7896 49.2242 88.0309 49.577 88.184C50.7874 88.709 51.3882 88.9703 52.5838 89.4916C52.9328 89.6438 53.4624 89.6438 53.7695 89.4915C54.8218 88.9696 55.3517 88.7069 56.4171 88.1778C56.7278 88.0234 56.6994 87.7815 56.3511 87.6374Z" fill="url(#paint44_linear_3223_7845)"/>
<path d="M54.9823 90.5386C56.1681 91.0573 56.7578 91.3159 57.933 91.832C58.2758 91.9826 58.7996 91.973 59.1047 91.8103C60.151 91.2528 60.6791 90.9714 61.7413 90.4049C62.0512 90.2396 62.0268 89.9904 61.6849 89.8484C60.5135 89.3618 59.9255 89.1178 58.7432 88.6276C58.3986 88.4847 57.8659 88.4959 57.5555 88.6526C56.4906 89.1894 55.961 89.456 54.91 89.9853C54.6032 90.1397 54.6365 90.3872 54.9823 90.5386Z" fill="url(#paint45_linear_3223_7845)"/>
<path d="M60.2943 92.8704C61.4631 93.3849 62.0453 93.6416 63.2079 94.1545C63.5473 94.3042 64.0665 94.2854 64.3698 94.1117C65.4094 93.5165 65.9356 93.2157 66.9942 92.6099C67.303 92.4331 67.2803 92.1754 66.9422 92.0347C65.7834 91.5525 65.2031 91.3111 64.0383 90.8267C63.6985 90.6854 63.1711 90.7071 62.8614 90.8748C61.7999 91.4495 61.2722 91.7349 60.2273 92.3003C59.9225 92.4655 59.9533 92.7203 60.2943 92.8704Z" fill="url(#paint46_linear_3223_7845)"/>
<path d="M65.5468 95.1877C66.7064 95.6999 67.2852 95.9558 68.4431 96.4677C68.7811 96.617 69.2979 96.5891 69.5995 96.4041C70.6332 95.7701 71.1575 95.4491 72.2128 94.8029C72.5208 94.6143 72.4981 94.3473 72.161 94.2071C71.0061 93.7266 70.4292 93.4866 69.2734 93.0055C68.9363 92.8652 68.4115 92.897 68.103 93.0763C67.0451 93.6906 66.5197 93.9956 65.4812 94.599C65.1784 94.7751 65.2088 95.0384 65.5468 95.1877Z" fill="url(#paint47_linear_3223_7845)"/>
<path d="M70.7761 97.4969C71.9343 98.0088 72.5137 98.2649 73.6743 98.7775C74.0134 98.9273 74.5298 98.8903 74.8303 98.6939C75.8595 98.0207 76.3826 97.6795 77.4367 96.9922C77.7441 96.7916 77.7201 96.5147 77.3813 96.3743C76.2224 95.8933 75.6441 95.6531 74.4884 95.1728C74.1513 95.0326 73.6274 95.0744 73.3195 95.2656C72.2647 95.9206 71.7406 96.2457 70.7082 96.8879C70.4069 97.0754 70.4381 97.3475 70.7761 97.4969Z" fill="url(#paint48_linear_3223_7845)"/>
<path d="M82.6423 98.5541C81.4696 98.0697 80.8861 97.8284 79.7218 97.3461C79.3821 97.2053 78.8569 97.2566 78.5496 97.4597C77.4957 98.1557 76.9725 98.5012 75.9438 99.1827C75.6437 99.3816 75.6772 99.6632 76.0171 99.8131C77.1821 100.327 77.7656 100.584 78.9373 101.1C79.2793 101.25 79.7978 101.205 80.0976 100.997C81.1253 100.285 81.6488 99.9234 82.7037 99.1953C83.0116 98.9828 82.9846 98.6954 82.6423 98.5541Z" fill="url(#paint49_linear_3223_7845)"/>
<path d="M87.9825 100.754C86.7881 100.264 86.1947 100.02 85.0132 99.533C84.6688 99.3912 84.1394 99.4511 83.8313 99.6659C82.7754 100.403 82.2515 100.768 81.224 101.489C80.9241 101.699 80.9616 101.991 81.3052 102.141C82.4844 102.659 83.0762 102.918 84.2667 103.439C84.6138 103.591 85.1376 103.538 85.438 103.319C86.4675 102.569 86.9931 102.187 88.0531 101.419C88.3624 101.195 88.331 100.897 87.9825 100.754Z" fill="url(#paint50_linear_3223_7845)"/>
<path d="M93.4403 102.983C92.2153 102.485 91.6078 102.237 90.4008 101.744C90.0488 101.6 89.512 101.667 89.202 101.894C88.1408 102.67 87.6144 103.056 86.5837 103.814C86.2829 104.035 86.3248 104.337 86.6751 104.49C87.8762 105.013 88.4805 105.276 89.6972 105.803C90.0519 105.957 90.5835 105.897 90.8859 105.668C91.9224 104.881 92.4524 104.48 93.522 103.674C93.834 103.438 93.7973 103.129 93.4403 102.983Z" fill="url(#paint51_linear_3223_7845)"/>
<path d="M99.0552 105.257C97.7912 104.748 97.1658 104.495 95.9242 103.992C95.5621 103.845 95.015 103.92 94.7022 104.158C93.6299 104.972 93.0983 105.376 92.0599 106.171C91.7568 106.403 91.8038 106.715 92.1629 106.87C93.3939 107.401 94.0137 107.667 95.2645 108.204C95.6295 108.36 96.1719 108.295 96.478 108.055C97.5272 107.234 98.0647 106.815 99.1495 105.973C99.4662 105.727 99.4239 105.406 99.0552 105.257Z" fill="url(#paint52_linear_3223_7845)"/>
<path d="M104.866 107.585C103.555 107.062 102.906 106.803 101.622 106.288C101.247 106.137 100.686 106.218 100.368 106.466C99.2794 107.316 98.7397 107.738 97.6873 108.566C97.3802 108.808 97.4326 109.13 97.803 109.288C99.0713 109.828 99.7115 110.1 101.004 110.648C101.381 110.807 101.938 110.737 102.25 110.488C103.319 109.635 103.867 109.2 104.974 108.325C105.297 108.069 105.249 107.737 104.866 107.585Z" fill="url(#paint53_linear_3223_7845)"/>
<path d="M34.5633 82.747C33.2607 82.1928 32.6032 81.9143 31.2736 81.3538C30.8856 81.1902 30.3213 81.1562 30.0141 81.2786C28.9615 81.698 28.4349 81.909 27.3782 82.3387C27.0699 82.464 27.1351 82.702 27.523 82.8692C28.8523 83.4422 29.5102 83.7275 30.8149 84.2963C31.1957 84.4623 31.7518 84.4916 32.0591 84.3629C33.1124 83.9216 33.6391 83.7035 34.6931 83.2689C35.0006 83.142 34.9435 82.9087 34.5633 82.747Z" fill="url(#paint54_linear_3223_7845)"/>
<path d="M40.346 85.2244C39.086 84.6802 38.4507 84.4071 37.1681 83.8577C36.7936 83.6972 36.2397 83.6709 35.932 83.799C34.8782 84.2384 34.3519 84.4585 33.3001 84.9036C32.993 85.0334 33.0494 85.2729 33.4253 85.4381C34.7114 86.0038 35.349 86.2856 36.6144 86.8477C36.9834 87.0116 37.5283 87.0353 37.8332 86.901C38.8779 86.4406 39.4021 86.2117 40.4541 85.7536C40.7612 85.6198 40.7135 85.383 40.346 85.2244Z" fill="url(#paint55_linear_3223_7845)"/>
<path d="M45.952 87.6617C44.7271 87.1258 44.1104 86.857 42.8671 86.3168C42.5042 86.1592 41.9598 86.1409 41.6533 86.2762C40.6023 86.7397 40.0789 86.9713 39.0364 87.4362C38.7321 87.5719 38.7826 87.8144 39.1477 87.9777C40.3979 88.5372 41.0179 88.816 42.2509 89.3728C42.6103 89.5351 43.1448 89.5526 43.4462 89.4116C44.4785 88.9284 44.9988 88.6866 46.0448 88.2012C46.3502 88.0596 46.309 87.818 45.952 87.6617Z" fill="url(#paint56_linear_3223_7845)"/>
<path d="M51.4169 90.0669C50.2196 89.5375 49.6179 89.2721 48.4061 88.7393C48.0528 88.5841 47.5173 88.5743 47.2126 88.7177C46.1679 89.2093 45.6492 89.4541 44.6195 89.9426C44.3192 90.0853 44.3661 90.3319 44.7221 90.4937C45.9427 91.0485 46.5488 91.3251 47.7561 91.8777C48.1084 92.0391 48.6325 92.0494 48.9293 91.9008C49.9471 91.3915 50.4615 91.1353 51.4995 90.6194C51.8022 90.4687 51.7666 90.2214 51.4169 90.0669Z" fill="url(#paint57_linear_3223_7845)"/>
<path d="M77.8091 101.879C76.6369 101.354 76.0531 101.092 74.887 100.569C74.8741 100.563 74.8574 100.562 74.8435 100.556C74.8314 100.55 74.826 100.541 74.8131 100.535C73.9031 100.127 73.4491 99.9233 72.5419 99.5156C71.3799 98.9935 70.7998 98.7329 69.6399 98.2115C68.7051 97.7913 68.2379 97.5813 67.3032 97.1612C66.1436 96.64 65.5637 96.3795 64.4021 95.858C63.4659 95.4377 62.9976 95.2276 62.0591 94.8069C60.8943 94.2848 60.3109 94.0237 59.1401 93.5002C57.0256 92.5549 55.964 92.0814 53.8195 91.1295C53.4732 90.9757 52.9456 90.9751 52.6434 91.1276C51.6079 91.6504 51.0946 91.9098 50.0801 92.425C49.7843 92.5753 49.8294 92.8271 50.1789 92.9879C52.3418 93.9833 53.4133 94.4794 55.5473 95.4709C56.7288 96.02 57.3173 96.2941 58.4931 96.8424C59.4404 97.2844 59.9129 97.5051 60.8577 97.9469C62.0298 98.495 62.6145 98.7689 63.7843 99.3171C64.7271 99.7589 65.1982 99.9797 66.1407 100.422C67.3097 100.97 67.8942 101.245 69.065 101.794C69.9788 102.223 70.4358 102.437 71.3517 102.866C71.3647 102.873 71.3812 102.874 71.3948 102.88C71.4074 102.886 71.4128 102.895 71.4259 102.901C72.5993 103.452 73.1865 103.727 74.365 104.279C74.7087 104.44 75.2067 104.415 75.4814 104.221C76.4222 103.557 76.9087 103.217 77.9016 102.524C78.1916 102.321 78.1511 102.032 77.8091 101.879Z" fill="url(#paint58_linear_3223_7845)"/>
<path d="M83.1387 104.258C81.9488 103.729 81.3569 103.465 80.1775 102.938C79.8338 102.784 79.318 102.827 79.0285 103.031C78.0362 103.732 77.5504 104.076 76.6118 104.747C76.3379 104.943 76.3989 105.23 76.7443 105.392C77.9281 105.945 78.5218 106.222 79.7148 106.777C80.0625 106.939 80.562 106.909 80.8341 106.706C81.7666 106.011 82.2506 105.653 83.2417 104.925C83.5307 104.712 83.4856 104.413 83.1387 104.258Z" fill="url(#paint59_linear_3223_7845)"/>
<path d="M88.5643 106.663C87.3492 106.127 86.7458 105.86 85.5457 105.328C85.1956 105.172 84.6751 105.222 84.3859 105.437C83.3946 106.173 82.9107 106.534 81.9796 107.236C81.7077 107.44 81.7752 107.736 82.1253 107.898C83.3266 108.456 83.9299 108.735 85.1436 109.296C85.4975 109.459 86.0008 109.423 86.2721 109.212C87.2008 108.487 87.685 108.113 88.679 107.351C88.9688 107.128 88.9185 106.819 88.5643 106.663Z" fill="url(#paint60_linear_3223_7845)"/>
<path d="M94.1203 109.102C92.8723 108.558 92.2542 108.287 91.0254 107.748C90.6669 107.59 90.139 107.647 89.8486 107.871C88.8536 108.64 88.3688 109.017 87.4401 109.748C87.1691 109.961 87.2427 110.264 87.6002 110.429C88.8254 110.992 89.4415 111.274 90.6829 111.841C91.045 112.007 91.5551 111.966 91.8269 111.746C92.7577 110.994 93.245 110.605 94.2474 109.811C94.5398 109.58 94.484 109.261 94.1203 109.102Z" fill="url(#paint61_linear_3223_7845)"/>
<path d="M99.8407 111.581C98.5531 111.027 97.9155 110.751 96.6509 110.202C96.2817 110.042 95.7427 110.104 95.4494 110.338C94.4444 111.138 93.956 111.53 93.0236 112.287C92.7519 112.509 92.8319 112.819 93.1985 112.986C94.4543 113.556 95.0868 113.842 96.3623 114.416C96.7345 114.584 97.2549 114.54 97.5291 114.313C98.4692 113.537 98.9629 113.134 99.9808 112.311C100.278 112.071 100.216 111.743 99.8407 111.581Z" fill="url(#paint62_linear_3223_7845)"/>
<path d="M71.2581 10.9805C66.2003 31.4695 63.1128 41.393 58.0486 61.0356L71.2581 10.9805Z" fill="#182970"/>
<path d="M71.2581 10.9805C66.2003 31.4695 63.1128 41.393 58.0486 61.0356" stroke="#D0D2D3" stroke-width="2.3945" stroke-miterlimit="10"/>
<path d="M80.7047 15.6063C77.9094 15.0576 76.5126 14.7831 73.7204 14.2342C73.5323 14.1972 73.4213 13.9972 73.4736 13.7898C73.5257 13.5823 73.722 13.4427 73.91 13.4795C76.7031 14.0267 78.1 14.3003 80.895 14.8474C81.0831 14.8842 81.1941 15.0849 81.1417 15.2938C81.0896 15.5024 80.8925 15.6432 80.7047 15.6063Z" fill="#F5B419"/>
<path d="M68.6811 13.2434C67.944 13.0983 67.5757 13.0258 66.8389 12.8808C66.7271 12.8587 66.6611 12.7406 66.6915 12.618C66.7218 12.4963 66.737 12.4354 66.7671 12.3137C66.7978 12.1911 66.914 12.1086 67.0257 12.1305C67.763 12.2751 68.1316 12.3474 68.8691 12.492C68.9806 12.5139 69.0469 12.6323 69.0162 12.7552C68.9856 12.8771 68.9704 12.9381 68.94 13.06C68.909 13.1828 68.7926 13.2654 68.6811 13.2434Z" fill="#A8AFC9"/>
<path d="M67.9231 16.2427C67.1873 16.0947 66.8197 16.0207 66.0847 15.8727C65.9732 15.8503 65.9077 15.7321 65.9385 15.6101C65.9694 15.4889 65.9848 15.4284 66.0154 15.3072C66.0465 15.1852 66.1626 15.1034 66.2744 15.1257C67.0099 15.273 67.3776 15.3465 68.1136 15.4936C68.2251 15.5158 68.2906 15.6343 68.2594 15.7569C68.2285 15.8785 68.2131 15.9393 68.1822 16.0609C68.1512 16.1832 68.0343 16.2651 67.9231 16.2427Z" fill="#A8AFC9"/>
<path d="M67.1543 19.2355C66.4201 19.083 66.0534 19.0067 65.32 18.8542C65.2087 18.8311 65.1435 18.7129 65.1751 18.5913C65.2061 18.4707 65.2218 18.4104 65.2529 18.2897C65.2842 18.1681 65.4007 18.0874 65.5119 18.1104C66.2457 18.2616 66.6127 18.3373 67.3473 18.4885C67.4586 18.5114 67.5238 18.6301 67.4921 18.7523C67.4608 18.8735 67.4454 18.9341 67.4138 19.0553C67.3824 19.1776 67.2656 19.2586 67.1543 19.2355Z" fill="#A8AFC9"/>
<path d="M66.3778 22.2171C65.645 22.0588 65.2789 21.9797 64.5471 21.8213C64.4361 21.7973 64.3714 21.6787 64.4032 21.5577C64.4348 21.4376 64.4504 21.3776 64.4819 21.2573C64.5135 21.1363 64.63 21.0566 64.7412 21.0804C65.4734 21.2371 65.8396 21.3155 66.573 21.4723C66.6839 21.496 66.7486 21.6151 66.7167 21.7369C66.685 21.8579 66.6693 21.9183 66.6375 22.0392C66.6055 22.161 66.4888 22.2411 66.3778 22.2171Z" fill="#A8AFC9"/>
<path d="M65.5937 25.192C64.8623 25.0268 64.497 24.9442 63.7668 24.779C63.6559 24.754 63.592 24.6349 63.6238 24.5143C63.6555 24.3946 63.6714 24.3347 63.7031 24.2151C63.7352 24.0945 63.8515 24.0159 63.9624 24.0407C64.6929 24.2041 65.0583 24.2858 65.7903 24.4491C65.9009 24.4739 65.9653 24.5935 65.9333 24.7151C65.9012 24.8357 65.8853 24.8959 65.8536 25.0165C65.8213 25.1381 65.7043 25.217 65.5937 25.192Z" fill="#A8AFC9"/>
<path d="M64.8042 28.1585C64.074 27.9856 63.7094 27.8991 62.9809 27.7261C62.8703 27.6999 62.8067 27.5802 62.8387 27.46C62.8707 27.3408 62.8867 27.2812 62.9184 27.1619C62.9507 27.0416 63.0673 26.9644 63.1778 26.9904C63.9067 27.1613 64.2713 27.2468 65.0019 27.4177C65.1124 27.4437 65.1766 27.5639 65.1442 27.6851C65.112 27.8054 65.0961 27.8655 65.0638 27.9857C65.0316 28.107 64.9147 28.1847 64.8042 28.1585Z" fill="#A8AFC9"/>
<path d="M64.0113 31.1161C63.2824 30.9348 62.9185 30.8442 62.1915 30.6628C62.0813 30.6353 62.0179 30.5148 62.0502 30.3951C62.0823 30.2762 62.0982 30.2167 62.1303 30.0979C62.1626 29.978 62.279 29.9022 62.3893 29.9293C63.1166 30.1086 63.4808 30.1982 64.21 30.3773C64.3205 30.4045 64.3841 30.5256 64.3517 30.6465C64.3194 30.7665 64.3033 30.8264 64.2711 30.9463C64.2385 31.0672 64.1218 31.1437 64.0113 31.1161Z" fill="#A8AFC9"/>
<path d="M63.2144 34.0662C62.4869 33.8761 62.1237 33.781 61.3985 33.5908C61.2884 33.5619 61.2251 33.4406 61.2575 33.3212C61.2897 33.2028 61.3057 33.1435 61.3379 33.025C61.3703 32.9056 61.4865 32.8311 61.5967 32.8596C62.3225 33.0476 62.6857 33.1416 63.4137 33.3295C63.5238 33.3579 63.5874 33.4798 63.5549 33.6004C63.5225 33.7199 63.5063 33.7798 63.4741 33.8994C63.4415 34.0199 63.3245 34.0949 63.2144 34.0662Z" fill="#A8AFC9"/>
<path d="M62.4182 37.0092C61.6919 36.81 61.3295 36.7104 60.6057 36.5112C60.4958 36.481 60.4329 36.3589 60.4653 36.2398C60.4975 36.1217 60.5135 36.0626 60.5457 35.9444C60.5781 35.8253 60.6942 35.7522 60.804 35.7821C61.5283 35.9791 61.891 36.0775 62.6174 36.2744C62.7276 36.3042 62.7908 36.427 62.7582 36.5472C62.7261 36.6665 62.7097 36.7262 62.6775 36.8454C62.6449 36.9656 62.5283 37.0394 62.4182 37.0092Z" fill="#A8AFC9"/>
<path d="M61.6217 39.9438C60.8966 39.7356 60.5348 39.6315 59.8124 39.4233C59.703 39.3917 59.64 39.2687 59.6725 39.1498C59.7045 39.032 59.7207 38.973 59.7527 38.8551C59.7852 38.7363 59.9009 38.6646 60.0106 38.6958C60.7334 38.9018 61.0953 39.0047 61.8207 39.2107C61.9304 39.2419 61.9936 39.3655 61.9611 39.4855C61.929 39.6045 61.9128 39.664 61.8804 39.7829C61.8479 39.9029 61.7316 39.9753 61.6217 39.9438Z" fill="#A8AFC9"/>
<path d="M60.8281 42.8701C60.1041 42.6531 59.743 42.5446 59.0222 42.3276C58.9128 42.2946 58.8499 42.1708 58.8823 42.0522C58.9142 41.9347 58.9302 41.8757 58.9623 41.7582C58.9945 41.6396 59.1102 41.5691 59.2195 41.6017C59.9407 41.8165 60.302 41.924 61.0263 42.1387C61.1359 42.1712 61.1991 42.2957 61.1666 42.4154C61.1345 42.5341 61.1183 42.5935 61.0862 42.7121C61.0536 42.8319 60.9375 42.903 60.8281 42.8701Z" fill="#A8AFC9"/>
<path d="M60.0369 45.7914C59.3142 45.5662 58.9536 45.4536 58.2343 45.2282C58.1252 45.194 58.0623 45.0693 58.0945 44.951C58.1264 44.8336 58.1421 44.7748 58.174 44.6575C58.2062 44.5391 58.3215 44.4699 58.4306 44.5037C59.1505 44.7271 59.5111 44.8386 60.234 45.0618C60.3434 45.0957 60.4067 45.221 60.3742 45.3403C60.3423 45.4587 60.3261 45.518 60.2942 45.6364C60.2622 45.7558 60.1463 45.8255 60.0369 45.7914Z" fill="#A8AFC9"/>
<path d="M59.252 48.7063C58.5303 48.4735 58.1706 48.3571 57.4528 48.1241C57.3437 48.0888 57.281 47.9633 57.3129 47.8452C57.3445 47.728 57.3602 47.6692 57.3919 47.5521C57.4237 47.434 57.5388 47.3658 57.6478 47.4008C58.366 47.632 58.7258 47.7475 59.4478 47.9786C59.557 48.0135 59.6201 48.1396 59.5881 48.2587C59.5565 48.3769 59.5404 48.4359 59.5087 48.554C59.4768 48.6731 59.3613 48.7417 59.252 48.7063Z" fill="#A8AFC9"/>
<path d="M58.4732 51.6134C57.753 51.3737 57.3936 51.254 56.6772 51.0143C56.5685 50.9779 56.5058 50.8518 56.5371 50.7337C56.5684 50.6167 56.5842 50.558 56.6155 50.441C56.647 50.323 56.7616 50.2559 56.8704 50.292C57.5872 50.5301 57.9466 50.6491 58.6673 50.8872C58.7762 50.9232 58.8395 51.0499 58.8078 51.1687C58.7765 51.2865 58.7606 51.3455 58.7293 51.4633C58.6974 51.5821 58.5824 51.6496 58.4732 51.6134Z" fill="#A8AFC9"/>
<path d="M57.7029 54.5147C56.9836 54.2695 56.6249 54.1469 55.9098 53.9016C55.8015 53.8644 55.7384 53.7376 55.7696 53.6197C55.8006 53.5028 55.8162 53.4443 55.847 53.3274C55.8784 53.2095 55.9922 53.1432 56.1009 53.1802C56.8163 53.4242 57.175 53.5461 57.8944 53.7901C58.0033 53.827 58.0668 53.9542 58.0353 54.0727C58.0043 54.1903 57.9887 54.2491 57.9576 54.3667C57.9264 54.4852 57.8116 54.5518 57.7029 54.5147Z" fill="#A8AFC9"/>
<path d="M56.942 57.4079C56.2239 57.1584 55.8661 57.0337 55.1523 56.7842C55.0439 56.7462 54.981 56.6191 55.0117 56.5012C55.0423 56.3844 55.0576 56.3261 55.0881 56.2091C55.1189 56.0913 55.2323 56.0256 55.3406 56.0634C56.0548 56.3121 56.4129 56.4364 57.1313 56.6849C57.2401 56.7225 57.3036 56.8501 57.2726 56.9683C57.242 57.0857 57.2267 57.1443 57.1959 57.2616C57.165 57.3799 57.0508 57.4457 56.942 57.4079Z" fill="#A8AFC9"/>
<path d="M83.774 19.4214C80.9761 18.8624 79.5784 18.5826 76.7853 18.0227C76.5974 17.9851 76.487 17.7833 76.5401 17.5744C76.5932 17.3656 76.7903 17.2254 76.9785 17.2629C79.7715 17.8193 81.1694 18.0974 83.9669 18.6533C84.1549 18.6908 84.2657 18.8941 84.2129 19.1053C84.16 19.3168 83.9622 19.459 83.774 19.4214Z" fill="#F5B419"/>
<path d="M107.727 24.1848C105.687 23.7813 104.666 23.5793 102.626 23.1748C102.448 23.1394 102.341 22.9417 102.39 22.7362C102.393 22.7199 102.395 22.7117 102.399 22.6954C102.448 22.4898 102.634 22.351 102.813 22.3864C104.852 22.7887 105.872 22.9897 107.911 23.3913C108.09 23.4265 108.197 23.6242 108.149 23.8311C108.146 23.8475 108.144 23.8558 108.14 23.8723C108.092 24.0793 107.906 24.2203 107.727 24.1848Z" fill="#F5B419"/>
<path d="M92.1573 21.0955C89.355 20.5375 87.9546 20.2584 85.1558 19.6994C84.9673 19.6617 84.8566 19.4577 84.9096 19.2462C84.9627 19.0347 85.1598 18.8924 85.3484 18.9298C88.1467 19.4855 89.5468 19.7632 92.3481 20.318C92.5364 20.3554 92.6478 20.5606 92.5953 20.7745C92.5431 20.9885 92.3458 21.133 92.1573 21.0955Z" fill="#A8AFC9"/>
<path d="M101.142 22.879C98.3372 22.3228 96.935 22.0443 94.1321 21.4867C93.9434 21.4491 93.8318 21.2427 93.8841 21.0285C93.9363 20.8141 94.1334 20.6696 94.3219 20.7071C97.1241 21.2616 98.5255 21.5387 101.329 22.0921C101.517 22.1293 101.63 22.3365 101.578 22.553C101.527 22.7695 101.33 22.9165 101.142 22.879Z" fill="white"/>
<path d="M91.3889 24.2281C88.5827 23.6544 87.1807 23.3671 84.3798 22.7919C84.1911 22.7531 84.0808 22.5469 84.1344 22.3336C84.1881 22.1205 84.386 21.9776 84.5745 22.016C87.3748 22.5867 88.7766 22.8717 91.5817 23.441C91.7705 23.4794 91.8817 23.6876 91.8286 23.9042C91.7758 24.1207 91.5776 24.2667 91.3889 24.2281Z" fill="white"/>
<path d="M100.388 26.0649C97.5781 25.4937 96.1734 25.2075 93.3662 24.6343C93.1773 24.5957 93.0661 24.3861 93.119 24.1689C93.1717 23.9518 93.3696 23.8057 93.5585 23.844C96.3647 24.4129 97.7685 24.6969 100.577 25.2638C100.766 25.3019 100.878 25.5132 100.826 25.7335C100.774 25.954 100.577 26.1034 100.388 26.0649Z" fill="#F5B419"/>
<path d="M109.068 27.8221C106.258 27.2539 104.852 26.9691 102.043 26.3984C101.854 26.36 101.741 26.1475 101.793 25.9266C101.845 25.7058 102.042 25.5566 102.231 25.5948C105.04 26.1613 106.444 26.4441 109.253 27.0084C109.442 27.0463 109.555 27.2601 109.504 27.484C109.453 27.7078 109.257 27.8603 109.068 27.8221Z" fill="#22FF32"/>
<path d="M116.198 25.8563C113.395 25.3038 111.992 25.027 109.188 24.4726C108.999 24.4352 108.886 24.2253 108.936 24.0069C108.987 23.7884 109.182 23.6404 109.371 23.6776C112.174 24.2294 113.576 24.5049 116.378 25.0551C116.567 25.0921 116.681 25.302 116.631 25.5224C116.582 25.7429 116.387 25.8935 116.198 25.8563Z" fill="#22FF32"/>
<path d="M82.9967 22.5072C80.1969 21.9317 78.7988 21.6436 76.0068 21.0672C75.8188 21.0284 75.7091 20.8252 75.7628 20.6158C75.8164 20.4065 76.0143 20.2667 76.2021 20.3052C78.9942 20.877 80.3924 21.1627 83.1917 21.7336C83.38 21.772 83.4904 21.9775 83.4367 22.1904C83.3831 22.4032 83.1848 22.5458 82.9967 22.5072Z" fill="#F5B419"/>
<path d="M82.2124 25.6147C79.4108 25.018 78.0125 24.7191 75.2213 24.1209C75.0334 24.0807 74.9242 23.876 74.9784 23.6663C75.0325 23.4565 75.2305 23.3175 75.4187 23.3574C78.2098 23.9498 79.6083 24.2457 82.4095 24.8368C82.5978 24.8766 82.7078 25.0842 82.6537 25.2984C82.5995 25.5124 82.4007 25.655 82.2124 25.6147Z" fill="#F5B419"/>
<path d="M91.2537 27.5309C88.4433 26.9367 87.0391 26.639 84.2354 26.0427C84.0467 26.0025 83.9365 25.7937 83.9906 25.5788C84.0445 25.364 84.2432 25.2208 84.4317 25.2605C87.2351 25.8511 88.6387 26.146 91.4482 26.7347C91.6376 26.7743 91.7486 26.9859 91.6952 27.205C91.6416 27.424 91.4431 27.571 91.2537 27.5309Z" fill="#22FF32"/>
<path d="M77.5776 27.8793C74.7812 27.256 73.3859 26.9439 70.6043 26.3193C70.417 26.2773 70.3086 26.0731 70.3631 25.8657C70.4174 25.6583 70.6151 25.5225 70.8027 25.5641C73.5849 26.182 74.9799 26.4906 77.7765 27.1072C77.9645 27.1487 78.0741 27.3565 78.0192 27.569C77.9646 27.7816 77.7659 27.9212 77.5776 27.8793Z" fill="#F5B419"/>
<path d="M76.1634 33.3509C73.3656 32.6746 71.9709 32.3359 69.1933 31.658C69.0062 31.6123 68.8984 31.4057 68.9535 31.1987C69.0084 30.9917 69.2063 30.8592 69.3936 30.9043C72.1714 31.5743 73.5661 31.9091 76.3639 32.5773C76.552 32.6223 76.6611 32.8333 76.6059 33.0464C76.5508 33.2594 76.3514 33.3964 76.1634 33.3509Z" fill="#F5B419"/>
<path d="M68.7325 61.9217C65.9241 60.9817 64.5299 60.5102 61.77 59.5657C61.5843 59.5022 61.475 59.2865 61.5274 59.0861C61.5795 58.8858 61.7741 58.7737 61.9601 58.8371C64.7202 59.7783 66.1145 60.2482 68.9226 61.185C69.1113 61.2481 69.2235 61.4657 69.1712 61.6685C69.1189 61.8712 68.9215 61.985 68.7325 61.9217Z" fill="#F5B419"/>
<path d="M79.2229 37.358C76.4137 36.6513 75.0136 36.2972 72.2248 35.5878C72.0369 35.54 71.9286 35.3293 71.984 35.1197C72.0391 34.9099 72.2381 34.7768 72.4257 34.824C75.2146 35.5249 76.6149 35.875 79.4233 36.5734C79.6122 36.6204 79.7218 36.8357 79.6667 37.0516C79.6117 37.2678 79.4118 37.4056 79.2229 37.358Z" fill="#F5B419"/>
<path d="M88.0793 39.5725C85.2527 38.8706 83.8418 38.5185 81.0287 37.8127C80.8393 37.7652 80.7295 37.5489 80.7846 37.3319C80.8398 37.1149 81.0392 36.9758 81.2286 37.0228C84.0413 37.7204 85.4517 38.0685 88.277 38.7622C88.4673 38.809 88.5782 39.0296 88.524 39.2528C88.4695 39.4758 88.2694 39.6198 88.0793 39.5725Z" fill="#A8AFC9"/>
<path d="M96.9779 41.7687C94.1429 41.0733 92.7258 40.724 89.8969 40.0233C89.7065 39.9761 89.5951 39.7542 89.6493 39.5303C89.7037 39.3064 89.9037 39.1613 90.0939 39.2079C92.9216 39.9006 94.3379 40.2458 97.1716 40.9334C97.3626 40.9796 97.475 41.2057 97.4218 41.4357C97.3685 41.6655 97.1688 41.8155 96.9779 41.7687Z" fill="#22FF32"/>
<path d="M105.889 43.9406C103.054 43.2532 101.636 42.9077 98.7999 42.2139C98.6092 42.1672 98.4963 41.94 98.5495 41.7093C98.6025 41.4785 98.8022 41.3274 98.9927 41.3735C101.827 42.0596 103.245 42.4013 106.079 43.0809C106.27 43.1267 106.383 43.3578 106.331 43.5944C106.279 43.8309 106.08 43.9869 105.889 43.9406Z" fill="#30B7F2"/>
<path d="M85.2167 51.2792C82.3738 50.4598 80.9555 50.0483 78.1319 49.223C77.9417 49.1674 77.831 48.9467 77.8857 48.7323C77.9402 48.5179 78.1401 48.3872 78.3303 48.4423C81.1532 49.2598 82.5709 49.6674 85.4129 50.4792C85.6044 50.5339 85.7166 50.7589 85.6625 50.9792C85.6087 51.1995 85.4084 51.3345 85.2167 51.2792Z" fill="#A8AFC9"/>
<path d="M94.1744 53.8422C91.3187 53.0322 89.8914 52.625 87.0446 51.8073C86.8532 51.7522 86.7402 51.5265 86.7941 51.3054C86.8477 51.0842 87.0485 50.9478 87.2398 51.0022C90.0853 51.8123 91.5117 52.2157 94.3662 53.0182C94.5585 53.0723 94.6727 53.3024 94.6199 53.5292C94.5673 53.7561 94.367 53.8968 94.1744 53.8422Z" fill="#22FF32"/>
<path d="M103.151 56.3703C100.296 55.5722 98.8664 55.1705 96.0095 54.3626C95.8173 54.3083 95.7029 54.0778 95.7555 53.8501C95.808 53.6224 96.0081 53.4801 96.2004 53.5338C99.0557 54.3342 100.485 54.7322 103.339 55.5232C103.531 55.5765 103.646 55.8111 103.595 56.0443C103.543 56.2775 103.344 56.4241 103.151 56.3703Z" fill="#30B7F2"/>
<path d="M111.862 58.7875C109.019 58.0031 107.593 57.6079 104.739 56.8121C104.547 56.7585 104.432 56.5237 104.483 56.2899C104.534 56.0561 104.733 55.9079 104.925 55.961C107.778 56.7495 109.203 57.1413 112.045 57.9187C112.236 57.971 112.352 58.2098 112.301 58.4489C112.251 58.6881 112.053 58.8402 111.862 58.7875Z" fill="#A8AFC9"/>
<path d="M120.759 61.2265C117.942 60.459 116.526 60.0715 113.687 59.2905C113.496 59.2379 113.381 58.999 113.431 58.7591C113.481 58.5192 113.679 58.3653 113.87 58.4174C116.707 59.1916 118.122 59.5757 120.939 60.3366C121.129 60.3879 121.243 60.6306 121.194 60.8756C121.144 61.1205 120.948 61.2782 120.759 61.2265Z" fill="#22FF32"/>
<path d="M129.554 63.6079C126.776 62.8594 125.377 62.481 122.567 61.717C122.378 61.6657 122.263 61.423 122.313 61.1773C122.362 60.9317 122.558 60.772 122.747 60.823C125.557 61.5804 126.955 61.9556 129.734 62.6981C129.921 62.7481 130.033 62.9943 129.984 63.2447C129.935 63.4952 129.741 63.6584 129.554 63.6079Z" fill="#30B7F2"/>
<path d="M87.946 55.4129C85.0914 54.5686 83.6663 54.1442 80.8284 53.2928C80.637 53.2354 80.525 53.0125 80.579 52.7971C80.6328 52.5816 80.8332 52.4516 81.0243 52.5085C83.8616 53.3528 85.2857 53.7735 88.1393 54.6108C88.3312 54.6671 88.445 54.8942 88.3919 55.115C88.3388 55.3358 88.1381 55.4697 87.946 55.4129Z" fill="#A8AFC9"/>
<path d="M96.9343 58.0496C94.0712 57.2164 92.6394 56.7973 89.7816 55.955C89.5893 55.8983 89.475 55.6709 89.5278 55.4494C89.5807 55.2277 89.7815 55.0922 89.9739 55.1485C92.8301 55.9838 94.2613 56.3994 97.1228 57.2257C97.3157 57.2813 97.4306 57.5127 97.3789 57.7394C97.327 57.9662 97.1272 58.1057 96.9343 58.0496Z" fill="#22FF32"/>
<path d="M87.1988 58.5112C84.3387 57.6412 82.9112 57.2039 80.0691 56.3263C79.8777 56.2672 79.765 56.0445 79.8184 55.831C79.8721 55.6176 80.0723 55.4908 80.2636 55.5495C83.1046 56.4207 84.5315 56.8548 87.3903 57.7186C87.5826 57.7767 87.6969 58.0031 87.6443 58.2212C87.5917 58.4394 87.391 58.5697 87.1988 58.5112Z" fill="#A8AFC9"/>
<path d="M96.2049 61.2274C93.3358 60.3696 91.9008 59.9379 89.0376 59.0702C88.8449 59.0117 88.73 58.7852 88.7825 58.5663C88.8349 58.3474 89.0355 58.2154 89.2283 58.2734C92.0899 59.135 93.5241 59.5636 96.3915 60.4154C96.5848 60.4727 96.7005 60.7027 96.6492 60.9262C96.5977 61.1497 96.3982 61.2851 96.2049 61.2274Z" fill="#22FF32"/>
<path d="M105.926 60.6458C103.069 59.8266 101.637 59.4139 98.7736 58.5835C98.581 58.5276 98.4657 58.296 98.5171 58.0685C98.5689 57.841 98.7687 57.6998 98.9612 57.7552C101.823 58.5789 103.254 58.9883 106.11 59.8008C106.302 59.8556 106.418 60.091 106.368 60.3235C106.317 60.5561 106.118 60.701 105.926 60.6458Z" fill="#30B7F2"/>
<path d="M114.632 63.1258C111.794 62.3227 110.369 61.9175 107.514 61.1011C107.322 61.046 107.206 60.8107 107.256 60.5777C107.307 60.3446 107.505 60.198 107.697 60.2526C110.551 61.0626 111.975 61.4645 114.812 62.2614C115.003 62.3151 115.119 62.5541 115.069 62.7918C115.02 63.0298 114.823 63.1798 114.632 63.1258Z" fill="#A8AFC9"/>
<path d="M123.503 65.6202C120.698 64.8362 119.287 64.4401 116.454 63.6407C116.263 63.5869 116.148 63.3481 116.197 63.1096C116.246 62.871 116.443 62.719 116.634 62.7724C119.465 63.5656 120.876 63.9589 123.681 64.737C123.869 64.7893 123.983 65.0316 123.934 65.2747C123.886 65.5178 123.691 65.6731 123.503 65.6202Z" fill="#22FF32"/>
<path d="M132.246 68.0505C129.489 67.2883 128.099 66.9023 125.303 66.1226C125.114 66.07 125 65.8283 125.049 65.5846C125.098 65.3408 125.292 65.1834 125.48 65.2356C128.276 66.0096 129.666 66.3927 132.424 67.1496C132.61 67.2006 132.722 67.4456 132.673 67.6936C132.624 67.9415 132.432 68.1018 132.246 68.0505Z" fill="#30B7F2"/>
<path d="M114.787 46.0864C111.961 45.4087 110.545 45.0677 107.711 44.3822C107.52 44.3361 107.406 44.1039 107.458 43.8665C107.51 43.629 107.709 43.472 107.899 43.5177C110.732 44.1955 112.147 44.5329 114.972 45.2032C115.162 45.2484 115.276 45.4841 115.225 45.7272C115.174 45.9701 114.977 46.1319 114.787 46.0864Z" fill="white"/>
<path d="M123.641 48.1976C120.833 47.5314 119.424 47.1958 116.601 46.5203C116.411 46.4748 116.297 46.238 116.348 45.9941C116.399 45.7501 116.596 45.5875 116.786 45.6325C119.608 46.3007 121.016 46.6328 123.824 47.292C124.013 47.3364 124.126 47.5765 124.076 47.8258C124.026 48.075 123.83 48.2424 123.641 48.1976Z" fill="#30B7F2"/>
<path d="M132.426 50.2704C129.645 49.6172 128.247 49.2877 125.444 48.624C125.255 48.5793 125.142 48.3381 125.192 48.0881C125.242 47.8381 125.438 47.6698 125.627 47.7141C128.43 48.371 129.827 48.6971 132.609 49.3438C132.796 49.3873 132.908 49.6314 132.858 49.8864C132.807 50.1414 132.613 50.3142 132.426 50.2704Z" fill="white"/>
<path d="M85.2096 35.5236C82.3929 34.8511 80.9871 34.514 78.1844 33.8385C77.9959 33.7931 77.8866 33.5807 77.9418 33.3667C77.997 33.1527 78.1965 33.0144 78.3847 33.0592C81.1872 33.7268 82.5925 34.0601 85.4084 34.7248C85.5982 34.7696 85.7085 34.9861 85.6539 35.2061C85.5994 35.426 85.3993 35.569 85.2096 35.5236Z" fill="#A8AFC9"/>
<path d="M94.305 37.6826C91.4773 37.0153 90.0642 36.6803 87.2442 36.0089C87.0546 35.9638 86.9439 35.7459 86.9984 35.525C87.053 35.304 87.2528 35.1597 87.4424 35.2044C90.2614 35.8681 91.6737 36.1992 94.5002 36.8589C94.6903 36.9032 94.8022 37.1251 94.7485 37.3518C94.6946 37.5786 94.4951 37.7275 94.305 37.6826Z" fill="#22FF32"/>
<path d="M77.4725 43.2629C74.6601 42.4923 73.2588 42.1059 70.4718 41.332C70.2842 41.2799 70.176 41.0665 70.231 40.8578C70.2864 40.6492 70.485 40.5203 70.6726 40.5719C73.4599 41.3373 74.861 41.7195 77.673 42.4818C77.8621 42.5331 77.972 42.7511 77.9167 42.9661C77.8619 43.1812 77.662 43.3147 77.4725 43.2629Z" fill="#F5B419"/>
<path d="M73.0918 60.3429C70.2654 59.4195 68.86 58.9561 66.0738 58.0277C65.886 57.9651 65.7761 57.7481 65.8291 57.5453C65.8821 57.3424 66.0789 57.2272 66.2665 57.2893C69.0526 58.2133 70.4579 58.6744 73.2836 59.5932C73.4736 59.6551 73.5861 59.8748 73.5335 60.081C73.4807 60.2873 73.2818 60.4049 73.0918 60.3429Z" fill="#F5B419"/>
<path d="M86.5736 45.7363C83.7385 44.9717 82.3238 44.5881 79.5053 43.8186C79.3154 43.7668 79.2054 43.5476 79.2604 43.3315C79.3155 43.1154 79.5152 42.9802 79.7052 43.0313C82.5229 43.7925 83.9371 44.1721 86.7712 44.9284C86.9619 44.9792 87.0735 45.2029 87.019 45.4253C86.9647 45.6479 86.7645 45.7878 86.5736 45.7363Z" fill="#A8AFC9"/>
<path d="M95.7278 48.1881C92.882 47.4319 91.4596 47.0518 88.6208 46.2889C88.4299 46.2377 88.3179 46.0128 88.3722 45.7894C88.4263 45.5658 88.6269 45.4244 88.8176 45.4752C91.6548 46.2299 93.0767 46.6059 95.9212 47.3541C96.1127 47.4044 96.2259 47.6337 96.1728 47.8632V47.8633C96.1196 48.0929 95.9195 48.239 95.7278 48.1881Z" fill="#22FF32"/>
<path d="M81.2853 47.4667C78.4565 46.6682 77.0465 46.2677 74.2408 45.4647C74.0518 45.4107 73.9423 45.1933 73.9974 44.9815C74.0525 44.7698 74.2521 44.6402 74.441 44.6937C77.2465 45.4885 78.6561 45.885 81.4839 46.6754C81.674 46.7285 81.7852 46.9504 81.7308 47.1683C81.676 47.3862 81.4756 47.5205 81.2853 47.4667Z" fill="#F5B419"/>
<path d="M78.3929 58.9767C75.5501 58.0757 74.1347 57.6234 71.3227 56.7164C71.1334 56.6553 71.0226 56.4363 71.0761 56.2296C71.1296 56.0229 71.3281 55.9033 71.5175 55.9641C74.3288 56.8654 75.744 57.315 78.5858 58.2104C78.777 58.2707 78.8902 58.4928 78.8371 58.7037C78.7841 58.9147 78.5841 59.0373 78.3929 58.9767Z" fill="#F5B419"/>
<path d="M90.4311 50.0267C87.5842 49.2361 86.1623 48.839 83.3284 48.0422C83.1376 47.9885 83.0263 47.7656 83.0807 47.5467C83.1352 47.3277 83.3355 47.1918 83.5263 47.2449C86.3592 48.0337 87.7802 48.4269 90.6257 49.2095C90.8176 49.2623 90.9301 49.4895 90.8765 49.7145C90.8232 49.9395 90.6227 50.0799 90.4311 50.0267Z" fill="white"/>
<path d="M99.6161 52.5587C96.7634 51.7784 95.3366 51.386 92.4872 50.5975C92.2954 50.5445 92.1821 50.3163 92.2355 50.0902C92.2889 49.8642 92.4893 49.7221 92.6809 49.7746C95.5287 50.5551 96.9551 50.9437 99.8062 51.7164C99.9981 51.7684 100.112 52.0008 100.06 52.2328C100.008 52.4646 99.8081 52.6112 99.6161 52.5587Z" fill="#22FF32"/>
<path d="M67.2755 10.2549C92.9595 15.2619 118.644 20.2646 144.33 25.2631" stroke="#D0D2D3" stroke-width="2.3945" stroke-miterlimit="10"/>
<defs>
<linearGradient id="paint0_linear_3223_7845" x1="151.121" y1="44.5781" x2="56.7565" y2="47.9058" gradientUnits="userSpaceOnUse">
<stop stop-color="#505FAA"/>
<stop offset="1" stop-color="#182970"/>
</linearGradient>
<linearGradient id="paint1_linear_3223_7845" x1="42.2672" y1="106.352" x2="121.816" y2="94.5753" gradientUnits="userSpaceOnUse">
<stop stop-color="#505FAA"/>
<stop offset="1" stop-color="#8F92C7"/>
</linearGradient>
<linearGradient id="paint2_linear_3223_7845" x1="42.2861" y1="106.241" x2="121.835" y2="94.465" gradientUnits="userSpaceOnUse">
<stop stop-color="#F9FCFF"/>
<stop offset="1" stop-color="#E7EDF7"/>
</linearGradient>
<linearGradient id="paint3_linear_3223_7845" x1="123.873" y1="97.8118" x2="4.87969" y2="100.936" gradientUnits="userSpaceOnUse">
<stop stop-color="#F9FCFF"/>
<stop offset="1" stop-color="#E7EDF7"/>
</linearGradient>
<linearGradient id="paint4_linear_3223_7845" x1="146.274" y1="56.777" x2="40.7314" y2="71.4096" gradientUnits="userSpaceOnUse">
<stop stop-color="#505FAA"/>
<stop offset="1" stop-color="#8F92C7"/>
</linearGradient>
<linearGradient id="paint5_linear_3223_7845" x1="141.738" y1="60.8229" x2="39.007" y2="75.0657" gradientUnits="userSpaceOnUse">
<stop stop-color="#505FAA"/>
<stop offset="1" stop-color="#8F92C7"/>
</linearGradient>
<linearGradient id="paint6_linear_3223_7845" x1="137.623" y1="64.6291" x2="37.3807" y2="78.5269" gradientUnits="userSpaceOnUse">
<stop stop-color="#505FAA"/>
<stop offset="1" stop-color="#8F92C7"/>
</linearGradient>
<linearGradient id="paint7_linear_3223_7845" x1="133.935" y1="68.2241" x2="35.8134" y2="81.8279" gradientUnits="userSpaceOnUse">
<stop stop-color="#505FAA"/>
<stop offset="1" stop-color="#8F92C7"/>
</linearGradient>
<linearGradient id="paint8_linear_3223_7845" x1="130.657" y1="71.6389" x2="34.2601" y2="85.0036" gradientUnits="userSpaceOnUse">
<stop stop-color="#505FAA"/>
<stop offset="1" stop-color="#8F92C7"/>
</linearGradient>
<linearGradient id="paint9_linear_3223_7845" x1="127.771" y1="74.9103" x2="32.6658" y2="88.0959" gradientUnits="userSpaceOnUse">
<stop stop-color="#505FAA"/>
<stop offset="1" stop-color="#8F92C7"/>
</linearGradient>
<linearGradient id="paint10_linear_3223_7845" x1="125.249" y1="78.0678" x2="30.9542" y2="91.1411" gradientUnits="userSpaceOnUse">
<stop stop-color="#505FAA"/>
<stop offset="1" stop-color="#8F92C7"/>
</linearGradient>
<linearGradient id="paint11_linear_3223_7845" x1="123.05" y1="81.1519" x2="29.0371" y2="94.186" gradientUnits="userSpaceOnUse">
<stop stop-color="#505FAA"/>
<stop offset="1" stop-color="#8F92C7"/>
</linearGradient>
<linearGradient id="paint12_linear_3223_7845" x1="121.112" y1="84.2018" x2="26.8208" y2="97.2745" gradientUnits="userSpaceOnUse">
<stop stop-color="#505FAA"/>
<stop offset="1" stop-color="#8F92C7"/>
</linearGradient>
<linearGradient id="paint13_linear_3223_7845" x1="119.369" y1="87.2597" x2="24.1881" y2="100.456" gradientUnits="userSpaceOnUse">
<stop stop-color="#505FAA"/>
<stop offset="1" stop-color="#8F92C7"/>
</linearGradient>
<linearGradient id="paint14_linear_3223_7845" x1="117.739" y1="90.3708" x2="21.0134" y2="103.781" gradientUnits="userSpaceOnUse">
<stop stop-color="#505FAA"/>
<stop offset="1" stop-color="#8F92C7"/>
</linearGradient>
<linearGradient id="paint15_linear_3223_7845" x1="116.124" y1="93.5811" x2="17.1522" y2="107.303" gradientUnits="userSpaceOnUse">
<stop stop-color="#505FAA"/>
<stop offset="1" stop-color="#8F92C7"/>
</linearGradient>
<linearGradient id="paint16_linear_3223_7845" x1="114.414" y1="96.9423" x2="12.4552" y2="111.078" gradientUnits="userSpaceOnUse">
<stop stop-color="#505FAA"/>
<stop offset="1" stop-color="#8F92C7"/>
</linearGradient>
<linearGradient id="paint17_linear_3223_7845" x1="125.693" y1="63.553" x2="39.0525" y2="75.565" gradientUnits="userSpaceOnUse">
<stop stop-color="#505FAA"/>
<stop offset="1" stop-color="#8F92C7"/>
</linearGradient>
<linearGradient id="paint18_linear_3223_7845" x1="134.662" y1="66.6947" x2="34.6835" y2="80.5558" gradientUnits="userSpaceOnUse">
<stop stop-color="#505FAA"/>
<stop offset="1" stop-color="#8F92C7"/>
</linearGradient>
<linearGradient id="paint19_linear_3223_7845" x1="131.428" y1="70.3309" x2="32.9413" y2="83.9853" gradientUnits="userSpaceOnUse">
<stop stop-color="#505FAA"/>
<stop offset="1" stop-color="#8F92C7"/>
</linearGradient>
<linearGradient id="paint20_linear_3223_7845" x1="128.504" y1="73.8201" x2="31.1492" y2="87.3175" gradientUnits="userSpaceOnUse">
<stop stop-color="#505FAA"/>
<stop offset="1" stop-color="#8F92C7"/>
</linearGradient>
<linearGradient id="paint21_linear_3223_7845" x1="125.871" y1="77.1947" x2="29.2583" y2="90.5893" gradientUnits="userSpaceOnUse">
<stop stop-color="#505FAA"/>
<stop offset="1" stop-color="#8F92C7"/>
</linearGradient>
<linearGradient id="paint22_linear_3223_7845" x1="123.509" y1="80.4791" x2="27.2012" y2="93.8313" gradientUnits="userSpaceOnUse">
<stop stop-color="#505FAA"/>
<stop offset="1" stop-color="#8F92C7"/>
</linearGradient>
<linearGradient id="paint23_linear_3223_7845" x1="121.38" y1="83.7093" x2="24.8936" y2="97.0863" gradientUnits="userSpaceOnUse">
<stop stop-color="#505FAA"/>
<stop offset="1" stop-color="#8F92C7"/>
</linearGradient>
<linearGradient id="paint24_linear_3223_7845" x1="119.43" y1="86.9187" x2="22.2513" y2="100.392" gradientUnits="userSpaceOnUse">
<stop stop-color="#505FAA"/>
<stop offset="1" stop-color="#8F92C7"/>
</linearGradient>
<linearGradient id="paint25_linear_3223_7845" x1="117.599" y1="90.1447" x2="19.1674" y2="103.792" gradientUnits="userSpaceOnUse">
<stop stop-color="#505FAA"/>
<stop offset="1" stop-color="#8F92C7"/>
</linearGradient>
<linearGradient id="paint26_linear_3223_7845" x1="115.812" y1="93.4269" x2="15.5183" y2="107.332" gradientUnits="userSpaceOnUse">
<stop stop-color="#505FAA"/>
<stop offset="1" stop-color="#8F92C7"/>
</linearGradient>
<linearGradient id="paint27_linear_3223_7845" x1="113.979" y1="96.8082" x2="11.1708" y2="111.062" gradientUnits="userSpaceOnUse">
<stop stop-color="#505FAA"/>
<stop offset="1" stop-color="#8F92C7"/>
</linearGradient>
<linearGradient id="paint28_linear_3223_7845" x1="111.996" y1="100.329" x2="5.98905" y2="115.026" gradientUnits="userSpaceOnUse">
<stop stop-color="#505FAA"/>
<stop offset="1" stop-color="#8F92C7"/>
</linearGradient>
<linearGradient id="paint29_linear_3223_7845" x1="138.023" y1="60.803" x2="35.6534" y2="74.9956" gradientUnits="userSpaceOnUse">
<stop stop-color="#505FAA"/>
<stop offset="1" stop-color="#8F92C7"/>
</linearGradient>
<linearGradient id="paint30_linear_3223_7845" x1="134.554" y1="64.8406" x2="33.8879" y2="78.7971" gradientUnits="userSpaceOnUse">
<stop stop-color="#505FAA"/>
<stop offset="1" stop-color="#8F92C7"/>
</linearGradient>
<linearGradient id="paint31_linear_3223_7845" x1="131.325" y1="68.7201" x2="32.1181" y2="82.4744" gradientUnits="userSpaceOnUse">
<stop stop-color="#505FAA"/>
<stop offset="1" stop-color="#8F92C7"/>
</linearGradient>
<linearGradient id="paint32_linear_3223_7845" x1="128.352" y1="72.4576" x2="30.3203" y2="86.049" gradientUnits="userSpaceOnUse">
<stop stop-color="#505FAA"/>
<stop offset="1" stop-color="#8F92C7"/>
</linearGradient>
<linearGradient id="paint33_linear_3223_7845" x1="125.63" y1="76.0749" x2="28.4582" y2="89.5471" gradientUnits="userSpaceOnUse">
<stop stop-color="#505FAA"/>
<stop offset="1" stop-color="#8F92C7"/>
</linearGradient>
<linearGradient id="paint34_linear_3223_7845" x1="123.149" y1="79.5955" x2="26.4846" y2="92.9973" gradientUnits="userSpaceOnUse">
<stop stop-color="#505FAA"/>
<stop offset="1" stop-color="#8F92C7"/>
</linearGradient>
<linearGradient id="paint35_linear_3223_7845" x1="120.89" y1="83.044" x2="24.3398" y2="96.43" gradientUnits="userSpaceOnUse">
<stop stop-color="#505FAA"/>
<stop offset="1" stop-color="#8F92C7"/>
</linearGradient>
<linearGradient id="paint36_linear_3223_7845" x1="118.824" y1="86.4451" x2="21.9484" y2="99.8761" gradientUnits="userSpaceOnUse">
<stop stop-color="#505FAA"/>
<stop offset="1" stop-color="#8F92C7"/>
</linearGradient>
<linearGradient id="paint37_linear_3223_7845" x1="116.901" y1="89.8343" x2="19.23" y2="103.376" gradientUnits="userSpaceOnUse">
<stop stop-color="#505FAA"/>
<stop offset="1" stop-color="#8F92C7"/>
</linearGradient>
<linearGradient id="paint38_linear_3223_7845" x1="115.067" y1="93.2375" x2="16.0824" y2="106.961" gradientUnits="userSpaceOnUse">
<stop stop-color="#505FAA"/>
<stop offset="1" stop-color="#8F92C7"/>
</linearGradient>
<linearGradient id="paint39_linear_3223_7845" x1="113.254" y1="96.6929" x2="12.3921" y2="110.677" gradientUnits="userSpaceOnUse">
<stop stop-color="#505FAA"/>
<stop offset="1" stop-color="#8F92C7"/>
</linearGradient>
<linearGradient id="paint40_linear_3223_7845" x1="109.32" y1="102.306" x2="22.2474" y2="114.378" gradientUnits="userSpaceOnUse">
<stop stop-color="#505FAA"/>
<stop offset="1" stop-color="#8F92C7"/>
</linearGradient>
<linearGradient id="paint41_linear_3223_7845" x1="134.4" y1="62.5581" x2="33.1156" y2="76.6003" gradientUnits="userSpaceOnUse">
<stop stop-color="#505FAA"/>
<stop offset="1" stop-color="#8F92C7"/>
</linearGradient>
<linearGradient id="paint42_linear_3223_7845" x1="131.023" y1="66.6942" x2="31.3545" y2="80.5125" gradientUnits="userSpaceOnUse">
<stop stop-color="#505FAA"/>
<stop offset="1" stop-color="#8F92C7"/>
</linearGradient>
<linearGradient id="paint43_linear_3223_7845" x1="127.86" y1="70.7019" x2="29.6092" y2="84.3236" gradientUnits="userSpaceOnUse">
<stop stop-color="#505FAA"/>
<stop offset="1" stop-color="#8F92C7"/>
</linearGradient>
<linearGradient id="paint44_linear_3223_7845" x1="124.935" y1="74.5869" x2="27.8595" y2="88.0457" gradientUnits="userSpaceOnUse">
<stop stop-color="#505FAA"/>
<stop offset="1" stop-color="#8F92C7"/>
</linearGradient>
<linearGradient id="paint45_linear_3223_7845" x1="122.252" y1="78.3684" x2="26.0764" y2="91.7022" gradientUnits="userSpaceOnUse">
<stop stop-color="#505FAA"/>
<stop offset="1" stop-color="#8F92C7"/>
</linearGradient>
<linearGradient id="paint46_linear_3223_7845" x1="119.801" y1="82.0662" x2="24.2208" y2="95.3176" gradientUnits="userSpaceOnUse">
<stop stop-color="#505FAA"/>
<stop offset="1" stop-color="#8F92C7"/>
</linearGradient>
<linearGradient id="paint47_linear_3223_7845" x1="117.572" y1="85.6986" x2="22.2357" y2="98.9162" gradientUnits="userSpaceOnUse">
<stop stop-color="#505FAA"/>
<stop offset="1" stop-color="#8F92C7"/>
</linearGradient>
<linearGradient id="paint48_linear_3223_7845" x1="115.544" y1="89.284" x2="20.0503" y2="102.523" gradientUnits="userSpaceOnUse">
<stop stop-color="#505FAA"/>
<stop offset="1" stop-color="#8F92C7"/>
</linearGradient>
<linearGradient id="paint49_linear_3223_7845" x1="113.67" y1="92.8542" x2="17.591" y2="106.175" gradientUnits="userSpaceOnUse">
<stop stop-color="#505FAA"/>
<stop offset="1" stop-color="#8F92C7"/>
</linearGradient>
<linearGradient id="paint50_linear_3223_7845" x1="111.903" y1="96.4316" x2="14.7648" y2="109.899" gradientUnits="userSpaceOnUse">
<stop stop-color="#505FAA"/>
<stop offset="1" stop-color="#8F92C7"/>
</linearGradient>
<linearGradient id="paint51_linear_3223_7845" x1="110.179" y1="100.043" x2="11.4606" y2="113.73" gradientUnits="userSpaceOnUse">
<stop stop-color="#505FAA"/>
<stop offset="1" stop-color="#8F92C7"/>
</linearGradient>
<linearGradient id="paint52_linear_3223_7845" x1="108.421" y1="103.724" x2="7.56084" y2="117.707" gradientUnits="userSpaceOnUse">
<stop stop-color="#505FAA"/>
<stop offset="1" stop-color="#8F92C7"/>
</linearGradient>
<linearGradient id="paint53_linear_3223_7845" x1="106.538" y1="107.505" x2="2.93605" y2="121.868" gradientUnits="userSpaceOnUse">
<stop stop-color="#505FAA"/>
<stop offset="1" stop-color="#8F92C7"/>
</linearGradient>
<linearGradient id="paint54_linear_3223_7845" x1="131.519" y1="64.1707" x2="30.5492" y2="78.1693" gradientUnits="userSpaceOnUse">
<stop stop-color="#505FAA"/>
<stop offset="1" stop-color="#8F92C7"/>
</linearGradient>
<linearGradient id="paint55_linear_3223_7845" x1="127.92" y1="68.4531" x2="28.7877" y2="82.197" gradientUnits="userSpaceOnUse">
<stop stop-color="#505FAA"/>
<stop offset="1" stop-color="#8F92C7"/>
</linearGradient>
<linearGradient id="paint56_linear_3223_7845" x1="124.553" y1="72.6243" x2="27.1061" y2="86.1344" gradientUnits="userSpaceOnUse">
<stop stop-color="#505FAA"/>
<stop offset="1" stop-color="#8F92C7"/>
</linearGradient>
<linearGradient id="paint57_linear_3223_7845" x1="121.447" y1="76.6909" x2="25.4938" y2="89.994" gradientUnits="userSpaceOnUse">
<stop stop-color="#505FAA"/>
<stop offset="1" stop-color="#8F92C7"/>
</linearGradient>
<linearGradient id="paint58_linear_3223_7845" x1="100.793" y1="90.8752" x2="31.9809" y2="100.415" gradientUnits="userSpaceOnUse">
<stop stop-color="#505FAA"/>
<stop offset="1" stop-color="#8F92C7"/>
</linearGradient>
<linearGradient id="paint59_linear_3223_7845" x1="108.278" y1="99.6058" x2="15.0394" y2="112.533" gradientUnits="userSpaceOnUse">
<stop stop-color="#505FAA"/>
<stop offset="1" stop-color="#8F92C7"/>
</linearGradient>
<linearGradient id="paint60_linear_3223_7845" x1="106.742" y1="103.348" x2="12.5283" y2="116.41" gradientUnits="userSpaceOnUse">
<stop stop-color="#505FAA"/>
<stop offset="1" stop-color="#8F92C7"/>
</linearGradient>
<linearGradient id="paint61_linear_3223_7845" x1="105.246" y1="107.131" x2="9.5394" y2="120.4" gradientUnits="userSpaceOnUse">
<stop stop-color="#505FAA"/>
<stop offset="1" stop-color="#8F92C7"/>
</linearGradient>
<linearGradient id="paint62_linear_3223_7845" x1="103.705" y1="110.982" x2="5.94599" y2="124.535" gradientUnits="userSpaceOnUse">
<stop stop-color="#505FAA"/>
<stop offset="1" stop-color="#8F92C7"/>
</linearGradient>
</defs>
</svg>
