<svg width="74" height="125" viewBox="0 0 74 125" fill="none" xmlns="http://www.w3.org/2000/svg">
<path d="M29.5869 70.5256L29.0874 76.4209L34.7826 78.4192H34.9737C34.913 75.6199 34.7548 72.8303 34.7012 70.0732L29.5869 70.5256Z" fill="#777777"/>
<path d="M40.9472 69.6025L34.7012 70.0733C34.7551 72.8303 34.913 75.6199 34.9737 78.4193L42.4459 78.4948L40.9472 69.6025Z" fill="#3D3D3D"/>
<path d="M73.0508 114.376C74.8247 119.797 56.7228 124.705 36.5813 124.705C16.4395 124.705 -1.58947 119.82 0.111428 114.376C5.4072 97.4276 16.4395 104.048 36.5813 104.048C56.7225 104.048 67.4555 97.2778 73.0508 114.376Z" fill="#464A4C"/>
<path d="M36.581 117.279C54.5153 117.279 69.054 113.161 69.054 108.082C69.054 103.003 54.5153 98.8857 36.581 98.8857C18.6466 98.8857 4.10797 103.003 4.10797 108.082C4.10797 113.161 18.6466 117.279 36.581 117.279Z" fill="#6B6B6B"/>
<path d="M33.6538 76.8317C33.6538 76.8317 27.3639 74.2455 27.4388 76.5198L26.4647 107.619C26.4647 107.619 29.6869 109.043 31.4104 109.717C32.5344 110.167 32.6845 110.167 33.7335 109.942V76.8224L33.6538 76.8317Z" fill="#A0A0A0"/>
<path d="M43.1007 76.7455C42.876 75.5467 42.6509 75.8463 41.3772 75.9212L33.7335 76.823V109.943C34.4828 109.793 44.8991 107.159 45.4238 106.11C45.7983 105.586 43.4003 77.8694 43.1007 76.7455Z" fill="#777777"/>
<path d="M28.1882 63.8564C26.0152 63.7066 25.1906 65.505 25.2655 67.4535C25.3404 69.177 26.0898 71.0507 27.5886 71.9499C29.0125 72.8491 30.8858 72.924 31.1854 70.826C31.1854 70.826 31.1854 70.751 31.1854 70.6761L28.1882 63.8564Z" fill="#777777"/>
<path d="M38.7164 57.1074C38.3202 59.8393 36.9784 62.7916 36.3562 65.28C35.6817 67.903 34.1832 72.399 36.5063 74.5723C36.8166 74.8542 37.1902 75.0831 37.5915 75.2387C37.9386 75.2345 38.2779 75.2148 38.6044 75.1716C41.9764 74.7218 43.4003 68.5023 44.4497 65.9545C45.5736 63.182 46.6226 60.4091 47.6719 57.7112L38.7164 57.1074Z" fill="#777777"/>
<path d="M36.356 65.2791C36.9782 62.791 38.3201 59.8384 38.7162 57.1065L27.6636 56.3613C27.7385 58.984 26.8393 61.8318 26.6146 64.4545C26.4648 65.9533 26.2401 68.0516 26.315 69.5501C26.3899 71.7233 27.5138 72.4727 29.3875 73.297C31.7096 74.2259 34.9118 75.2698 37.592 75.2375C37.1907 75.0819 36.8171 74.8529 36.5068 74.5711C34.1831 72.3985 35.6816 67.9021 36.356 65.2791Z" fill="#A0A0A0"/>
<path d="M42.762 70.2959C42.2083 72.8205 42.1454 75.4338 38.596 74.1727C36.9106 73.5737 35.8813 71.4324 36.435 68.9085C36.9887 66.384 38.8165 64.9065 40.6014 65.0318C44.1168 65.2788 43.3161 67.7723 42.762 70.2959Z" fill="#A0A0A0"/>
<path d="M43.9612 70.5955C43.4074 73.1197 41.5422 74.8551 39.7951 74.4722C38.0477 74.0886 37.0801 71.732 37.6341 69.2078C38.1875 66.6835 40.0528 64.9481 41.8002 65.3313C43.5469 65.7143 44.5149 68.0713 43.9612 70.5955Z" fill="#BFBFBF"/>
<path d="M43.5993 70.7488C43.1889 72.6205 43.1421 74.5584 40.5103 73.6231C39.2608 73.1794 38.4972 71.5912 38.9076 69.7198C39.3183 67.8478 40.6737 66.7526 41.9969 66.8453C44.6041 67.0287 44.01 68.8771 43.5993 70.7488Z" fill="#A0A0A0"/>
<path d="M44.4885 70.9722C44.0781 72.8439 42.6946 74.1306 41.3992 73.8464C40.1039 73.5623 39.3861 71.8146 39.7968 69.9432C40.2072 68.0709 41.5907 66.7842 42.8861 67.0687C44.1811 67.3525 44.8992 69.1002 44.4885 70.9722Z" fill="#BFBFBF"/>
<path d="M26.8192 55.6197C24.0083 54.489 20.9261 53.14 19.2188 50.5225C16.4443 46.268 17.1843 42.6608 18.109 37.9443C19.1264 32.3024 22.3635 10.6602 24.6756 6.59069C26.9877 2.52152 34.5717 1.87383 38.6412 2.42885C42.9057 2.99226 47.2926 3.87113 51.0799 6.1829C54.0846 8.0165 57.6159 10.1262 58.7343 13.5021C60.1204 17.6859 56.7686 32.3024 56.1213 35.5395C55.1966 40.9038 54.4565 46.1753 52.6068 51.3549C50.6644 56.6264 45.1152 58.2915 39.8436 58.4765C35.7492 58.6202 31.7011 57.5324 27.9167 56.0536C27.5528 55.9109 27.186 55.7673 26.8192 55.6197Z" fill="#383434"/>
<path d="M50.5695 48.9938C50.5695 48.9938 49.2709 48.4442 49.6703 47.4453C49.6703 47.4453 49.8701 46.2962 51.4687 46.7459L55.2553 48.0652C55.3968 47.4998 55.5304 46.9338 55.657 46.3666L51.7683 45.0973C51.7683 45.0973 50.4694 44.5478 50.8691 43.5488C50.8691 43.5488 51.069 42.3997 52.6675 42.8492L56.1407 44.059C56.2653 43.4242 56.3848 42.7888 56.5 42.1514L52.6675 40.9006C52.6675 40.9006 51.3686 40.3511 51.7683 39.3521C51.7683 39.3521 51.9682 38.203 53.5667 38.6525L56.9088 39.8167C57.0173 39.1794 57.1251 38.5404 57.2329 37.9005L53.567 36.7042C53.567 36.7042 52.2681 36.1547 52.6678 35.1557C52.6678 35.1557 52.8677 34.0066 54.4662 34.4561L57.6433 35.5629C57.7447 35.0718 57.8806 34.4302 58.0395 33.6737L54.4666 32.5075C54.4666 32.5075 53.1673 31.958 53.5674 30.959C53.5674 30.959 53.7672 29.8099 55.3654 30.2597L58.518 31.3578C58.6397 30.7572 58.7666 30.1225 58.8948 29.4628L55.3654 28.3111C55.3654 28.3111 54.0668 27.7616 54.4666 26.7623C54.4666 26.7623 54.6664 25.6132 56.2646 26.063L59.3336 27.132C59.4417 26.5357 59.5486 25.9293 59.6522 25.3178L55.965 24.1144C55.965 24.1144 54.6664 23.5649 55.0658 22.5659C55.0658 22.5659 55.2657 21.4168 56.8642 21.8663L60.0284 22.9685C60.1256 22.3202 60.216 21.6748 60.2983 21.0387L56.8642 19.918C56.8642 19.918 55.5656 19.3685 55.965 18.3695C55.965 18.3695 56.1649 17.2204 57.7634 17.6699L60.5669 18.6466C60.824 15.8879 60.8375 13.5071 60.3868 12.1474C59.1786 8.50026 55.3629 6.22109 52.1173 4.24026C48.0252 1.74283 43.2864 0.793261 38.6793 0.184644C34.2831 -0.41461 26.0898 0.284735 23.5918 4.68098C22.9954 5.73065 22.3419 7.86387 21.6781 10.5841C25.1777 10.0513 36.7653 8.95163 50.5695 14.7727C50.5695 14.7727 52.468 15.3723 51.9685 16.6712C51.9685 16.6712 51.7683 17.8704 50.0697 17.2708C50.0697 17.2708 37.9186 11.5885 21.0895 13.128C20.9487 13.7667 20.8083 14.424 20.6685 15.0975C24.0293 14.5722 35.7179 13.3857 49.6703 19.2691C49.6703 19.2691 51.5688 19.8686 51.0693 21.1676C51.0693 21.1676 50.8691 22.3664 49.1705 21.7671C49.1705 21.7671 37.033 15.7975 20.2184 17.3221C20.0905 17.9685 19.964 18.6233 19.8387 19.2833C23.2873 18.7531 34.912 17.6214 48.7711 23.4658C48.7711 23.4658 50.6696 24.0653 50.1701 25.3643C50.1701 25.3643 49.9699 26.5631 48.2713 25.9635C48.2713 25.9635 36.1838 20.0181 19.4228 21.5092C19.3017 22.1681 19.1826 22.8281 19.0651 23.4851C22.6645 23.0196 34.1778 22.1875 47.8719 27.9621C47.8719 27.9621 49.7704 28.5617 49.2709 29.8606C49.2709 29.8606 49.0707 31.0594 47.3721 30.4599C47.3721 30.4599 35.3576 24.2588 18.6757 25.6917C18.5569 26.3723 18.441 27.0452 18.3273 27.707C21.6481 27.2889 32.7159 26.5011 47.2723 31.8586C47.2723 31.8586 49.1708 32.4581 48.671 33.757C48.671 33.757 48.4708 34.9559 46.7725 34.3566C46.7725 34.3566 35.2017 29.0609 17.9014 30.218C17.7849 30.9112 17.6725 31.5835 17.5647 32.2295C21.1505 31.908 32.6112 31.4198 46.3731 36.3549C46.3731 36.3549 48.2716 36.9545 47.7718 38.2534C47.7718 38.2534 47.5716 39.4522 45.8733 38.853C45.8733 38.853 33.873 32.9495 17.2066 34.3815C17.0859 35.1096 16.9725 35.787 16.8695 36.3991C20.6562 36.0582 31.8877 35.6317 45.4739 40.5516C45.4739 40.5516 47.3724 41.1512 46.8726 42.4501C46.8726 42.4501 46.6724 43.6489 44.9741 43.0497C44.9741 43.0497 33.4733 37.9053 16.4873 38.6069C16.362 39.2459 16.2403 39.8655 16.1289 40.4706C20.3146 40.5726 32.4601 41.2067 44.5747 45.0479C44.5747 45.0479 46.4732 45.6475 45.9734 46.9464C45.9734 46.9464 45.7732 48.1456 44.0749 47.546C44.0749 47.546 33.5098 43.7277 15.8196 42.3429C15.3414 45.737 15.4841 48.7494 17.6967 52.1421C19.541 54.9702 22.8708 56.4273 25.9074 57.6491C26.3036 57.8086 26.6998 57.9639 27.0933 58.1175C31.1819 59.7154 35.5552 60.8904 39.9786 60.7351C45.6741 60.5352 51.6689 58.7368 53.7672 53.0413C54.0898 52.1382 54.3781 51.2323 54.6441 50.324L50.5695 48.9938Z" fill="#A0A0A0"/>
<mask id="mask0_3223_8046" style="mask-type:luminance" maskUnits="userSpaceOnUse" x="15" y="0" width="46" height="61">
<path d="M50.5694 48.9938C50.5694 48.9938 49.2708 48.4442 49.6702 47.4453C49.6702 47.4453 49.87 46.2962 51.4686 46.7459L55.2552 48.0652C55.3966 47.4998 55.5303 46.9338 55.6569 46.3666L51.7682 45.0973C51.7682 45.0973 50.4693 44.5478 50.869 43.5488C50.869 43.5488 51.0688 42.3997 52.6674 42.8492L56.1405 44.059C56.2652 43.4242 56.3846 42.7888 56.4999 42.1514L52.6674 40.9006C52.6674 40.9006 51.3685 40.3511 51.7682 39.3521C51.7682 39.3521 51.9681 38.203 53.5666 38.6525L56.9087 39.8167C57.0171 39.1794 57.125 38.5404 57.2328 37.9005L53.5669 36.7042C53.5669 36.7042 52.268 36.1547 52.6677 35.1557C52.6677 35.1557 52.8676 34.0066 54.4661 34.4561L57.6432 35.5629C57.7446 35.0718 57.8805 34.4302 58.0394 33.6737L54.4664 32.5075C54.4664 32.5075 53.1672 31.958 53.5672 30.959C53.5672 30.959 53.7671 29.8099 55.3653 30.2597L58.5179 31.3578C58.6396 30.7572 58.7665 30.1225 58.8947 29.4628L55.3653 28.3111C55.3653 28.3111 54.0667 27.7616 54.4664 26.7623C54.4664 26.7623 54.6663 25.6132 56.2645 26.063L59.3334 27.132C59.4416 26.5357 59.5485 25.9293 59.6521 25.3178L55.9649 24.1144C55.9649 24.1144 54.6663 23.5649 55.0657 22.5659C55.0657 22.5659 55.2656 21.4168 56.8641 21.8663L60.0283 22.9685C60.1255 22.3202 60.2159 21.6748 60.2982 21.0387L56.8641 19.918C56.8641 19.918 55.5655 19.3685 55.9649 18.3695C55.9649 18.3695 56.1648 17.2204 57.7633 17.6699L60.5668 18.6466C60.8238 15.8879 60.8374 13.5071 60.3867 12.1474C59.1785 8.50026 55.3627 6.22109 52.1172 4.24026C48.0251 1.74283 43.2863 0.793261 38.6792 0.184644C34.283 -0.41461 26.0897 0.284735 23.5916 4.68098C22.9953 5.73065 22.3418 7.86387 21.678 10.5841C25.1776 10.0513 36.7652 8.95163 50.5694 14.7727C50.5694 14.7727 52.4679 15.3723 51.9684 16.6712C51.9684 16.6712 51.7682 17.8704 50.0695 17.2708C50.0695 17.2708 37.9185 11.5885 21.0894 13.128C20.9486 13.7667 20.8082 14.424 20.6683 15.0975C24.0291 14.5722 35.7178 13.3857 49.6702 19.2691C49.6702 19.2691 51.5687 19.8686 51.0692 21.1676C51.0692 21.1676 50.869 22.3664 49.1703 21.7671C49.1703 21.7671 37.0329 15.7975 20.2183 17.3221C20.0904 17.9685 19.9638 18.6233 19.8386 19.2833C23.2872 18.7531 34.9119 17.6214 48.7709 23.4658C48.7709 23.4658 50.6694 24.0653 50.17 25.3643C50.17 25.3643 49.9698 26.5631 48.2711 25.9635C48.2711 25.9635 36.1837 20.0181 19.4227 21.5092C19.3016 22.1681 19.1825 22.8281 19.065 23.4851C22.6644 23.0196 34.1777 22.1875 47.8718 27.9621C47.8718 27.9621 49.7702 28.5617 49.2708 29.8606C49.2708 29.8606 49.0706 31.0594 47.3719 30.4599C47.3719 30.4599 35.3575 24.2588 18.6756 25.6917C18.5568 26.3723 18.4408 27.0452 18.3272 27.707C21.648 27.2889 32.7157 26.5011 47.2722 31.8586C47.2722 31.8586 49.1707 32.4581 48.6709 33.757C48.6709 33.757 48.4707 34.9559 46.7724 34.3566C46.7724 34.3566 35.2015 29.0609 17.9013 30.218C17.7848 30.9112 17.6724 31.5835 17.5646 32.2295C21.1504 31.908 32.6111 31.4198 46.373 36.3549C46.373 36.3549 48.2715 36.9545 47.7717 38.2534C47.7717 38.2534 47.5715 39.4522 45.8732 38.853C45.8732 38.853 33.8729 32.9495 17.2065 34.3815C17.0857 35.1096 16.9724 35.787 16.8694 36.3991C20.6561 36.0582 31.8876 35.6317 45.4738 40.5516C45.4738 40.5516 47.3723 41.1512 46.8725 42.4501C46.8725 42.4501 46.6723 43.6489 44.974 43.0497C44.974 43.0497 33.4732 37.9053 16.4871 38.6069C16.3619 39.2459 16.2401 39.8655 16.1287 40.4706C20.3145 40.5726 32.46 41.2067 44.5746 45.0479C44.5746 45.0479 46.4731 45.6475 45.9733 46.9464C45.9733 46.9464 45.7731 48.1456 44.0748 47.546C44.0748 47.546 33.5097 43.7277 15.8194 42.3429C15.3413 45.737 15.484 48.7494 17.6966 52.1421C19.5409 54.9702 22.8707 56.4273 25.9073 57.6491C26.3035 57.8086 26.6996 57.9639 27.0932 58.1175C31.1818 59.7154 35.5551 60.8904 39.9785 60.7351C45.6739 60.5352 51.6687 58.7368 53.7671 53.0413C54.0897 52.1382 54.378 51.2323 54.644 50.324L50.5694 48.9938Z" fill="white"/>
</mask>
<g mask="url(#mask0_3223_8046)">
<g opacity="0.5">
<path d="M10.2031 43.5479C11.4022 48.8433 17.8968 50.6417 22.3928 51.941C27.4884 53.4397 32.7842 54.8384 38.08 54.8384C45.8735 54.9385 53.1672 52.2406 59.2621 47.3445C58.3629 51.0414 57.5635 53.7394 54.7658 56.5371C53.0671 58.3355 51.4686 60.1342 49.1704 61.1332C46.1728 62.332 42.7759 62.6319 39.6782 63.3313C31.7849 65.1297 22.7926 63.8308 15.7985 59.3348C12.7011 57.3365 10.8026 54.439 9.60381 51.0418C9.10433 49.543 9.10433 47.4446 8.10503 46.2458C8.10503 46.1457 8.10503 46.1457 8.00494 46.0459L10.2031 43.5479Z" fill="#A0A0A0"/>
</g>
</g>
<mask id="mask1_3223_8046" style="mask-type:luminance" maskUnits="userSpaceOnUse" x="15" y="0" width="46" height="61">
<path d="M50.5694 48.9938C50.5694 48.9938 49.2708 48.4442 49.6702 47.4453C49.6702 47.4453 49.87 46.2962 51.4686 46.7459L55.2552 48.0652C55.3966 47.4998 55.5303 46.9338 55.6569 46.3666L51.7682 45.0973C51.7682 45.0973 50.4693 44.5478 50.869 43.5488C50.869 43.5488 51.0688 42.3997 52.6674 42.8492L56.1405 44.059C56.2652 43.4242 56.3846 42.7888 56.4999 42.1514L52.6674 40.9006C52.6674 40.9006 51.3685 40.3511 51.7682 39.3521C51.7682 39.3521 51.9681 38.203 53.5666 38.6525L56.9087 39.8167C57.0171 39.1794 57.125 38.5404 57.2328 37.9005L53.5669 36.7042C53.5669 36.7042 52.268 36.1547 52.6677 35.1557C52.6677 35.1557 52.8676 34.0066 54.4661 34.4561L57.6432 35.5629C57.7446 35.0718 57.8805 34.4302 58.0394 33.6737L54.4664 32.5075C54.4664 32.5075 53.1672 31.958 53.5672 30.959C53.5672 30.959 53.7671 29.8099 55.3653 30.2597L58.5179 31.3578C58.6396 30.7572 58.7665 30.1225 58.8947 29.4628L55.3653 28.3111C55.3653 28.3111 54.0667 27.7616 54.4664 26.7623C54.4664 26.7623 54.6663 25.6132 56.2645 26.063L59.3334 27.132C59.4416 26.5357 59.5485 25.9293 59.6521 25.3178L55.9649 24.1144C55.9649 24.1144 54.6663 23.5649 55.0657 22.5659C55.0657 22.5659 55.2656 21.4168 56.8641 21.8663L60.0283 22.9685C60.1255 22.3202 60.2159 21.6748 60.2982 21.0387L56.8641 19.918C56.8641 19.918 55.5655 19.3685 55.9649 18.3695C55.9649 18.3695 56.1648 17.2204 57.7633 17.6699L60.5668 18.6466C60.8238 15.8879 60.8374 13.5071 60.3867 12.1474C59.1785 8.50026 55.3627 6.22109 52.1172 4.24026C48.0251 1.74283 43.2863 0.793261 38.6792 0.184644C34.283 -0.41461 26.0897 0.284735 23.5916 4.68098C22.9953 5.73065 22.3418 7.86387 21.678 10.5841C25.1776 10.0513 36.7652 8.95163 50.5694 14.7727C50.5694 14.7727 52.4679 15.3723 51.9684 16.6712C51.9684 16.6712 51.7682 17.8704 50.0695 17.2708C50.0695 17.2708 37.9185 11.5885 21.0894 13.128C20.9486 13.7667 20.8082 14.424 20.6683 15.0975C24.0291 14.5722 35.7178 13.3857 49.6702 19.2691C49.6702 19.2691 51.5687 19.8686 51.0692 21.1676C51.0692 21.1676 50.869 22.3664 49.1703 21.7671C49.1703 21.7671 37.0329 15.7975 20.2183 17.3221C20.0904 17.9685 19.9638 18.6233 19.8386 19.2833C23.2872 18.7531 34.9119 17.6214 48.7709 23.4658C48.7709 23.4658 50.6694 24.0653 50.17 25.3643C50.17 25.3643 49.9698 26.5631 48.2711 25.9635C48.2711 25.9635 36.1837 20.0181 19.4227 21.5092C19.3016 22.1681 19.1825 22.8281 19.065 23.4851C22.6644 23.0196 34.1777 22.1875 47.8718 27.9621C47.8718 27.9621 49.7702 28.5617 49.2708 29.8606C49.2708 29.8606 49.0706 31.0594 47.3719 30.4599C47.3719 30.4599 35.3575 24.2588 18.6756 25.6917C18.5568 26.3723 18.4408 27.0452 18.3272 27.707C21.648 27.2889 32.7157 26.5011 47.2722 31.8586C47.2722 31.8586 49.1707 32.4581 48.6709 33.757C48.6709 33.757 48.4707 34.9559 46.7724 34.3566C46.7724 34.3566 35.2015 29.0609 17.9013 30.218C17.7848 30.9112 17.6724 31.5835 17.5646 32.2295C21.1504 31.908 32.6111 31.4198 46.373 36.3549C46.373 36.3549 48.2715 36.9545 47.7717 38.2534C47.7717 38.2534 47.5715 39.4522 45.8732 38.853C45.8732 38.853 33.8729 32.9495 17.2065 34.3815C17.0857 35.1096 16.9724 35.787 16.8694 36.3991C20.6561 36.0582 31.8876 35.6317 45.4738 40.5516C45.4738 40.5516 47.3723 41.1512 46.8725 42.4501C46.8725 42.4501 46.6723 43.6489 44.974 43.0497C44.974 43.0497 33.4732 37.9053 16.4871 38.6069C16.3619 39.2459 16.2401 39.8655 16.1287 40.4706C20.3145 40.5726 32.46 41.2067 44.5746 45.0479C44.5746 45.0479 46.4731 45.6475 45.9733 46.9464C45.9733 46.9464 45.7731 48.1456 44.0748 47.546C44.0748 47.546 33.5097 43.7277 15.8194 42.3429C15.3413 45.737 15.484 48.7494 17.6966 52.1421C19.5409 54.9702 22.8707 56.4273 25.9073 57.6491C26.3035 57.8086 26.6996 57.9639 27.0932 58.1175C31.1818 59.7154 35.5551 60.8904 39.9785 60.7351C45.6739 60.5352 51.6687 58.7368 53.7671 53.0413C54.0897 52.1382 54.378 51.2323 54.644 50.324L50.5694 48.9938Z" fill="white"/>
</mask>
<g mask="url(#mask1_3223_8046)">
<path d="M45.1742 60.8335C41.9768 59.7345 38.6796 58.7352 36.681 55.7376C33.9834 51.641 35.0825 47.2447 35.7818 42.7487C36.7811 36.8534 38.08 31.0584 39.379 25.2632C40.3783 20.4672 40.9778 15.4714 42.3762 10.8749C43.7752 5.97889 46.5729 2.28199 51.8684 1.7825C53.8666 1.58264 57.2639 1.58264 56.4645 4.48043C55.5653 7.57776 51.4686 6.67856 49.3703 8.17734C46.2726 10.0758 49.8698 12.7734 49.1704 15.4714C48.371 18.4689 44.8739 18.4689 45.5733 21.8659C45.8732 23.1648 46.3731 24.6636 46.0731 26.0626C45.6734 27.4613 44.4742 28.2607 43.6751 29.3598C41.7763 31.9576 44.3741 33.9559 42.8754 36.5537C41.3766 39.1516 39.3783 39.951 40.078 43.1481C40.2775 44.3473 40.8771 45.5461 40.2775 46.7452C39.6779 47.9444 38.379 48.244 38.0794 49.7428C37.8792 51.0417 38.5789 51.9409 39.0784 53.04C39.5782 54.3389 39.0784 55.1383 39.1785 56.3372C39.378 58.5353 42.1757 59.1349 43.9744 60.1342C44.4746 60.334 44.8743 60.4341 45.1742 60.8335Z" fill="url(#paint0_linear_3223_8046)"/>
</g>
<mask id="mask2_3223_8046" style="mask-type:luminance" maskUnits="userSpaceOnUse" x="15" y="0" width="46" height="61">
<path d="M50.5694 48.9938C50.5694 48.9938 49.2708 48.4442 49.6702 47.4453C49.6702 47.4453 49.87 46.2962 51.4686 46.7459L55.2552 48.0652C55.3966 47.4998 55.5303 46.9338 55.6569 46.3666L51.7682 45.0973C51.7682 45.0973 50.4693 44.5478 50.869 43.5488C50.869 43.5488 51.0688 42.3997 52.6674 42.8492L56.1405 44.059C56.2652 43.4242 56.3846 42.7888 56.4999 42.1514L52.6674 40.9006C52.6674 40.9006 51.3685 40.3511 51.7682 39.3521C51.7682 39.3521 51.9681 38.203 53.5666 38.6525L56.9087 39.8167C57.0171 39.1794 57.125 38.5404 57.2328 37.9005L53.5669 36.7042C53.5669 36.7042 52.268 36.1547 52.6677 35.1557C52.6677 35.1557 52.8676 34.0066 54.4661 34.4561L57.6432 35.5629C57.7446 35.0718 57.8805 34.4302 58.0394 33.6737L54.4664 32.5075C54.4664 32.5075 53.1672 31.958 53.5672 30.959C53.5672 30.959 53.7671 29.8099 55.3653 30.2597L58.5179 31.3578C58.6396 30.7572 58.7665 30.1225 58.8947 29.4628L55.3653 28.3111C55.3653 28.3111 54.0667 27.7616 54.4664 26.7623C54.4664 26.7623 54.6663 25.6132 56.2645 26.063L59.3334 27.132C59.4416 26.5357 59.5485 25.9293 59.6521 25.3178L55.9649 24.1144C55.9649 24.1144 54.6663 23.5649 55.0657 22.5659C55.0657 22.5659 55.2656 21.4168 56.8641 21.8663L60.0283 22.9685C60.1255 22.3202 60.2159 21.6748 60.2982 21.0387L56.8641 19.918C56.8641 19.918 55.5655 19.3685 55.9649 18.3695C55.9649 18.3695 56.1648 17.2204 57.7633 17.6699L60.5668 18.6466C60.8238 15.8879 60.8374 13.5071 60.3867 12.1474C59.1785 8.50026 55.3627 6.22109 52.1172 4.24026C48.0251 1.74283 43.2863 0.793261 38.6792 0.184644C34.283 -0.41461 26.0897 0.284735 23.5916 4.68098C22.9953 5.73065 22.3418 7.86387 21.678 10.5841C25.1776 10.0513 36.7652 8.95163 50.5694 14.7727C50.5694 14.7727 52.4679 15.3723 51.9684 16.6712C51.9684 16.6712 51.7682 17.8704 50.0695 17.2708C50.0695 17.2708 37.9185 11.5885 21.0894 13.128C20.9486 13.7667 20.8082 14.424 20.6683 15.0975C24.0291 14.5722 35.7178 13.3857 49.6702 19.2691C49.6702 19.2691 51.5687 19.8686 51.0692 21.1676C51.0692 21.1676 50.869 22.3664 49.1703 21.7671C49.1703 21.7671 37.0329 15.7975 20.2183 17.3221C20.0904 17.9685 19.9638 18.6233 19.8386 19.2833C23.2872 18.7531 34.9119 17.6214 48.7709 23.4658C48.7709 23.4658 50.6694 24.0653 50.17 25.3643C50.17 25.3643 49.9698 26.5631 48.2711 25.9635C48.2711 25.9635 36.1837 20.0181 19.4227 21.5092C19.3016 22.1681 19.1825 22.8281 19.065 23.4851C22.6644 23.0196 34.1777 22.1875 47.8718 27.9621C47.8718 27.9621 49.7702 28.5617 49.2708 29.8606C49.2708 29.8606 49.0706 31.0594 47.3719 30.4599C47.3719 30.4599 35.3575 24.2588 18.6756 25.6917C18.5568 26.3723 18.4408 27.0452 18.3272 27.707C21.648 27.2889 32.7157 26.5011 47.2722 31.8586C47.2722 31.8586 49.1707 32.4581 48.6709 33.757C48.6709 33.757 48.4707 34.9559 46.7724 34.3566C46.7724 34.3566 35.2015 29.0609 17.9013 30.218C17.7848 30.9112 17.6724 31.5835 17.5646 32.2295C21.1504 31.908 32.6111 31.4198 46.373 36.3549C46.373 36.3549 48.2715 36.9545 47.7717 38.2534C47.7717 38.2534 47.5715 39.4522 45.8732 38.853C45.8732 38.853 33.8729 32.9495 17.2065 34.3815C17.0857 35.1096 16.9724 35.787 16.8694 36.3991C20.6561 36.0582 31.8876 35.6317 45.4738 40.5516C45.4738 40.5516 47.3723 41.1512 46.8725 42.4501C46.8725 42.4501 46.6723 43.6489 44.974 43.0497C44.974 43.0497 33.4732 37.9053 16.4871 38.6069C16.3619 39.2459 16.2401 39.8655 16.1287 40.4706C20.3145 40.5726 32.46 41.2067 44.5746 45.0479C44.5746 45.0479 46.4731 45.6475 45.9733 46.9464C45.9733 46.9464 45.7731 48.1456 44.0748 47.546C44.0748 47.546 33.5097 43.7277 15.8194 42.3429C15.3413 45.737 15.484 48.7494 17.6966 52.1421C19.5409 54.9702 22.8707 56.4273 25.9073 57.6491C26.3035 57.8086 26.6996 57.9639 27.0932 58.1175C31.1818 59.7154 35.5551 60.8904 39.9785 60.7351C45.6739 60.5352 51.6687 58.7368 53.7671 53.0413C54.0897 52.1382 54.378 51.2323 54.644 50.324L50.5694 48.9938Z" fill="white"/>
</mask>
<g mask="url(#mask2_3223_8046)">
<path d="M30.3864 0.133789C28.7875 0.183512 27.189 1.63257 26.2397 2.78135C25.4903 3.7306 24.8907 4.57976 24.791 5.77891C24.5911 7.5276 25.9401 7.17792 26.4399 5.879C27.2393 3.98051 28.588 0.733365 30.8361 0.183834L30.3864 0.133789Z" fill="#383434"/>
</g>
<mask id="mask3_3223_8046" style="mask-type:luminance" maskUnits="userSpaceOnUse" x="15" y="0" width="46" height="61">
<path d="M50.5694 48.9938C50.5694 48.9938 49.2708 48.4442 49.6702 47.4453C49.6702 47.4453 49.87 46.2962 51.4686 46.7459L55.2552 48.0652C55.3966 47.4998 55.5303 46.9338 55.6569 46.3666L51.7682 45.0973C51.7682 45.0973 50.4693 44.5478 50.869 43.5488C50.869 43.5488 51.0688 42.3997 52.6674 42.8492L56.1405 44.059C56.2652 43.4242 56.3846 42.7888 56.4999 42.1514L52.6674 40.9006C52.6674 40.9006 51.3685 40.3511 51.7682 39.3521C51.7682 39.3521 51.9681 38.203 53.5666 38.6525L56.9087 39.8167C57.0171 39.1794 57.125 38.5404 57.2328 37.9005L53.5669 36.7042C53.5669 36.7042 52.268 36.1547 52.6677 35.1557C52.6677 35.1557 52.8676 34.0066 54.4661 34.4561L57.6432 35.5629C57.7446 35.0718 57.8805 34.4302 58.0394 33.6737L54.4664 32.5075C54.4664 32.5075 53.1672 31.958 53.5672 30.959C53.5672 30.959 53.7671 29.8099 55.3653 30.2597L58.5179 31.3578C58.6396 30.7572 58.7665 30.1225 58.8947 29.4628L55.3653 28.3111C55.3653 28.3111 54.0667 27.7616 54.4664 26.7623C54.4664 26.7623 54.6663 25.6132 56.2645 26.063L59.3334 27.132C59.4416 26.5357 59.5485 25.9293 59.6521 25.3178L55.9649 24.1144C55.9649 24.1144 54.6663 23.5649 55.0657 22.5659C55.0657 22.5659 55.2656 21.4168 56.8641 21.8663L60.0283 22.9685C60.1255 22.3202 60.2159 21.6748 60.2982 21.0387L56.8641 19.918C56.8641 19.918 55.5655 19.3685 55.9649 18.3695C55.9649 18.3695 56.1648 17.2204 57.7633 17.6699L60.5668 18.6466C60.8238 15.8879 60.8374 13.5071 60.3867 12.1474C59.1785 8.50026 55.3627 6.22109 52.1172 4.24026C48.0251 1.74283 43.2863 0.793261 38.6792 0.184644C34.283 -0.41461 26.0897 0.284735 23.5916 4.68098C22.9953 5.73065 22.3418 7.86387 21.678 10.5841C25.1776 10.0513 36.7652 8.95163 50.5694 14.7727C50.5694 14.7727 52.4679 15.3723 51.9684 16.6712C51.9684 16.6712 51.7682 17.8704 50.0695 17.2708C50.0695 17.2708 37.9185 11.5885 21.0894 13.128C20.9486 13.7667 20.8082 14.424 20.6683 15.0975C24.0291 14.5722 35.7178 13.3857 49.6702 19.2691C49.6702 19.2691 51.5687 19.8686 51.0692 21.1676C51.0692 21.1676 50.869 22.3664 49.1703 21.7671C49.1703 21.7671 37.0329 15.7975 20.2183 17.3221C20.0904 17.9685 19.9638 18.6233 19.8386 19.2833C23.2872 18.7531 34.9119 17.6214 48.7709 23.4658C48.7709 23.4658 50.6694 24.0653 50.17 25.3643C50.17 25.3643 49.9698 26.5631 48.2711 25.9635C48.2711 25.9635 36.1837 20.0181 19.4227 21.5092C19.3016 22.1681 19.1825 22.8281 19.065 23.4851C22.6644 23.0196 34.1777 22.1875 47.8718 27.9621C47.8718 27.9621 49.7702 28.5617 49.2708 29.8606C49.2708 29.8606 49.0706 31.0594 47.3719 30.4599C47.3719 30.4599 35.3575 24.2588 18.6756 25.6917C18.5568 26.3723 18.4408 27.0452 18.3272 27.707C21.648 27.2889 32.7157 26.5011 47.2722 31.8586C47.2722 31.8586 49.1707 32.4581 48.6709 33.757C48.6709 33.757 48.4707 34.9559 46.7724 34.3566C46.7724 34.3566 35.2015 29.0609 17.9013 30.218C17.7848 30.9112 17.6724 31.5835 17.5646 32.2295C21.1504 31.908 32.6111 31.4198 46.373 36.3549C46.373 36.3549 48.2715 36.9545 47.7717 38.2534C47.7717 38.2534 47.5715 39.4522 45.8732 38.853C45.8732 38.853 33.8729 32.9495 17.2065 34.3815C17.0857 35.1096 16.9724 35.787 16.8694 36.3991C20.6561 36.0582 31.8876 35.6317 45.4738 40.5516C45.4738 40.5516 47.3723 41.1512 46.8725 42.4501C46.8725 42.4501 46.6723 43.6489 44.974 43.0497C44.974 43.0497 33.4732 37.9053 16.4871 38.6069C16.3619 39.2459 16.2401 39.8655 16.1287 40.4706C20.3145 40.5726 32.46 41.2067 44.5746 45.0479C44.5746 45.0479 46.4731 45.6475 45.9733 46.9464C45.9733 46.9464 45.7731 48.1456 44.0748 47.546C44.0748 47.546 33.5097 43.7277 15.8194 42.3429C15.3413 45.737 15.484 48.7494 17.6966 52.1421C19.5409 54.9702 22.8707 56.4273 25.9073 57.6491C26.3035 57.8086 26.6996 57.9639 27.0932 58.1175C31.1818 59.7154 35.5551 60.8904 39.9785 60.7351C45.6739 60.5352 51.6687 58.7368 53.7671 53.0413C54.0897 52.1382 54.378 51.2323 54.644 50.324L50.5694 48.9938Z" fill="white"/>
</mask>
<g mask="url(#mask3_3223_8046)">
<path d="M32.1349 0.0347372C30.2865 0.4845 29.1374 2.08305 28.3379 3.78169C28.0883 4.43099 27.1888 6.42957 28.0383 6.87901C29.1374 7.42854 29.6869 4.98052 29.8867 4.38126C30.4863 2.48277 32.4846 0.184551 34.5329 -0.214844L32.1349 0.0347372Z" fill="#383434"/>
</g>
<mask id="mask4_3223_8046" style="mask-type:luminance" maskUnits="userSpaceOnUse" x="15" y="0" width="46" height="61">
<path d="M50.5694 48.9938C50.5694 48.9938 49.2708 48.4442 49.6702 47.4453C49.6702 47.4453 49.87 46.2962 51.4686 46.7459L55.2552 48.0652C55.3966 47.4998 55.5303 46.9338 55.6569 46.3666L51.7682 45.0973C51.7682 45.0973 50.4693 44.5478 50.869 43.5488C50.869 43.5488 51.0688 42.3997 52.6674 42.8492L56.1405 44.059C56.2652 43.4242 56.3846 42.7888 56.4999 42.1514L52.6674 40.9006C52.6674 40.9006 51.3685 40.3511 51.7682 39.3521C51.7682 39.3521 51.9681 38.203 53.5666 38.6525L56.9087 39.8167C57.0171 39.1794 57.125 38.5404 57.2328 37.9005L53.5669 36.7042C53.5669 36.7042 52.268 36.1547 52.6677 35.1557C52.6677 35.1557 52.8676 34.0066 54.4661 34.4561L57.6432 35.5629C57.7446 35.0718 57.8805 34.4302 58.0394 33.6737L54.4664 32.5075C54.4664 32.5075 53.1672 31.958 53.5672 30.959C53.5672 30.959 53.7671 29.8099 55.3653 30.2597L58.5179 31.3578C58.6396 30.7572 58.7665 30.1225 58.8947 29.4628L55.3653 28.3111C55.3653 28.3111 54.0667 27.7616 54.4664 26.7623C54.4664 26.7623 54.6663 25.6132 56.2645 26.063L59.3334 27.132C59.4416 26.5357 59.5485 25.9293 59.6521 25.3178L55.9649 24.1144C55.9649 24.1144 54.6663 23.5649 55.0657 22.5659C55.0657 22.5659 55.2656 21.4168 56.8641 21.8663L60.0283 22.9685C60.1255 22.3202 60.2159 21.6748 60.2982 21.0387L56.8641 19.918C56.8641 19.918 55.5655 19.3685 55.9649 18.3695C55.9649 18.3695 56.1648 17.2204 57.7633 17.6699L60.5668 18.6466C60.8238 15.8879 60.8374 13.5071 60.3867 12.1474C59.1785 8.50026 55.3627 6.22109 52.1172 4.24026C48.0251 1.74283 43.2863 0.793261 38.6792 0.184644C34.283 -0.41461 26.0897 0.284735 23.5916 4.68098C22.9953 5.73065 22.3418 7.86387 21.678 10.5841C25.1776 10.0513 36.7652 8.95163 50.5694 14.7727C50.5694 14.7727 52.4679 15.3723 51.9684 16.6712C51.9684 16.6712 51.7682 17.8704 50.0695 17.2708C50.0695 17.2708 37.9185 11.5885 21.0894 13.128C20.9486 13.7667 20.8082 14.424 20.6683 15.0975C24.0291 14.5722 35.7178 13.3857 49.6702 19.2691C49.6702 19.2691 51.5687 19.8686 51.0692 21.1676C51.0692 21.1676 50.869 22.3664 49.1703 21.7671C49.1703 21.7671 37.0329 15.7975 20.2183 17.3221C20.0904 17.9685 19.9638 18.6233 19.8386 19.2833C23.2872 18.7531 34.9119 17.6214 48.7709 23.4658C48.7709 23.4658 50.6694 24.0653 50.17 25.3643C50.17 25.3643 49.9698 26.5631 48.2711 25.9635C48.2711 25.9635 36.1837 20.0181 19.4227 21.5092C19.3016 22.1681 19.1825 22.8281 19.065 23.4851C22.6644 23.0196 34.1777 22.1875 47.8718 27.9621C47.8718 27.9621 49.7702 28.5617 49.2708 29.8606C49.2708 29.8606 49.0706 31.0594 47.3719 30.4599C47.3719 30.4599 35.3575 24.2588 18.6756 25.6917C18.5568 26.3723 18.4408 27.0452 18.3272 27.707C21.648 27.2889 32.7157 26.5011 47.2722 31.8586C47.2722 31.8586 49.1707 32.4581 48.6709 33.757C48.6709 33.757 48.4707 34.9559 46.7724 34.3566C46.7724 34.3566 35.2015 29.0609 17.9013 30.218C17.7848 30.9112 17.6724 31.5835 17.5646 32.2295C21.1504 31.908 32.6111 31.4198 46.373 36.3549C46.373 36.3549 48.2715 36.9545 47.7717 38.2534C47.7717 38.2534 47.5715 39.4522 45.8732 38.853C45.8732 38.853 33.8729 32.9495 17.2065 34.3815C17.0857 35.1096 16.9724 35.787 16.8694 36.3991C20.6561 36.0582 31.8876 35.6317 45.4738 40.5516C45.4738 40.5516 47.3723 41.1512 46.8725 42.4501C46.8725 42.4501 46.6723 43.6489 44.974 43.0497C44.974 43.0497 33.4732 37.9053 16.4871 38.6069C16.3619 39.2459 16.2401 39.8655 16.1287 40.4706C20.3145 40.5726 32.46 41.2067 44.5746 45.0479C44.5746 45.0479 46.4731 45.6475 45.9733 46.9464C45.9733 46.9464 45.7731 48.1456 44.0748 47.546C44.0748 47.546 33.5097 43.7277 15.8194 42.3429C15.3413 45.737 15.484 48.7494 17.6966 52.1421C19.5409 54.9702 22.8707 56.4273 25.9073 57.6491C26.3035 57.8086 26.6996 57.9639 27.0932 58.1175C31.1818 59.7154 35.5551 60.8904 39.9785 60.7351C45.6739 60.5352 51.6687 58.7368 53.7671 53.0413C54.0897 52.1382 54.378 51.2323 54.644 50.324L50.5694 48.9938Z" fill="white"/>
</mask>
<g mask="url(#mask4_3223_8046)">
<path d="M36.3813 -0.265625C34.4828 -0.21558 32.6841 2.13236 31.8849 3.63114C31.5353 4.3308 30.4863 5.97907 31.0855 6.72879C32.1345 8.17752 33.1839 5.92935 33.4334 5.23001C34.2329 3.08161 36.431 -0.0657661 39.0289 -0.115489L36.3813 -0.265625Z" fill="#383434"/>
</g>
<mask id="mask5_3223_8046" style="mask-type:luminance" maskUnits="userSpaceOnUse" x="15" y="0" width="46" height="61">
<path d="M50.5694 48.9938C50.5694 48.9938 49.2708 48.4442 49.6702 47.4453C49.6702 47.4453 49.87 46.2962 51.4686 46.7459L55.2552 48.0652C55.3966 47.4998 55.5303 46.9338 55.6569 46.3666L51.7682 45.0973C51.7682 45.0973 50.4693 44.5478 50.869 43.5488C50.869 43.5488 51.0688 42.3997 52.6674 42.8492L56.1405 44.059C56.2652 43.4242 56.3846 42.7888 56.4999 42.1514L52.6674 40.9006C52.6674 40.9006 51.3685 40.3511 51.7682 39.3521C51.7682 39.3521 51.9681 38.203 53.5666 38.6525L56.9087 39.8167C57.0171 39.1794 57.125 38.5404 57.2328 37.9005L53.5669 36.7042C53.5669 36.7042 52.268 36.1547 52.6677 35.1557C52.6677 35.1557 52.8676 34.0066 54.4661 34.4561L57.6432 35.5629C57.7446 35.0718 57.8805 34.4302 58.0394 33.6737L54.4664 32.5075C54.4664 32.5075 53.1672 31.958 53.5672 30.959C53.5672 30.959 53.7671 29.8099 55.3653 30.2597L58.5179 31.3578C58.6396 30.7572 58.7665 30.1225 58.8947 29.4628L55.3653 28.3111C55.3653 28.3111 54.0667 27.7616 54.4664 26.7623C54.4664 26.7623 54.6663 25.6132 56.2645 26.063L59.3334 27.132C59.4416 26.5357 59.5485 25.9293 59.6521 25.3178L55.9649 24.1144C55.9649 24.1144 54.6663 23.5649 55.0657 22.5659C55.0657 22.5659 55.2656 21.4168 56.8641 21.8663L60.0283 22.9685C60.1255 22.3202 60.2159 21.6748 60.2982 21.0387L56.8641 19.918C56.8641 19.918 55.5655 19.3685 55.9649 18.3695C55.9649 18.3695 56.1648 17.2204 57.7633 17.6699L60.5668 18.6466C60.8238 15.8879 60.8374 13.5071 60.3867 12.1474C59.1785 8.50026 55.3627 6.22109 52.1172 4.24026C48.0251 1.74283 43.2863 0.793261 38.6792 0.184644C34.283 -0.41461 26.0897 0.284735 23.5916 4.68098C22.9953 5.73065 22.3418 7.86387 21.678 10.5841C25.1776 10.0513 36.7652 8.95163 50.5694 14.7727C50.5694 14.7727 52.4679 15.3723 51.9684 16.6712C51.9684 16.6712 51.7682 17.8704 50.0695 17.2708C50.0695 17.2708 37.9185 11.5885 21.0894 13.128C20.9486 13.7667 20.8082 14.424 20.6683 15.0975C24.0291 14.5722 35.7178 13.3857 49.6702 19.2691C49.6702 19.2691 51.5687 19.8686 51.0692 21.1676C51.0692 21.1676 50.869 22.3664 49.1703 21.7671C49.1703 21.7671 37.0329 15.7975 20.2183 17.3221C20.0904 17.9685 19.9638 18.6233 19.8386 19.2833C23.2872 18.7531 34.9119 17.6214 48.7709 23.4658C48.7709 23.4658 50.6694 24.0653 50.17 25.3643C50.17 25.3643 49.9698 26.5631 48.2711 25.9635C48.2711 25.9635 36.1837 20.0181 19.4227 21.5092C19.3016 22.1681 19.1825 22.8281 19.065 23.4851C22.6644 23.0196 34.1777 22.1875 47.8718 27.9621C47.8718 27.9621 49.7702 28.5617 49.2708 29.8606C49.2708 29.8606 49.0706 31.0594 47.3719 30.4599C47.3719 30.4599 35.3575 24.2588 18.6756 25.6917C18.5568 26.3723 18.4408 27.0452 18.3272 27.707C21.648 27.2889 32.7157 26.5011 47.2722 31.8586C47.2722 31.8586 49.1707 32.4581 48.6709 33.757C48.6709 33.757 48.4707 34.9559 46.7724 34.3566C46.7724 34.3566 35.2015 29.0609 17.9013 30.218C17.7848 30.9112 17.6724 31.5835 17.5646 32.2295C21.1504 31.908 32.6111 31.4198 46.373 36.3549C46.373 36.3549 48.2715 36.9545 47.7717 38.2534C47.7717 38.2534 47.5715 39.4522 45.8732 38.853C45.8732 38.853 33.8729 32.9495 17.2065 34.3815C17.0857 35.1096 16.9724 35.787 16.8694 36.3991C20.6561 36.0582 31.8876 35.6317 45.4738 40.5516C45.4738 40.5516 47.3723 41.1512 46.8725 42.4501C46.8725 42.4501 46.6723 43.6489 44.974 43.0497C44.974 43.0497 33.4732 37.9053 16.4871 38.6069C16.3619 39.2459 16.2401 39.8655 16.1287 40.4706C20.3145 40.5726 32.46 41.2067 44.5746 45.0479C44.5746 45.0479 46.4731 45.6475 45.9733 46.9464C45.9733 46.9464 45.7731 48.1456 44.0748 47.546C44.0748 47.546 33.5097 43.7277 15.8194 42.3429C15.3413 45.737 15.484 48.7494 17.6966 52.1421C19.5409 54.9702 22.8707 56.4273 25.9073 57.6491C26.3035 57.8086 26.6996 57.9639 27.0932 58.1175C31.1818 59.7154 35.5551 60.8904 39.9785 60.7351C45.6739 60.5352 51.6687 58.7368 53.7671 53.0413C54.0897 52.1382 54.378 51.2323 54.644 50.324L50.5694 48.9938Z" fill="white"/>
</mask>
<g mask="url(#mask5_3223_8046)">
<path d="M40.3778 0.0849609C38.3295 0.234774 36.4814 2.58303 35.5318 4.23163C35.1321 4.93129 34.1829 7.02933 35.332 7.52881C36.6309 8.07834 37.0807 5.97999 37.4303 5.2306C38.4797 2.63276 40.6778 1.28379 43.2256 0.584447L40.3778 0.0849609Z" fill="#383434"/>
</g>
<mask id="mask6_3223_8046" style="mask-type:luminance" maskUnits="userSpaceOnUse" x="15" y="0" width="46" height="61">
<path d="M50.5694 48.9938C50.5694 48.9938 49.2708 48.4442 49.6702 47.4453C49.6702 47.4453 49.87 46.2962 51.4686 46.7459L55.2552 48.0652C55.3966 47.4998 55.5303 46.9338 55.6569 46.3666L51.7682 45.0973C51.7682 45.0973 50.4693 44.5478 50.869 43.5488C50.869 43.5488 51.0688 42.3997 52.6674 42.8492L56.1405 44.059C56.2652 43.4242 56.3846 42.7888 56.4999 42.1514L52.6674 40.9006C52.6674 40.9006 51.3685 40.3511 51.7682 39.3521C51.7682 39.3521 51.9681 38.203 53.5666 38.6525L56.9087 39.8167C57.0171 39.1794 57.125 38.5404 57.2328 37.9005L53.5669 36.7042C53.5669 36.7042 52.268 36.1547 52.6677 35.1557C52.6677 35.1557 52.8676 34.0066 54.4661 34.4561L57.6432 35.5629C57.7446 35.0718 57.8805 34.4302 58.0394 33.6737L54.4664 32.5075C54.4664 32.5075 53.1672 31.958 53.5672 30.959C53.5672 30.959 53.7671 29.8099 55.3653 30.2597L58.5179 31.3578C58.6396 30.7572 58.7665 30.1225 58.8947 29.4628L55.3653 28.3111C55.3653 28.3111 54.0667 27.7616 54.4664 26.7623C54.4664 26.7623 54.6663 25.6132 56.2645 26.063L59.3334 27.132C59.4416 26.5357 59.5485 25.9293 59.6521 25.3178L55.9649 24.1144C55.9649 24.1144 54.6663 23.5649 55.0657 22.5659C55.0657 22.5659 55.2656 21.4168 56.8641 21.8663L60.0283 22.9685C60.1255 22.3202 60.2159 21.6748 60.2982 21.0387L56.8641 19.918C56.8641 19.918 55.5655 19.3685 55.9649 18.3695C55.9649 18.3695 56.1648 17.2204 57.7633 17.6699L60.5668 18.6466C60.8238 15.8879 60.8374 13.5071 60.3867 12.1474C59.1785 8.50026 55.3627 6.22109 52.1172 4.24026C48.0251 1.74283 43.2863 0.793261 38.6792 0.184644C34.283 -0.41461 26.0897 0.284735 23.5916 4.68098C22.9953 5.73065 22.3418 7.86387 21.678 10.5841C25.1776 10.0513 36.7652 8.95163 50.5694 14.7727C50.5694 14.7727 52.4679 15.3723 51.9684 16.6712C51.9684 16.6712 51.7682 17.8704 50.0695 17.2708C50.0695 17.2708 37.9185 11.5885 21.0894 13.128C20.9486 13.7667 20.8082 14.424 20.6683 15.0975C24.0291 14.5722 35.7178 13.3857 49.6702 19.2691C49.6702 19.2691 51.5687 19.8686 51.0692 21.1676C51.0692 21.1676 50.869 22.3664 49.1703 21.7671C49.1703 21.7671 37.0329 15.7975 20.2183 17.3221C20.0904 17.9685 19.9638 18.6233 19.8386 19.2833C23.2872 18.7531 34.9119 17.6214 48.7709 23.4658C48.7709 23.4658 50.6694 24.0653 50.17 25.3643C50.17 25.3643 49.9698 26.5631 48.2711 25.9635C48.2711 25.9635 36.1837 20.0181 19.4227 21.5092C19.3016 22.1681 19.1825 22.8281 19.065 23.4851C22.6644 23.0196 34.1777 22.1875 47.8718 27.9621C47.8718 27.9621 49.7702 28.5617 49.2708 29.8606C49.2708 29.8606 49.0706 31.0594 47.3719 30.4599C47.3719 30.4599 35.3575 24.2588 18.6756 25.6917C18.5568 26.3723 18.4408 27.0452 18.3272 27.707C21.648 27.2889 32.7157 26.5011 47.2722 31.8586C47.2722 31.8586 49.1707 32.4581 48.6709 33.757C48.6709 33.757 48.4707 34.9559 46.7724 34.3566C46.7724 34.3566 35.2015 29.0609 17.9013 30.218C17.7848 30.9112 17.6724 31.5835 17.5646 32.2295C21.1504 31.908 32.6111 31.4198 46.373 36.3549C46.373 36.3549 48.2715 36.9545 47.7717 38.2534C47.7717 38.2534 47.5715 39.4522 45.8732 38.853C45.8732 38.853 33.8729 32.9495 17.2065 34.3815C17.0857 35.1096 16.9724 35.787 16.8694 36.3991C20.6561 36.0582 31.8876 35.6317 45.4738 40.5516C45.4738 40.5516 47.3723 41.1512 46.8725 42.4501C46.8725 42.4501 46.6723 43.6489 44.974 43.0497C44.974 43.0497 33.4732 37.9053 16.4871 38.6069C16.3619 39.2459 16.2401 39.8655 16.1287 40.4706C20.3145 40.5726 32.46 41.2067 44.5746 45.0479C44.5746 45.0479 46.4731 45.6475 45.9733 46.9464C45.9733 46.9464 45.7731 48.1456 44.0748 47.546C44.0748 47.546 33.5097 43.7277 15.8194 42.3429C15.3413 45.737 15.484 48.7494 17.6966 52.1421C19.5409 54.9702 22.8707 56.4273 25.9073 57.6491C26.3035 57.8086 26.6996 57.9639 27.0932 58.1175C31.1818 59.7154 35.5551 60.8904 39.9785 60.7351C45.6739 60.5352 51.6687 58.7368 53.7671 53.0413C54.0897 52.1382 54.378 51.2323 54.644 50.324L50.5694 48.9938Z" fill="white"/>
</mask>
<g mask="url(#mask6_3223_8046)">
<path d="M45.0244 0.833984C44.5246 1.08389 43.9751 1.08389 43.4259 1.33379C42.2267 1.93337 40.9778 3.03243 40.2284 4.13149C39.7286 4.98065 38.7797 6.42971 38.9796 7.47872C39.2792 9.12732 40.6278 8.17807 41.2277 7.32891C42.8263 5.13079 44.6247 1.48393 47.9222 1.73351L45.0244 0.833984Z" fill="#383434"/>
</g>
<mask id="mask7_3223_8046" style="mask-type:luminance" maskUnits="userSpaceOnUse" x="15" y="0" width="46" height="61">
<path d="M50.5694 48.9938C50.5694 48.9938 49.2708 48.4442 49.6702 47.4453C49.6702 47.4453 49.87 46.2962 51.4686 46.7459L55.2552 48.0652C55.3966 47.4998 55.5303 46.9338 55.6569 46.3666L51.7682 45.0973C51.7682 45.0973 50.4693 44.5478 50.869 43.5488C50.869 43.5488 51.0688 42.3997 52.6674 42.8492L56.1405 44.059C56.2652 43.4242 56.3846 42.7888 56.4999 42.1514L52.6674 40.9006C52.6674 40.9006 51.3685 40.3511 51.7682 39.3521C51.7682 39.3521 51.9681 38.203 53.5666 38.6525L56.9087 39.8167C57.0171 39.1794 57.125 38.5404 57.2328 37.9005L53.5669 36.7042C53.5669 36.7042 52.268 36.1547 52.6677 35.1557C52.6677 35.1557 52.8676 34.0066 54.4661 34.4561L57.6432 35.5629C57.7446 35.0718 57.8805 34.4302 58.0394 33.6737L54.4664 32.5075C54.4664 32.5075 53.1672 31.958 53.5672 30.959C53.5672 30.959 53.7671 29.8099 55.3653 30.2597L58.5179 31.3578C58.6396 30.7572 58.7665 30.1225 58.8947 29.4628L55.3653 28.3111C55.3653 28.3111 54.0667 27.7616 54.4664 26.7623C54.4664 26.7623 54.6663 25.6132 56.2645 26.063L59.3334 27.132C59.4416 26.5357 59.5485 25.9293 59.6521 25.3178L55.9649 24.1144C55.9649 24.1144 54.6663 23.5649 55.0657 22.5659C55.0657 22.5659 55.2656 21.4168 56.8641 21.8663L60.0283 22.9685C60.1255 22.3202 60.2159 21.6748 60.2982 21.0387L56.8641 19.918C56.8641 19.918 55.5655 19.3685 55.9649 18.3695C55.9649 18.3695 56.1648 17.2204 57.7633 17.6699L60.5668 18.6466C60.8238 15.8879 60.8374 13.5071 60.3867 12.1474C59.1785 8.50026 55.3627 6.22109 52.1172 4.24026C48.0251 1.74283 43.2863 0.793261 38.6792 0.184644C34.283 -0.41461 26.0897 0.284735 23.5916 4.68098C22.9953 5.73065 22.3418 7.86387 21.678 10.5841C25.1776 10.0513 36.7652 8.95163 50.5694 14.7727C50.5694 14.7727 52.4679 15.3723 51.9684 16.6712C51.9684 16.6712 51.7682 17.8704 50.0695 17.2708C50.0695 17.2708 37.9185 11.5885 21.0894 13.128C20.9486 13.7667 20.8082 14.424 20.6683 15.0975C24.0291 14.5722 35.7178 13.3857 49.6702 19.2691C49.6702 19.2691 51.5687 19.8686 51.0692 21.1676C51.0692 21.1676 50.869 22.3664 49.1703 21.7671C49.1703 21.7671 37.0329 15.7975 20.2183 17.3221C20.0904 17.9685 19.9638 18.6233 19.8386 19.2833C23.2872 18.7531 34.9119 17.6214 48.7709 23.4658C48.7709 23.4658 50.6694 24.0653 50.17 25.3643C50.17 25.3643 49.9698 26.5631 48.2711 25.9635C48.2711 25.9635 36.1837 20.0181 19.4227 21.5092C19.3016 22.1681 19.1825 22.8281 19.065 23.4851C22.6644 23.0196 34.1777 22.1875 47.8718 27.9621C47.8718 27.9621 49.7702 28.5617 49.2708 29.8606C49.2708 29.8606 49.0706 31.0594 47.3719 30.4599C47.3719 30.4599 35.3575 24.2588 18.6756 25.6917C18.5568 26.3723 18.4408 27.0452 18.3272 27.707C21.648 27.2889 32.7157 26.5011 47.2722 31.8586C47.2722 31.8586 49.1707 32.4581 48.6709 33.757C48.6709 33.757 48.4707 34.9559 46.7724 34.3566C46.7724 34.3566 35.2015 29.0609 17.9013 30.218C17.7848 30.9112 17.6724 31.5835 17.5646 32.2295C21.1504 31.908 32.6111 31.4198 46.373 36.3549C46.373 36.3549 48.2715 36.9545 47.7717 38.2534C47.7717 38.2534 47.5715 39.4522 45.8732 38.853C45.8732 38.853 33.8729 32.9495 17.2065 34.3815C17.0857 35.1096 16.9724 35.787 16.8694 36.3991C20.6561 36.0582 31.8876 35.6317 45.4738 40.5516C45.4738 40.5516 47.3723 41.1512 46.8725 42.4501C46.8725 42.4501 46.6723 43.6489 44.974 43.0497C44.974 43.0497 33.4732 37.9053 16.4871 38.6069C16.3619 39.2459 16.2401 39.8655 16.1287 40.4706C20.3145 40.5726 32.46 41.2067 44.5746 45.0479C44.5746 45.0479 46.4731 45.6475 45.9733 46.9464C45.9733 46.9464 45.7731 48.1456 44.0748 47.546C44.0748 47.546 33.5097 43.7277 15.8194 42.3429C15.3413 45.737 15.484 48.7494 17.6966 52.1421C19.5409 54.9702 22.8707 56.4273 25.9073 57.6491C26.3035 57.8086 26.6996 57.9639 27.0932 58.1175C31.1818 59.7154 35.5551 60.8904 39.9785 60.7351C45.6739 60.5352 51.6687 58.7368 53.7671 53.0413C54.0897 52.1382 54.378 51.2323 54.644 50.324L50.5694 48.9938Z" fill="white"/>
</mask>
<g mask="url(#mask7_3223_8046)">
<path d="M19.3452 54.7379C18.2461 53.489 17.3967 51.6903 16.9973 50.0917C16.7974 49.1925 16.6476 48.1932 16.6976 47.2443C16.7477 46.4949 17.447 44.4466 18.1964 45.8453C18.4964 46.4449 18.2965 47.7435 18.2965 48.3934C18.3466 49.3423 18.4463 50.2419 18.5965 51.1411C18.8961 52.8894 19.6455 54.1883 20.495 55.6871L19.3452 54.7379Z" fill="#383434"/>
</g>
<mask id="mask8_3223_8046" style="mask-type:luminance" maskUnits="userSpaceOnUse" x="15" y="0" width="46" height="61">
<path d="M50.5694 48.9938C50.5694 48.9938 49.2708 48.4442 49.6702 47.4453C49.6702 47.4453 49.87 46.2962 51.4686 46.7459L55.2552 48.0652C55.3966 47.4998 55.5303 46.9338 55.6569 46.3666L51.7682 45.0973C51.7682 45.0973 50.4693 44.5478 50.869 43.5488C50.869 43.5488 51.0688 42.3997 52.6674 42.8492L56.1405 44.059C56.2652 43.4242 56.3846 42.7888 56.4999 42.1514L52.6674 40.9006C52.6674 40.9006 51.3685 40.3511 51.7682 39.3521C51.7682 39.3521 51.9681 38.203 53.5666 38.6525L56.9087 39.8167C57.0171 39.1794 57.125 38.5404 57.2328 37.9005L53.5669 36.7042C53.5669 36.7042 52.268 36.1547 52.6677 35.1557C52.6677 35.1557 52.8676 34.0066 54.4661 34.4561L57.6432 35.5629C57.7446 35.0718 57.8805 34.4302 58.0394 33.6737L54.4664 32.5075C54.4664 32.5075 53.1672 31.958 53.5672 30.959C53.5672 30.959 53.7671 29.8099 55.3653 30.2597L58.5179 31.3578C58.6396 30.7572 58.7665 30.1225 58.8947 29.4628L55.3653 28.3111C55.3653 28.3111 54.0667 27.7616 54.4664 26.7623C54.4664 26.7623 54.6663 25.6132 56.2645 26.063L59.3334 27.132C59.4416 26.5357 59.5485 25.9293 59.6521 25.3178L55.9649 24.1144C55.9649 24.1144 54.6663 23.5649 55.0657 22.5659C55.0657 22.5659 55.2656 21.4168 56.8641 21.8663L60.0283 22.9685C60.1255 22.3202 60.2159 21.6748 60.2982 21.0387L56.8641 19.918C56.8641 19.918 55.5655 19.3685 55.9649 18.3695C55.9649 18.3695 56.1648 17.2204 57.7633 17.6699L60.5668 18.6466C60.8238 15.8879 60.8374 13.5071 60.3867 12.1474C59.1785 8.50026 55.3627 6.22109 52.1172 4.24026C48.0251 1.74283 43.2863 0.793261 38.6792 0.184644C34.283 -0.41461 26.0897 0.284735 23.5916 4.68098C22.9953 5.73065 22.3418 7.86387 21.678 10.5841C25.1776 10.0513 36.7652 8.95163 50.5694 14.7727C50.5694 14.7727 52.4679 15.3723 51.9684 16.6712C51.9684 16.6712 51.7682 17.8704 50.0695 17.2708C50.0695 17.2708 37.9185 11.5885 21.0894 13.128C20.9486 13.7667 20.8082 14.424 20.6683 15.0975C24.0291 14.5722 35.7178 13.3857 49.6702 19.2691C49.6702 19.2691 51.5687 19.8686 51.0692 21.1676C51.0692 21.1676 50.869 22.3664 49.1703 21.7671C49.1703 21.7671 37.0329 15.7975 20.2183 17.3221C20.0904 17.9685 19.9638 18.6233 19.8386 19.2833C23.2872 18.7531 34.9119 17.6214 48.7709 23.4658C48.7709 23.4658 50.6694 24.0653 50.17 25.3643C50.17 25.3643 49.9698 26.5631 48.2711 25.9635C48.2711 25.9635 36.1837 20.0181 19.4227 21.5092C19.3016 22.1681 19.1825 22.8281 19.065 23.4851C22.6644 23.0196 34.1777 22.1875 47.8718 27.9621C47.8718 27.9621 49.7702 28.5617 49.2708 29.8606C49.2708 29.8606 49.0706 31.0594 47.3719 30.4599C47.3719 30.4599 35.3575 24.2588 18.6756 25.6917C18.5568 26.3723 18.4408 27.0452 18.3272 27.707C21.648 27.2889 32.7157 26.5011 47.2722 31.8586C47.2722 31.8586 49.1707 32.4581 48.6709 33.757C48.6709 33.757 48.4707 34.9559 46.7724 34.3566C46.7724 34.3566 35.2015 29.0609 17.9013 30.218C17.7848 30.9112 17.6724 31.5835 17.5646 32.2295C21.1504 31.908 32.6111 31.4198 46.373 36.3549C46.373 36.3549 48.2715 36.9545 47.7717 38.2534C47.7717 38.2534 47.5715 39.4522 45.8732 38.853C45.8732 38.853 33.8729 32.9495 17.2065 34.3815C17.0857 35.1096 16.9724 35.787 16.8694 36.3991C20.6561 36.0582 31.8876 35.6317 45.4738 40.5516C45.4738 40.5516 47.3723 41.1512 46.8725 42.4501C46.8725 42.4501 46.6723 43.6489 44.974 43.0497C44.974 43.0497 33.4732 37.9053 16.4871 38.6069C16.3619 39.2459 16.2401 39.8655 16.1287 40.4706C20.3145 40.5726 32.46 41.2067 44.5746 45.0479C44.5746 45.0479 46.4731 45.6475 45.9733 46.9464C45.9733 46.9464 45.7731 48.1456 44.0748 47.546C44.0748 47.546 33.5097 43.7277 15.8194 42.3429C15.3413 45.737 15.484 48.7494 17.6966 52.1421C19.5409 54.9702 22.8707 56.4273 25.9073 57.6491C26.3035 57.8086 26.6996 57.9639 27.0932 58.1175C31.1818 59.7154 35.5551 60.8904 39.9785 60.7351C45.6739 60.5352 51.6687 58.7368 53.7671 53.0413C54.0897 52.1382 54.378 51.2323 54.644 50.324L50.5694 48.9938Z" fill="white"/>
</mask>
<g mask="url(#mask8_3223_8046)">
<path d="M23.7418 56.9363C22.5427 55.8873 21.2441 55.0879 20.5945 53.4893C19.795 51.5908 19.4954 49.1928 19.7453 47.0945C19.8951 45.5957 21.2441 45.6458 21.3942 47.1445C21.494 48.2436 21.3942 49.3927 21.444 50.5415C21.5938 53.1393 22.2934 54.888 24.4415 56.4866C25.2907 57.1362 26.1398 57.6857 26.8395 58.3847L23.7418 56.9363Z" fill="#383434"/>
</g>
<mask id="mask9_3223_8046" style="mask-type:luminance" maskUnits="userSpaceOnUse" x="15" y="0" width="46" height="61">
<path d="M50.5694 48.9938C50.5694 48.9938 49.2708 48.4442 49.6702 47.4453C49.6702 47.4453 49.87 46.2962 51.4686 46.7459L55.2552 48.0652C55.3966 47.4998 55.5303 46.9338 55.6569 46.3666L51.7682 45.0973C51.7682 45.0973 50.4693 44.5478 50.869 43.5488C50.869 43.5488 51.0688 42.3997 52.6674 42.8492L56.1405 44.059C56.2652 43.4242 56.3846 42.7888 56.4999 42.1514L52.6674 40.9006C52.6674 40.9006 51.3685 40.3511 51.7682 39.3521C51.7682 39.3521 51.9681 38.203 53.5666 38.6525L56.9087 39.8167C57.0171 39.1794 57.125 38.5404 57.2328 37.9005L53.5669 36.7042C53.5669 36.7042 52.268 36.1547 52.6677 35.1557C52.6677 35.1557 52.8676 34.0066 54.4661 34.4561L57.6432 35.5629C57.7446 35.0718 57.8805 34.4302 58.0394 33.6737L54.4664 32.5075C54.4664 32.5075 53.1672 31.958 53.5672 30.959C53.5672 30.959 53.7671 29.8099 55.3653 30.2597L58.5179 31.3578C58.6396 30.7572 58.7665 30.1225 58.8947 29.4628L55.3653 28.3111C55.3653 28.3111 54.0667 27.7616 54.4664 26.7623C54.4664 26.7623 54.6663 25.6132 56.2645 26.063L59.3334 27.132C59.4416 26.5357 59.5485 25.9293 59.6521 25.3178L55.9649 24.1144C55.9649 24.1144 54.6663 23.5649 55.0657 22.5659C55.0657 22.5659 55.2656 21.4168 56.8641 21.8663L60.0283 22.9685C60.1255 22.3202 60.2159 21.6748 60.2982 21.0387L56.8641 19.918C56.8641 19.918 55.5655 19.3685 55.9649 18.3695C55.9649 18.3695 56.1648 17.2204 57.7633 17.6699L60.5668 18.6466C60.8238 15.8879 60.8374 13.5071 60.3867 12.1474C59.1785 8.50026 55.3627 6.22109 52.1172 4.24026C48.0251 1.74283 43.2863 0.793261 38.6792 0.184644C34.283 -0.41461 26.0897 0.284735 23.5916 4.68098C22.9953 5.73065 22.3418 7.86387 21.678 10.5841C25.1776 10.0513 36.7652 8.95163 50.5694 14.7727C50.5694 14.7727 52.4679 15.3723 51.9684 16.6712C51.9684 16.6712 51.7682 17.8704 50.0695 17.2708C50.0695 17.2708 37.9185 11.5885 21.0894 13.128C20.9486 13.7667 20.8082 14.424 20.6683 15.0975C24.0291 14.5722 35.7178 13.3857 49.6702 19.2691C49.6702 19.2691 51.5687 19.8686 51.0692 21.1676C51.0692 21.1676 50.869 22.3664 49.1703 21.7671C49.1703 21.7671 37.0329 15.7975 20.2183 17.3221C20.0904 17.9685 19.9638 18.6233 19.8386 19.2833C23.2872 18.7531 34.9119 17.6214 48.7709 23.4658C48.7709 23.4658 50.6694 24.0653 50.17 25.3643C50.17 25.3643 49.9698 26.5631 48.2711 25.9635C48.2711 25.9635 36.1837 20.0181 19.4227 21.5092C19.3016 22.1681 19.1825 22.8281 19.065 23.4851C22.6644 23.0196 34.1777 22.1875 47.8718 27.9621C47.8718 27.9621 49.7702 28.5617 49.2708 29.8606C49.2708 29.8606 49.0706 31.0594 47.3719 30.4599C47.3719 30.4599 35.3575 24.2588 18.6756 25.6917C18.5568 26.3723 18.4408 27.0452 18.3272 27.707C21.648 27.2889 32.7157 26.5011 47.2722 31.8586C47.2722 31.8586 49.1707 32.4581 48.6709 33.757C48.6709 33.757 48.4707 34.9559 46.7724 34.3566C46.7724 34.3566 35.2015 29.0609 17.9013 30.218C17.7848 30.9112 17.6724 31.5835 17.5646 32.2295C21.1504 31.908 32.6111 31.4198 46.373 36.3549C46.373 36.3549 48.2715 36.9545 47.7717 38.2534C47.7717 38.2534 47.5715 39.4522 45.8732 38.853C45.8732 38.853 33.8729 32.9495 17.2065 34.3815C17.0857 35.1096 16.9724 35.787 16.8694 36.3991C20.6561 36.0582 31.8876 35.6317 45.4738 40.5516C45.4738 40.5516 47.3723 41.1512 46.8725 42.4501C46.8725 42.4501 46.6723 43.6489 44.974 43.0497C44.974 43.0497 33.4732 37.9053 16.4871 38.6069C16.3619 39.2459 16.2401 39.8655 16.1287 40.4706C20.3145 40.5726 32.46 41.2067 44.5746 45.0479C44.5746 45.0479 46.4731 45.6475 45.9733 46.9464C45.9733 46.9464 45.7731 48.1456 44.0748 47.546C44.0748 47.546 33.5097 43.7277 15.8194 42.3429C15.3413 45.737 15.484 48.7494 17.6966 52.1421C19.5409 54.9702 22.8707 56.4273 25.9073 57.6491C26.3035 57.8086 26.6996 57.9639 27.0932 58.1175C31.1818 59.7154 35.5551 60.8904 39.9785 60.7351C45.6739 60.5352 51.6687 58.7368 53.7671 53.0413C54.0897 52.1382 54.378 51.2323 54.644 50.324L50.5694 48.9938Z" fill="white"/>
</mask>
<g mask="url(#mask9_3223_8046)">
<path d="M31.3856 59.7344C29.787 58.6354 28.2882 57.6864 26.9393 56.1877C25.3407 54.439 24.8409 51.7911 24.8409 49.4432C24.8409 48.6938 25.1405 46.6455 24.2413 46.2958C22.8924 45.7963 22.9424 48.3941 23.0425 49.0434C23.3421 51.5912 23.2424 53.6893 24.891 55.6879C26.0898 57.0865 28.338 58.4856 29.8367 59.4849L31.3856 59.7344Z" fill="#383434"/>
</g>
<mask id="mask10_3223_8046" style="mask-type:luminance" maskUnits="userSpaceOnUse" x="15" y="0" width="46" height="61">
<path d="M50.5694 48.9938C50.5694 48.9938 49.2708 48.4442 49.6702 47.4453C49.6702 47.4453 49.87 46.2962 51.4686 46.7459L55.2552 48.0652C55.3966 47.4998 55.5303 46.9338 55.6569 46.3666L51.7682 45.0973C51.7682 45.0973 50.4693 44.5478 50.869 43.5488C50.869 43.5488 51.0688 42.3997 52.6674 42.8492L56.1405 44.059C56.2652 43.4242 56.3846 42.7888 56.4999 42.1514L52.6674 40.9006C52.6674 40.9006 51.3685 40.3511 51.7682 39.3521C51.7682 39.3521 51.9681 38.203 53.5666 38.6525L56.9087 39.8167C57.0171 39.1794 57.125 38.5404 57.2328 37.9005L53.5669 36.7042C53.5669 36.7042 52.268 36.1547 52.6677 35.1557C52.6677 35.1557 52.8676 34.0066 54.4661 34.4561L57.6432 35.5629C57.7446 35.0718 57.8805 34.4302 58.0394 33.6737L54.4664 32.5075C54.4664 32.5075 53.1672 31.958 53.5672 30.959C53.5672 30.959 53.7671 29.8099 55.3653 30.2597L58.5179 31.3578C58.6396 30.7572 58.7665 30.1225 58.8947 29.4628L55.3653 28.3111C55.3653 28.3111 54.0667 27.7616 54.4664 26.7623C54.4664 26.7623 54.6663 25.6132 56.2645 26.063L59.3334 27.132C59.4416 26.5357 59.5485 25.9293 59.6521 25.3178L55.9649 24.1144C55.9649 24.1144 54.6663 23.5649 55.0657 22.5659C55.0657 22.5659 55.2656 21.4168 56.8641 21.8663L60.0283 22.9685C60.1255 22.3202 60.2159 21.6748 60.2982 21.0387L56.8641 19.918C56.8641 19.918 55.5655 19.3685 55.9649 18.3695C55.9649 18.3695 56.1648 17.2204 57.7633 17.6699L60.5668 18.6466C60.8238 15.8879 60.8374 13.5071 60.3867 12.1474C59.1785 8.50026 55.3627 6.22109 52.1172 4.24026C48.0251 1.74283 43.2863 0.793261 38.6792 0.184644C34.283 -0.41461 26.0897 0.284735 23.5916 4.68098C22.9953 5.73065 22.3418 7.86387 21.678 10.5841C25.1776 10.0513 36.7652 8.95163 50.5694 14.7727C50.5694 14.7727 52.4679 15.3723 51.9684 16.6712C51.9684 16.6712 51.7682 17.8704 50.0695 17.2708C50.0695 17.2708 37.9185 11.5885 21.0894 13.128C20.9486 13.7667 20.8082 14.424 20.6683 15.0975C24.0291 14.5722 35.7178 13.3857 49.6702 19.2691C49.6702 19.2691 51.5687 19.8686 51.0692 21.1676C51.0692 21.1676 50.869 22.3664 49.1703 21.7671C49.1703 21.7671 37.0329 15.7975 20.2183 17.3221C20.0904 17.9685 19.9638 18.6233 19.8386 19.2833C23.2872 18.7531 34.9119 17.6214 48.7709 23.4658C48.7709 23.4658 50.6694 24.0653 50.17 25.3643C50.17 25.3643 49.9698 26.5631 48.2711 25.9635C48.2711 25.9635 36.1837 20.0181 19.4227 21.5092C19.3016 22.1681 19.1825 22.8281 19.065 23.4851C22.6644 23.0196 34.1777 22.1875 47.8718 27.9621C47.8718 27.9621 49.7702 28.5617 49.2708 29.8606C49.2708 29.8606 49.0706 31.0594 47.3719 30.4599C47.3719 30.4599 35.3575 24.2588 18.6756 25.6917C18.5568 26.3723 18.4408 27.0452 18.3272 27.707C21.648 27.2889 32.7157 26.5011 47.2722 31.8586C47.2722 31.8586 49.1707 32.4581 48.6709 33.757C48.6709 33.757 48.4707 34.9559 46.7724 34.3566C46.7724 34.3566 35.2015 29.0609 17.9013 30.218C17.7848 30.9112 17.6724 31.5835 17.5646 32.2295C21.1504 31.908 32.6111 31.4198 46.373 36.3549C46.373 36.3549 48.2715 36.9545 47.7717 38.2534C47.7717 38.2534 47.5715 39.4522 45.8732 38.853C45.8732 38.853 33.8729 32.9495 17.2065 34.3815C17.0857 35.1096 16.9724 35.787 16.8694 36.3991C20.6561 36.0582 31.8876 35.6317 45.4738 40.5516C45.4738 40.5516 47.3723 41.1512 46.8725 42.4501C46.8725 42.4501 46.6723 43.6489 44.974 43.0497C44.974 43.0497 33.4732 37.9053 16.4871 38.6069C16.3619 39.2459 16.2401 39.8655 16.1287 40.4706C20.3145 40.5726 32.46 41.2067 44.5746 45.0479C44.5746 45.0479 46.4731 45.6475 45.9733 46.9464C45.9733 46.9464 45.7731 48.1456 44.0748 47.546C44.0748 47.546 33.5097 43.7277 15.8194 42.3429C15.3413 45.737 15.484 48.7494 17.6966 52.1421C19.5409 54.9702 22.8707 56.4273 25.9073 57.6491C26.3035 57.8086 26.6996 57.9639 27.0932 58.1175C31.1818 59.7154 35.5551 60.8904 39.9785 60.7351C45.6739 60.5352 51.6687 58.7368 53.7671 53.0413C54.0897 52.1382 54.378 51.2323 54.644 50.324L50.5694 48.9938Z" fill="white"/>
</mask>
<g mask="url(#mask10_3223_8046)">
<path d="M34.8825 60.484C31.4355 58.7853 27.6385 56.1378 26.6893 52.0909C26.4394 51.0916 26.4394 49.9428 26.4894 48.8934C26.4894 48.4437 26.4894 47.6946 26.8391 47.3449C27.3386 46.7954 27.9382 47.0453 28.2378 47.6446C28.6375 48.5438 28.3379 50.0426 28.3876 51.0415C28.4877 52.1406 28.7873 53.2897 29.2868 54.289C30.8857 57.3863 34.3827 59.185 37.2305 60.7335L34.8825 60.484Z" fill="#383434"/>
</g>
<mask id="mask11_3223_8046" style="mask-type:luminance" maskUnits="userSpaceOnUse" x="15" y="0" width="46" height="61">
<path d="M50.5694 48.9938C50.5694 48.9938 49.2708 48.4442 49.6702 47.4453C49.6702 47.4453 49.87 46.2962 51.4686 46.7459L55.2552 48.0652C55.3966 47.4998 55.5303 46.9338 55.6569 46.3666L51.7682 45.0973C51.7682 45.0973 50.4693 44.5478 50.869 43.5488C50.869 43.5488 51.0688 42.3997 52.6674 42.8492L56.1405 44.059C56.2652 43.4242 56.3846 42.7888 56.4999 42.1514L52.6674 40.9006C52.6674 40.9006 51.3685 40.3511 51.7682 39.3521C51.7682 39.3521 51.9681 38.203 53.5666 38.6525L56.9087 39.8167C57.0171 39.1794 57.125 38.5404 57.2328 37.9005L53.5669 36.7042C53.5669 36.7042 52.268 36.1547 52.6677 35.1557C52.6677 35.1557 52.8676 34.0066 54.4661 34.4561L57.6432 35.5629C57.7446 35.0718 57.8805 34.4302 58.0394 33.6737L54.4664 32.5075C54.4664 32.5075 53.1672 31.958 53.5672 30.959C53.5672 30.959 53.7671 29.8099 55.3653 30.2597L58.5179 31.3578C58.6396 30.7572 58.7665 30.1225 58.8947 29.4628L55.3653 28.3111C55.3653 28.3111 54.0667 27.7616 54.4664 26.7623C54.4664 26.7623 54.6663 25.6132 56.2645 26.063L59.3334 27.132C59.4416 26.5357 59.5485 25.9293 59.6521 25.3178L55.9649 24.1144C55.9649 24.1144 54.6663 23.5649 55.0657 22.5659C55.0657 22.5659 55.2656 21.4168 56.8641 21.8663L60.0283 22.9685C60.1255 22.3202 60.2159 21.6748 60.2982 21.0387L56.8641 19.918C56.8641 19.918 55.5655 19.3685 55.9649 18.3695C55.9649 18.3695 56.1648 17.2204 57.7633 17.6699L60.5668 18.6466C60.8238 15.8879 60.8374 13.5071 60.3867 12.1474C59.1785 8.50026 55.3627 6.22109 52.1172 4.24026C48.0251 1.74283 43.2863 0.793261 38.6792 0.184644C34.283 -0.41461 26.0897 0.284735 23.5916 4.68098C22.9953 5.73065 22.3418 7.86387 21.678 10.5841C25.1776 10.0513 36.7652 8.95163 50.5694 14.7727C50.5694 14.7727 52.4679 15.3723 51.9684 16.6712C51.9684 16.6712 51.7682 17.8704 50.0695 17.2708C50.0695 17.2708 37.9185 11.5885 21.0894 13.128C20.9486 13.7667 20.8082 14.424 20.6683 15.0975C24.0291 14.5722 35.7178 13.3857 49.6702 19.2691C49.6702 19.2691 51.5687 19.8686 51.0692 21.1676C51.0692 21.1676 50.869 22.3664 49.1703 21.7671C49.1703 21.7671 37.0329 15.7975 20.2183 17.3221C20.0904 17.9685 19.9638 18.6233 19.8386 19.2833C23.2872 18.7531 34.9119 17.6214 48.7709 23.4658C48.7709 23.4658 50.6694 24.0653 50.17 25.3643C50.17 25.3643 49.9698 26.5631 48.2711 25.9635C48.2711 25.9635 36.1837 20.0181 19.4227 21.5092C19.3016 22.1681 19.1825 22.8281 19.065 23.4851C22.6644 23.0196 34.1777 22.1875 47.8718 27.9621C47.8718 27.9621 49.7702 28.5617 49.2708 29.8606C49.2708 29.8606 49.0706 31.0594 47.3719 30.4599C47.3719 30.4599 35.3575 24.2588 18.6756 25.6917C18.5568 26.3723 18.4408 27.0452 18.3272 27.707C21.648 27.2889 32.7157 26.5011 47.2722 31.8586C47.2722 31.8586 49.1707 32.4581 48.6709 33.757C48.6709 33.757 48.4707 34.9559 46.7724 34.3566C46.7724 34.3566 35.2015 29.0609 17.9013 30.218C17.7848 30.9112 17.6724 31.5835 17.5646 32.2295C21.1504 31.908 32.6111 31.4198 46.373 36.3549C46.373 36.3549 48.2715 36.9545 47.7717 38.2534C47.7717 38.2534 47.5715 39.4522 45.8732 38.853C45.8732 38.853 33.8729 32.9495 17.2065 34.3815C17.0857 35.1096 16.9724 35.787 16.8694 36.3991C20.6561 36.0582 31.8876 35.6317 45.4738 40.5516C45.4738 40.5516 47.3723 41.1512 46.8725 42.4501C46.8725 42.4501 46.6723 43.6489 44.974 43.0497C44.974 43.0497 33.4732 37.9053 16.4871 38.6069C16.3619 39.2459 16.2401 39.8655 16.1287 40.4706C20.3145 40.5726 32.46 41.2067 44.5746 45.0479C44.5746 45.0479 46.4731 45.6475 45.9733 46.9464C45.9733 46.9464 45.7731 48.1456 44.0748 47.546C44.0748 47.546 33.5097 43.7277 15.8194 42.3429C15.3413 45.737 15.484 48.7494 17.6966 52.1421C19.5409 54.9702 22.8707 56.4273 25.9073 57.6491C26.3035 57.8086 26.6996 57.9639 27.0932 58.1175C31.1818 59.7154 35.5551 60.8904 39.9785 60.7351C45.6739 60.5352 51.6687 58.7368 53.7671 53.0413C54.0897 52.1382 54.378 51.2323 54.644 50.324L50.5694 48.9938Z" fill="white"/>
</mask>
<g mask="url(#mask11_3223_8046)">
<path d="M41.9765 60.8836C40.2281 60.5339 38.3293 59.6347 36.7808 58.7855C34.8823 57.7365 32.1346 55.9378 31.2855 53.8895C30.7857 52.7404 29.9365 48.4939 31.5851 47.9444C33.5834 47.2447 33.0338 52.041 33.3835 53.09C34.1329 55.3382 36.1812 56.6872 38.0297 57.9357C39.6779 59.0848 41.177 59.8843 42.9754 60.6837L41.9765 60.8836Z" fill="#383434"/>
</g>
<path d="M28.0794 22.5721C29.4761 15.4963 30.6611 9.45215 30.6611 9.45215H28.4878C27.9651 10.9626 26.8121 16.4353 25.5955 22.5721C24.8762 24.2265 22.3803 25.4912 22.3803 25.4912L22.2312 27.4249C24.2927 28.05 24.049 30.5274 24.049 30.5274C22.7023 37.5693 21.5935 43.6235 21.5935 43.6235L23.7668 44.0732C24.1452 42.3556 25.2704 36.7456 26.5051 30.5277C27.5198 27.998 29.9362 27.7452 29.9362 27.7452L30.4819 25.8641C28.6922 25.1903 28.0794 22.5721 28.0794 22.5721Z" fill="#A0A0A0"/>
<path d="M28.0461 26.4345C28.0461 27.6472 27.0423 28.6303 25.8037 28.6303C24.5655 28.6303 23.5617 27.6472 23.5617 26.4345C23.5617 25.2214 24.5655 24.2383 25.8037 24.2383C27.042 24.2383 28.0461 25.2214 28.0461 26.4345Z" fill="#777777"/>
<path d="M28.6453 26.734C28.6453 27.9467 27.6415 28.9301 26.4033 28.9301C25.1647 28.9301 24.1613 27.947 24.1613 26.734C24.1613 25.5212 25.1651 24.5381 26.4033 24.5381C27.6415 24.5381 28.6453 25.5212 28.6453 26.734Z" fill="#A0A0A0"/>
<path d="M33.696 82.6815C33.696 82.6815 26.4762 80.3949 26.5237 81.8381L25.9054 101.571C25.9054 101.571 31.1789 103.12 32.2725 103.548C32.9857 103.834 33.0806 103.834 33.7464 103.691V82.6754L33.696 82.6815Z" fill="#6B6B6B"/>
<path d="M39.6902 82.6269C39.5475 81.8665 39.4048 82.0561 38.5963 82.1038L33.7465 82.676V103.691C34.2221 103.596 40.8313 101.925 41.1642 101.259C41.4021 100.927 39.8804 83.3401 39.6902 82.6269Z" fill="#464A4C"/>
<path d="M27.4256 82.0479L26.8877 100.951L32.9145 102.726V83.3548C32.9145 83.3548 29.5782 82.2477 27.4256 82.0479Z" fill="#F3FAFF"/>
<mask id="mask12_3223_8046" style="mask-type:luminance" maskUnits="userSpaceOnUse" x="21" y="86" width="11" height="9">
<path d="M28.5931 86.9453L31.3417 87.7793V94.6362L28.4556 93.8022L23.4843 94.2649L21.5874 87.1616L28.5931 86.9453Z" fill="white"/>
</mask>
<g mask="url(#mask12_3223_8046)">
<path d="M28.593 86.9453L31.3416 87.7793V94.6362L28.4554 93.8022L28.593 86.9453Z" fill="#383434"/>
</g>
<mask id="mask13_3223_8046" style="mask-type:luminance" maskUnits="userSpaceOnUse" x="21" y="86" width="11" height="9">
<path d="M28.5931 86.9453L31.3417 87.7793V94.6362L28.4556 93.8022L23.4843 94.2649L21.5874 87.1616L28.5931 86.9453Z" fill="white"/>
</mask>
<g mask="url(#mask13_3223_8046)">
<path d="M31.28 86.6367C29.9826 86.9454 28.7163 87.4397 27.4504 87.903C26.8327 88.119 26.0297 88.3354 25.659 88.8913C25.3191 89.4167 25.2884 90.2193 25.2884 90.837C25.2267 92.4433 26.7878 93.8329 28.4558 93.8023C29.9071 93.7713 31.3852 93.5769 32.5902 92.8356C32.8678 92.6506 33.6576 92.1759 33.9043 92.0216L31.28 86.6367Z" fill="#A0A0A0"/>
<path d="M33.5402 86.96C32.2429 87.2686 30.9766 87.7629 29.7106 88.2263C29.0929 88.4423 28.2899 88.6586 27.9193 89.2146C27.5793 89.7399 27.5486 90.5426 27.5486 91.1602C27.4869 92.7665 28.3516 93.7548 30.0196 93.7238C31.4709 93.6928 32.8915 92.6425 34.0965 91.9012C34.3742 91.7162 34.7141 91.5309 34.9611 91.3762L33.5402 86.96Z" fill="#777777"/>
</g>
<defs>
<linearGradient id="paint0_linear_3223_8046" x1="36.6369" y1="26.484" x2="55.2152" y2="33.2459" gradientUnits="userSpaceOnUse">
<stop stop-color="white"/>
<stop offset="0.1341" stop-color="white" stop-opacity="0.8659"/>
<stop offset="1" stop-color="white" stop-opacity="0"/>
</linearGradient>
</defs>
</svg>
