<svg width="63" height="132" viewBox="0 0 63 132" fill="none" xmlns="http://www.w3.org/2000/svg">
<path d="M59.7503 127.692L53.0159 130.888C54.3851 130.238 55.2341 128.857 55.2412 126.895L61.9753 123.699C61.9681 125.662 61.1191 127.043 59.7503 127.692Z" fill="#2C353B"/>
<path d="M2.5519 3.61624L9.28594 0.420484C10.6727 -0.237518 12.5929 -0.14531 14.7108 0.85351L7.97672 4.04898C5.85889 3.05016 3.93901 2.95795 2.5519 3.61624Z" fill="#5D7280"/>
<path d="M55.5673 33.6554L62.3017 30.46L61.9752 123.7L55.2411 126.895L55.5673 33.6554Z" fill="#2C353B"/>
<path d="M7.97723 4.04898L14.7109 0.853516L54.7018 19.7094L47.9677 22.9049L7.97723 4.04898Z" fill="#5D7280"/>
<path d="M47.9677 22.9045C52.1766 24.8894 55.5815 29.7058 55.5675 33.6552L55.2409 126.895C55.227 130.845 51.8 132.44 47.5907 130.455L7.59987 111.599C3.39101 109.615 -0.0138928 104.798 4.26238e-05 100.848L0.326628 7.60885C0.340563 3.65909 3.76762 2.06412 7.97684 4.04863L47.9677 22.9045Z" fill="#3B4951"/>
<path d="M47.9674 22.9054L54.7015 19.71C58.9103 21.6945 62.3152 26.5109 62.3016 30.4606L55.5672 33.6561C55.5812 29.7063 52.1763 24.8902 47.9674 22.9054Z" fill="#5D7280"/>
<path d="M52.0756 35.7939L52.0727 121.618C52.0727 125.508 48.7254 127.077 44.6094 125.137L10.9545 109.268C6.82926 107.323 3.49153 102.602 3.49153 98.712L3.49439 12.8876C3.49439 12.2798 3.57979 11.7207 3.73165 11.229C4.56635 8.59116 7.47743 7.7286 10.9577 9.36938L44.6126 25.2379C48.0836 26.8743 51.004 30.487 51.8383 33.9118C51.9902 34.5465 52.0756 35.1858 52.0756 35.7939Z" fill="white"/>
<path d="M51.8388 33.9118L3.73177 11.229C4.56646 8.59116 7.47755 7.7286 10.9578 9.36938L44.6127 25.2379C48.0837 26.8746 51.0044 30.487 51.8388 33.9118Z" fill="#D7DAFF"/>
<path d="M39.4734 22.8149L39.4731 25.2561C39.4731 26.821 38.136 27.451 36.4766 26.6687L19.0848 18.4686C17.435 17.6907 16.0883 15.7948 16.0883 14.2299L16.0886 11.7891L39.4734 22.8149Z" fill="#3B4951"/>
<path d="M33.4498 22.953L22.1128 17.6072V15.8115L33.4498 21.1572V22.953Z" fill="#2C353B"/>
<path d="M18.4657 25.89L6.74242 20.3622L6.74278 17.1416L18.4657 22.6691V25.89Z" fill="#6159FF"/>
<path d="M48.8808 37.1816L41.2459 33.5817V32.334L48.8808 35.9336V37.1816Z" fill="#888ABF"/>
<path d="M48.8807 39.2441L41.2459 35.6442V34.3965L48.8807 37.9964V39.2441Z" fill="#888ABF"/>
<path d="M48.8804 41.3047L41.2459 37.7048V36.457L48.8804 40.0569V41.3047Z" fill="#888ABF"/>
<path d="M52.0747 76.0723L3.4935 53.1662L3.49457 24.5264L52.0754 47.433L52.0747 76.0723Z" fill="#D7DAFF"/>
<path d="M47.2749 57.1392L8.29453 38.7598L8.29488 33.9043L47.2749 52.2837V57.1392Z" fill="#3B4951"/>
<path d="M32.4769 59.719L8.2942 48.3167V43.4609L32.4772 54.8632L32.4769 59.719Z" fill="#3B4951"/>
<path d="M44.3462 97.3035L11.2206 81.6845L11.2209 62.8633L44.3466 78.482L44.3462 97.3035Z" fill="#ED484F"/>
<path d="M38.4109 102.361L17.1554 92.3385V88.2686L38.4113 98.2909L38.4109 102.361Z" fill="#888ABF"/>
<path d="M44.3448 111.215L44.3445 125.012L11.2206 109.394L11.2209 95.5967L44.3448 111.215Z" fill="#F6D13A"/>
<path d="M48.1606 67.5845V65.4678L46.94 64.8921C46.8496 64.5463 46.7235 64.1982 46.563 63.8536L47.4256 63.4468L45.838 61.2014L44.9755 61.6079C44.6903 61.3219 44.3845 61.0587 44.0625 60.8218V59.671L41.8175 58.6126L41.8171 59.7632C41.4955 59.6966 41.1897 59.6712 40.9042 59.6888L40.042 58.4688L38.4544 59.2172L39.317 60.4369C39.1562 60.6301 39.0297 60.8592 38.9396 61.12L37.719 60.5446V62.6616L38.9396 63.237C39.0297 63.5828 39.1562 63.9312 39.3166 64.2758L38.4544 64.6823L40.042 66.9277L40.9042 66.5212C41.1893 66.8071 41.4955 67.0706 41.8171 67.3073L41.8168 68.4581L44.0618 69.5165V68.3656C44.3834 68.4322 44.6896 68.4575 44.9748 68.4403L45.8373 69.66L47.4249 68.9116L46.5623 67.6916C46.7228 67.4987 46.8493 67.2696 46.9397 67.0088L48.1606 67.5845ZM42.9398 65.7812C41.9336 65.3067 41.1193 64.1547 41.1193 63.2064C41.1193 62.2577 41.9336 61.8737 42.9398 62.3482C43.946 62.8227 44.7604 63.9744 44.76 64.923C44.76 65.8713 43.9457 66.2554 42.9398 65.7812Z" fill="#888ABF"/>
<path opacity="0.5" d="M52.0759 40.5244L52.0748 69.2638L3.49219 92.1666L3.49326 63.4276L52.0759 40.5244Z" fill="white"/>
</svg>
