<svg width="47" height="28" viewBox="0 0 47 28" fill="none" xmlns="http://www.w3.org/2000/svg">
<path d="M34.5619 7.81711H35.9329V9.18806C35.9731 10.2711 37.5273 10.2702 37.5671 9.18806V7.81711H38.9381C40.0211 7.77691 40.0202 6.22271 38.9381 6.18289H37.5671V4.81194C37.5269 3.72894 35.9727 3.72976 35.9329 4.81194V6.18289H34.5619C33.479 6.22309 33.4798 7.77729 34.5619 7.81711Z" fill="black"/>
<path d="M31.5619 16.8171H32.9329V18.1881C32.9731 19.2711 34.5273 19.2702 34.5671 18.1881V16.8171H35.9381C37.0211 16.7769 37.0202 15.2227 35.9381 15.1829H34.5671V13.8119C34.5269 12.7289 32.9727 12.7298 32.9329 13.8119V15.1829H31.5619C30.479 15.2231 30.4798 16.7773 31.5619 16.8171Z" fill="black"/>
<path d="M43.1514 21.8714C42.6476 21.6628 42.0678 21.7781 41.6824 22.1636C30.0931 32.9282 14.0757 16.8837 24.8199 5.30088C25.2053 4.91546 25.3206 4.33578 25.1121 3.83211C24.9034 3.32844 24.4119 3 23.8667 3C12.7546 3 3.75 11.9912 3.75 23.1168C4.72031 49.767 43.0098 49.7754 43.9836 23.1165C43.9835 22.5716 43.655 22.0801 43.1514 21.8714ZM23.8667 40.5376C2.56492 39.9627 0.166815 10.0711 20.8709 5.95353C17.3229 11.5987 18.0039 19.1602 22.9135 24.0698C29.6681 30.8245 37.9737 28.0444 41.029 26.1173C39.6027 34.2982 32.4495 40.5376 23.8667 40.5376Z" fill="black"/>
</svg>
