<svg width="41" height="23" viewBox="0 0 41 23" fill="none" xmlns="http://www.w3.org/2000/svg">
<path d="M39.9226 18.8208C39.4218 18.6127 38.8454 18.7278 38.4622 19.1122C26.9402 29.8479 11.0157 13.8465 21.6976 2.29471C22.0808 1.91033 22.1954 1.33219 21.9881 0.829876C21.7806 0.327559 21.2919 0 20.7499 0C9.70228 0 0.75 8.96705 0.75 20.0628C1.71468 46.6415 39.7818 46.65 40.75 20.0626C40.7499 19.5191 40.4234 19.0289 39.9226 18.8208ZM20.7499 37.4369C-0.4282 36.8636 -2.81238 7.05216 17.7715 2.94561C14.2441 8.57569 14.9212 16.1169 19.8023 21.0133C26.5176 27.7499 34.775 24.9772 37.8125 23.0553C36.3946 31.2143 29.2829 37.4369 20.7499 37.4369Z" fill="black"/>
</svg>
