<svg width="10" height="10" viewBox="0 0 10 10" fill="none" xmlns="http://www.w3.org/2000/svg">
<path d="M5.00001 4.99967C4.35834 4.99967 3.80904 4.7712 3.35209 4.31426C2.89515 3.85731 2.66668 3.30801 2.66668 2.66634C2.66668 2.02467 2.89515 1.47537 3.35209 1.01842C3.80904 0.56148 4.35834 0.333008 5.00001 0.333008C5.64168 0.333008 6.19098 0.56148 6.64793 1.01842C7.10487 1.47537 7.33334 2.02467 7.33334 2.66634C7.33334 3.30801 7.10487 3.85731 6.64793 4.31426C6.19098 4.7712 5.64168 4.99967 5.00001 4.99967ZM0.333344 9.66634V8.03301C0.333344 7.70245 0.418413 7.39863 0.588552 7.12155C0.758691 6.84447 0.984732 6.63301 1.26668 6.48717C1.86945 6.18579 2.48195 5.95974 3.10418 5.80905C3.7264 5.65836 4.35834 5.58301 5.00001 5.58301C5.64168 5.58301 6.27362 5.65836 6.89584 5.80905C7.51807 5.95974 8.13057 6.18579 8.73334 6.48717C9.01529 6.63301 9.24133 6.84447 9.41147 7.12155C9.58161 7.39863 9.66668 7.70245 9.66668 8.03301V9.66634H0.333344ZM1.50001 8.49967H8.50001V8.03301C8.50001 7.92606 8.47328 7.82884 8.4198 7.74134C8.36633 7.65384 8.29584 7.58579 8.20834 7.53718C7.68334 7.27468 7.15348 7.0778 6.61876 6.94655C6.08404 6.8153 5.54446 6.74967 5.00001 6.74967C4.45557 6.74967 3.91598 6.8153 3.38126 6.94655C2.84654 7.0778 2.31668 7.27468 1.79168 7.53718C1.70418 7.58579 1.63369 7.65384 1.58022 7.74134C1.52675 7.82884 1.50001 7.92606 1.50001 8.03301V8.49967ZM5.00001 3.83301C5.32084 3.83301 5.5955 3.71877 5.82397 3.4903C6.05244 3.26183 6.16668 2.98717 6.16668 2.66634C6.16668 2.34551 6.05244 2.07086 5.82397 1.84238C5.5955 1.61391 5.32084 1.49967 5.00001 1.49967C4.67918 1.49967 4.40452 1.61391 4.17605 1.84238C3.94758 2.07086 3.83334 2.34551 3.83334 2.66634C3.83334 2.98717 3.94758 3.26183 4.17605 3.4903C4.40452 3.71877 4.67918 3.83301 5.00001 3.83301Z" fill="#5F5F5F"/>
</svg>
