<svg width="89" height="12" viewBox="0 0 89 12" fill="none" xmlns="http://www.w3.org/2000/svg">
<path d="M0.226497 6L6 11.7735L11.7735 6L6 0.226497L0.226497 6ZM6 6V7H8.075V6V5H6V6ZM12.225 6V7H16.375V6V5H12.225V6ZM20.525 6V7H24.675V6V5H20.525V6ZM28.825 6V7H32.975V6V5H28.825V6ZM37.125 6V7H41.275V6V5H37.125V6ZM45.425 6V7H49.575V6V5H45.425V6ZM53.725 6V7H57.875V6V5H53.725V6ZM62.025 6V7H66.175V6V5H62.025V6ZM70.325 6V7H74.475V6V5H70.325V6ZM78.625 6V7H82.775V6V5H78.625V6ZM86.925 6V7H89V6V5H86.925V6Z" fill="#7F2EF0"/>
</svg>
