<svg width="8" height="12" viewBox="0 0 8 12" fill="none" xmlns="http://www.w3.org/2000/svg">
<path fill-rule="evenodd" clip-rule="evenodd" d="M0.0624853 0.75C0.0624853 0.508375 0.258361 0.3125 0.499985 0.3125H7.49999C7.74161 0.3125 7.93749 0.508375 7.93749 0.75C7.93749 0.991625 7.74161 1.1875 7.49999 1.1875H4.58753C4.6492 1.24625 4.70823 1.3074 4.76458 1.37079C5.2303 1.8947 5.49809 2.55392 5.5784 3.22917H7.49999C7.74161 3.22917 7.93749 3.42504 7.93749 3.66667C7.93749 3.90829 7.74161 4.10417 7.49999 4.10417H5.5784C5.49809 4.77941 5.2303 5.43863 4.76458 5.96254C4.19136 6.60739 3.34097 7.02083 2.24999 7.02083H1.60318L5.75817 10.9314C5.93412 11.097 5.94251 11.3739 5.77691 11.5498C5.61131 11.7258 5.33442 11.7342 5.15847 11.5686L0.200138 6.90192C0.0695231 6.77899 0.0271755 6.58879 0.0932985 6.42205C0.159422 6.25532 0.320618 6.14583 0.499985 6.14583H2.24999C3.10354 6.14583 3.71156 5.83011 4.11061 5.38121C4.42278 5.03004 4.62054 4.58161 4.69537 4.10417H0.499985C0.258361 4.10417 0.0624853 3.90829 0.0624853 3.66667C0.0624853 3.42504 0.258361 3.22917 0.499985 3.22917H4.69537C4.62054 2.75173 4.42278 2.3033 4.11061 1.95213C3.71156 1.50322 3.10354 1.1875 2.24999 1.1875H0.499985C0.258361 1.1875 0.0624853 0.991625 0.0624853 0.75Z" fill="#5F5F5F"/>
</svg>
