<svg width="25" height="24" viewBox="0 0 25 24" fill="none" xmlns="http://www.w3.org/2000/svg">
<path fill-rule="evenodd" clip-rule="evenodd" d="M11.5 3.75C7.49594 3.75 4.25 6.99594 4.25 11C4.25 15.0041 7.49594 18.25 11.5 18.25C13.4606 18.25 15.2395 17.4717 16.5445 16.2073C16.5669 16.1767 16.592 16.1474 16.6197 16.1197C16.6474 16.092 16.6767 16.0669 16.7073 16.0445C17.9717 14.7395 18.75 12.9606 18.75 11C18.75 6.99594 15.5041 3.75 11.5 3.75ZM18.1949 16.6342C19.4773 15.112 20.25 13.1462 20.25 11C20.25 6.16751 16.3325 2.25 11.5 2.25C6.66751 2.25 2.75 6.16751 2.75 11C2.75 15.8325 6.66751 19.75 11.5 19.75C13.6462 19.75 15.612 18.9773 17.1342 17.6949L20.9697 21.5303C21.2626 21.8232 21.7374 21.8232 22.0303 21.5303C22.3232 21.2374 22.3232 20.7626 22.0303 20.4697L18.1949 16.6342Z" fill="#777584"/>
</svg>
