<svg width="53" height="29" viewBox="0 0 53 29" fill="none" xmlns="http://www.w3.org/2000/svg">
<path d="M26.25 11.2754C18.1266 11.2754 11.5254 17.8766 11.5254 26C11.5254 34.1234 18.1266 40.7246 26.25 40.7246C34.3734 40.7246 40.9746 34.1234 40.9746 26C40.9746 17.8766 34.3734 11.2754 26.25 11.2754ZM26.25 13.0996C33.361 13.0996 39.1504 18.889 39.1504 26C39.1504 33.111 33.361 38.9004 26.25 38.9004C19.139 38.9004 13.3496 33.111 13.3496 26C13.3496 18.889 19.139 13.0996 26.25 13.0996Z" fill="black" stroke="black" stroke-width="0.2"/>
<path d="M23.0342 15.9023C22.8419 15.4364 22.3042 15.219 21.8398 15.4102L21.8408 15.4141C19.239 16.4908 17.0978 18.5362 15.8955 21.0752L15.667 21.5898L15.6357 21.6777C15.5043 22.1182 15.7214 22.599 16.1543 22.7812C16.2698 22.839 16.3915 22.8574 16.5068 22.8574C16.863 22.8574 17.2018 22.6476 17.3477 22.292V22.291C18.3127 19.9599 20.2107 18.0623 22.542 17.0977C23.008 16.9055 23.2254 16.3667 23.0342 15.9023Z" fill="black" stroke="black" stroke-width="0.2"/>
<path d="M26.25 1.52539C25.7479 1.52539 25.3379 1.9354 25.3379 2.4375V7.3125C25.3379 7.8146 25.7479 8.22461 26.25 8.22461C26.7521 8.22461 27.1621 7.8146 27.1621 7.3125V2.4375C27.1621 1.9354 26.7521 1.52539 26.25 1.52539Z" fill="black" stroke="black" stroke-width="0.2"/>
<path d="M2.6875 25.0879C2.1854 25.0879 1.77539 25.4979 1.77539 26C1.77539 26.5021 2.1854 26.9121 2.6875 26.9121H7.5625C8.0646 26.9121 8.47461 26.5021 8.47461 26C8.47461 25.4979 8.0646 25.0879 7.5625 25.0879H2.6875Z" fill="black" stroke="black" stroke-width="0.2"/>
<path d="M44.9375 25.0879C44.4354 25.0879 44.0254 25.4979 44.0254 26C44.0254 26.5021 44.4354 26.9121 44.9375 26.9121H49.8125C50.3146 26.9121 50.7246 26.5021 50.7246 26C50.7246 25.4979 50.3146 25.0879 49.8125 25.0879H44.9375Z" fill="black" stroke="black" stroke-width="0.2"/>
<path d="M38.4863 4.79688C38.0493 4.55106 37.4927 4.69604 37.2373 5.13379L34.7998 9.35938L34.7988 9.36035C34.5532 9.79733 34.699 10.3531 35.1367 10.6084L35.1377 10.6094C35.2835 10.6914 35.4387 10.7275 35.5928 10.7275C35.9121 10.7275 36.2132 10.5631 36.3857 10.2725L36.3867 10.2715L38.8242 6.04688V6.0459C39.07 5.60889 38.9251 5.05224 38.4873 4.79688H38.4863Z" fill="black" stroke="black" stroke-width="0.2"/>
<path d="M6.2959 13.4248C5.85895 13.179 5.30326 13.3241 5.04785 13.7617L5.04688 13.7627C4.8011 14.1996 4.94621 14.7563 5.38379 15.0117H5.38477L9.60938 17.4492L9.61035 17.4502C9.75612 17.5322 9.91132 17.5683 10.0654 17.5684C10.3847 17.5684 10.6858 17.4038 10.8584 17.1133L10.8594 17.1113C11.1052 16.6743 10.9602 16.1177 10.5225 15.8623L6.29688 13.4248H6.2959Z" fill="black" stroke="black" stroke-width="0.2"/>
<path d="M47.4531 13.7627C47.1986 13.3265 46.6423 13.1696 46.2031 13.4258L41.9785 15.8633C41.5423 16.1178 41.3854 16.6741 41.6416 17.1133V17.1143C41.8141 17.4047 42.1153 17.5693 42.4346 17.5693C42.5887 17.5693 42.7438 17.5322 42.8896 17.4502H42.8906L47.1162 15.0127C47.5524 14.7583 47.7091 14.2018 47.4531 13.7627Z" fill="black" stroke="black" stroke-width="0.2"/>
<path d="M15.2109 5.05469C14.9385 4.67901 14.4234 4.55672 14.0117 4.79688C13.5755 5.05133 13.4187 5.60775 13.6748 6.04688L16.1123 10.2715L16.1133 10.2725C16.2858 10.563 16.5869 10.7275 16.9062 10.7275C17.0604 10.7275 17.2156 10.6914 17.3613 10.6094L17.3623 10.6084C17.7985 10.3539 17.9554 9.79755 17.6992 9.3584L15.2617 5.13379L15.2109 5.05469Z" fill="black" stroke="black" stroke-width="0.2"/>
</svg>
