<svg width="61" height="31" viewBox="0 0 61 31" fill="none" xmlns="http://www.w3.org/2000/svg">
<path d="M31.6585 7.5133V1.23169C31.6585 0.551373 31.0822 0 30.3712 0C29.6602 0 29.084 0.551373 29.084 1.23169V7.5133C29.084 8.19361 29.6602 8.74498 30.3712 8.74498C31.0822 8.74498 31.6585 8.19361 31.6585 7.5133Z" fill="black"/>
<path d="M59.4635 27.8359H52.8986C52.1876 27.8359 51.6113 28.3873 51.6113 29.0676C51.6113 29.7479 52.1876 30.2993 52.8986 30.2993H59.4635C60.1745 30.2993 60.7507 29.7479 60.7507 29.0676C60.7507 28.3873 60.1745 27.8359 59.4635 27.8359Z" fill="black"/>
<path d="M9.38937 29.0676C9.38937 28.3873 8.81313 27.8359 8.10214 27.8359H1.53724C0.826239 27.8359 0.25 28.3873 0.25 29.0676C0.25 29.7479 0.826239 30.2993 1.53724 30.2993H8.10214C8.81313 30.2993 9.38937 29.7479 9.38937 29.0676Z" fill="black"/>
<path d="M47.2678 14.6125L51.834 10.2433C52.3333 9.76173 52.3313 8.9847 51.83 8.5055C51.3292 8.02582 50.5171 8.02389 50.0138 8.50165L45.4476 12.8708C45.1203 13.1811 44.9911 13.6358 45.1097 14.0625C45.2289 14.4888 45.5768 14.8218 46.0223 14.9358C46.4684 15.0493 46.9435 14.9257 47.2678 14.6125Z" fill="black"/>
<path d="M13.7324 14.6125C14.0567 14.9257 14.5319 15.0493 14.9779 14.9358C15.4234 14.8218 15.7713 14.4888 15.8905 14.0625C16.0092 13.6358 15.8799 13.1811 15.5526 12.8708L10.9864 8.50165C10.4831 8.02389 9.67103 8.02582 9.17022 8.5055C8.6689 8.9847 8.66689 9.76173 9.16619 10.2433L13.7324 14.6125Z" fill="black"/>
<path d="M57.5326 37.0746H44.9564C49.1153 30.3292 47.5832 21.6963 41.329 16.6435C35.0754 11.5902 25.9244 11.5902 19.6708 16.6435C13.4171 21.6963 11.8845 30.3292 16.0439 37.0746H3.33997C2.62897 37.0746 2.05273 37.626 2.05273 38.3063C2.05273 38.9866 2.62897 39.538 3.33997 39.538H57.5326C58.2436 39.538 58.8198 38.9866 58.8198 38.3063C58.8198 37.626 58.2436 37.0746 57.5326 37.0746ZM16.2903 28.9147C16.2903 21.4052 22.6525 15.3175 30.5006 15.3175C38.3488 15.3175 44.711 21.4052 44.711 28.9147C44.7231 31.8592 43.724 34.7262 41.867 37.0746H19.1348C17.2914 34.7195 16.2933 31.8572 16.2903 28.9147Z" fill="black"/>
</svg>
